<svg width="24" height="24" viewBox="0 0 24 24" fill="none" xmlns="http://www.w3.org/2000/svg">
<path fill-rule="evenodd" clip-rule="evenodd" d="M15.6849 3.83145C16.5598 2.81746 17.1495 1.40518 16.9881 0C15.7273 0.048 14.202 0.805376 13.298 1.81816C12.4863 2.71695 11.7776 4.15308 11.9681 5.53066C13.3745 5.63505 14.81 4.84662 15.6849 3.83145ZM18.8386 12.75C18.8738 16.3824 22.1634 17.5907 22.1998 17.6063C22.1731 17.6915 21.6744 19.3279 20.467 21.0199C19.4222 22.4815 18.3387 23.9372 16.6313 23.9684C14.9544 23.9984 14.4144 23.0156 12.496 23.0156C10.5787 23.0156 9.9793 23.937 8.39212 23.9982C6.74428 24.057 5.48837 22.4169 4.43632 20.9602C2.28369 17.9806 0.639483 12.5401 2.84794 8.86816C3.94488 7.04539 5.90458 5.88935 8.03294 5.86055C9.65045 5.83055 11.1782 6.90352 12.1671 6.90352C13.1561 6.90352 15.0126 5.61353 16.9638 5.80313C17.7805 5.83553 20.0739 6.11863 21.5458 8.18379C21.4268 8.25459 18.8095 9.71405 18.8386 12.75Z" fill="#E0E1DD"/>
</svg>
