<svg width="24" height="24" viewBox="0 0 24 24" fill="none" xmlns="http://www.w3.org/2000/svg">
<mask id="path-1-inside-1_429_728" fill="white">
<path d="M22.5011 12.2332C22.5011 11.3699 22.4296 10.7399 22.2749 10.0865H12.2153V13.9832H18.1201C18.0011 14.9516 17.3582 16.4099 15.9296 17.3898L15.9095 17.5203L19.0902 19.935L19.3106 19.9565C21.3344 18.1249 22.5011 15.4298 22.5011 12.2332Z"/>
</mask>
<path d="M22.5011 12.2332C22.5011 11.3699 22.4296 10.7399 22.2749 10.0865H12.2153V13.9832H18.1201C18.0011 14.9516 17.3582 16.4099 15.9296 17.3898L15.9095 17.5203L19.0902 19.935L19.3106 19.9565C21.3344 18.1249 22.5011 15.4298 22.5011 12.2332Z" fill="#4285F4"/>
<path d="M22.2749 10.0865L46.6019 4.32524L42.0457 -14.9135H22.2749V10.0865ZM12.2153 10.0865V-14.9135H-12.7847V10.0865H12.2153ZM12.2153 13.9832H-12.7847V38.9832H12.2153V13.9832ZM18.1201 13.9832L42.9334 17.0329L46.3809 -11.0168H18.1201V13.9832ZM15.9296 17.3898L1.78803 -3.22612L-7.13918 2.89751L-8.78119 13.5979L15.9296 17.3898ZM15.9095 17.5203L-8.80121 13.7284L-11.0581 28.4353L0.792821 37.4323L15.9095 17.5203ZM19.0902 19.935L3.9735 39.847L9.61284 44.1282L16.6597 44.8166L19.0902 19.935ZM19.3106 19.9565L16.88 44.8381L27.8868 45.9133L36.0864 38.4922L19.3106 19.9565ZM47.5011 12.2332C47.5011 9.76063 47.2741 7.16319 46.6019 4.32524L-2.05223 15.8479C-2.20307 15.2109 -2.33104 14.4973 -2.41158 13.746C-2.48819 13.0314 -2.49894 12.4945 -2.49894 12.2332H47.5011ZM22.2749 -14.9135H12.2153V35.0865H22.2749V-14.9135ZM-12.7847 10.0865V13.9832H37.2153V10.0865H-12.7847ZM12.2153 38.9832H18.1201V-11.0168H12.2153V38.9832ZM-6.6932 10.9334C-6.31068 7.82118 -5.31482 5.20801 -4.08718 3.10018C-2.7769 0.850441 -0.856713 -1.41196 1.78803 -3.22612L30.0711 38.0058C37.9582 32.5956 42.0243 24.4293 42.9334 17.0329L-6.6932 10.9334ZM-8.78119 13.5979L-8.80121 13.7284L40.6203 21.3123L40.6403 21.1818L-8.78119 13.5979ZM0.792821 37.4323L3.9735 39.847L34.2069 0.0230913L31.0262 -2.39161L0.792821 37.4323ZM16.6597 44.8166L16.88 44.8381L21.7411 -4.92502L21.5208 -4.94654L16.6597 44.8166ZM36.0864 38.4922C43.9135 31.4082 47.5011 21.6904 47.5011 12.2332H-2.49894C-2.49894 9.16925 -1.24482 4.84157 2.53474 1.42085L36.0864 38.4922Z" fill="#08FDD8" mask="url(#path-1-inside-1_429_728)"/>
<path d="M12.2145 22.4999C15.1073 22.4999 17.5358 21.5665 19.3097 19.9565L15.9287 17.3898C15.024 18.0081 13.8097 18.4398 12.2145 18.4398C9.38121 18.4398 6.97645 16.6081 6.11923 14.0765L5.99358 14.0869L2.68632 16.5953L2.64307 16.7131C4.40495 20.1431 8.02401 22.4999 12.2145 22.4999Z" fill="#34A853"/>
<path d="M6.11997 14.0767C5.89379 13.4234 5.76288 12.7234 5.76288 12.0001C5.76288 11.2767 5.89379 10.5767 6.10807 9.9234L6.10208 9.7842L2.75336 7.2356L2.6438 7.28667C1.91765 8.71005 1.50098 10.3084 1.50098 12.0001C1.50098 13.6917 1.91765 15.29 2.6438 16.7134L6.11997 14.0767Z" fill="#FBBC05"/>
<path d="M12.2146 5.55997C14.2264 5.55997 15.5836 6.41164 16.3574 7.12335L19.3812 4.23C17.5241 2.53834 15.1074 1.5 12.2146 1.5C8.02401 1.5 4.40496 3.85665 2.64307 7.28662L6.10735 9.92332C6.97648 7.39166 9.38121 5.55997 12.2146 5.55997Z" fill="#EB4335"/>
</svg>
