<svg width="28" height="50" viewBox="0 0 28 50" fill="none" xmlns="http://www.w3.org/2000/svg">
<path d="M2.33331 17.3335L13.7317 11.6343C13.9006 11.5499 14.0994 11.5499 14.2683 11.6343L25.6666 17.3335" stroke="#08FDD8" stroke-width="1.5" stroke-linecap="round" stroke-linejoin="round"/>
<path d="M23.3334 20.8335V30.5002C23.3334 31.6047 22.4379 32.5002 21.3334 32.5002H6.66669C5.56212 32.5002 4.66669 31.6047 4.66669 30.5002V20.8335" stroke="#08FDD8" stroke-width="1.5" stroke-linecap="round" stroke-linejoin="round"/>
<path d="M0.863462 46V38.7273H2.18093V41.8061H5.55096V38.7273H6.87198V46H5.55096V42.9105H2.18093V46H0.863462ZM10.3873 46.1065C9.85464 46.1065 9.39299 45.9893 9.00237 45.755C8.61174 45.5206 8.30871 45.1927 8.09328 44.7713C7.88021 44.3499 7.77368 43.8575 7.77368 43.294C7.77368 42.7306 7.88021 42.237 8.09328 41.8132C8.30871 41.3894 8.61174 41.0604 9.00237 40.826C9.39299 40.5916 9.85464 40.4744 10.3873 40.4744C10.92 40.4744 11.3816 40.5916 11.7723 40.826C12.1629 41.0604 12.4647 41.3894 12.6778 41.8132C12.8932 42.237 13.0009 42.7306 13.0009 43.294C13.0009 43.8575 12.8932 44.3499 12.6778 44.7713C12.4647 45.1927 12.1629 45.5206 11.7723 45.755C11.3816 45.9893 10.92 46.1065 10.3873 46.1065ZM10.3944 45.0767C10.6832 45.0767 10.9247 44.9974 11.1188 44.8388C11.313 44.6778 11.4574 44.4624 11.5521 44.1925C11.6491 43.9226 11.6977 43.6219 11.6977 43.2905C11.6977 42.9567 11.6491 42.6548 11.5521 42.3849C11.4574 42.1127 11.313 41.8961 11.1188 41.7351C10.9247 41.5741 10.6832 41.4936 10.3944 41.4936C10.0985 41.4936 9.85227 41.5741 9.65578 41.7351C9.46165 41.8961 9.31605 42.1127 9.21899 42.3849C9.12429 42.6548 9.07694 42.9567 9.07694 43.2905C9.07694 43.6219 9.12429 43.9226 9.21899 44.1925C9.31605 44.4624 9.46165 44.6778 9.65578 44.8388C9.85227 44.9974 10.0985 45.0767 10.3944 45.0767ZM13.852 46V40.5455H15.0807V41.4723H15.1446C15.2583 41.1598 15.4465 40.916 15.7093 40.7408C15.9721 40.5632 16.2857 40.4744 16.6503 40.4744C17.0196 40.4744 17.331 40.5644 17.5843 40.7443C17.84 40.9219 18.0199 41.1645 18.1241 41.4723H18.1809C18.3016 41.1693 18.5052 40.9278 18.7917 40.7479C19.0805 40.5656 19.4226 40.4744 19.8179 40.4744C20.3198 40.4744 20.7294 40.633 21.0466 40.9503C21.3639 41.2675 21.5225 41.7304 21.5225 42.3388V46H20.2334V42.5376C20.2334 42.1991 20.1435 41.9517 19.9635 41.7955C19.7836 41.6368 19.5634 41.5575 19.303 41.5575C18.9929 41.5575 18.7502 41.6546 18.575 41.8487C18.4022 42.0405 18.3158 42.2902 18.3158 42.598V46H17.0552V42.4844C17.0552 42.2027 16.9699 41.9777 16.7995 41.8097C16.6314 41.6416 16.4112 41.5575 16.139 41.5575C15.9543 41.5575 15.7862 41.6049 15.6347 41.6996C15.4832 41.7919 15.3625 41.9233 15.2725 42.0938C15.1825 42.2618 15.1375 42.4583 15.1375 42.6832V46H13.852ZM25.0014 46.1065C24.4545 46.1065 23.9822 45.9929 23.5845 45.7656C23.1892 45.536 22.8849 45.2116 22.6719 44.7926C22.4588 44.3712 22.3523 43.8752 22.3523 43.3047C22.3523 42.7436 22.4588 42.2512 22.6719 41.8274C22.8873 41.4013 23.188 41.0698 23.5739 40.8331C23.9597 40.594 24.4131 40.4744 24.9339 40.4744C25.2701 40.4744 25.5874 40.5289 25.8856 40.6378C26.1863 40.7443 26.4515 40.91 26.6811 41.1349C26.9131 41.3598 27.0954 41.6463 27.228 41.9943C27.3606 42.34 27.4268 42.7519 27.4268 43.2301V43.6243H22.956V42.7578H26.1946C26.1922 42.5116 26.139 42.2926 26.0348 42.1009C25.9306 41.9067 25.785 41.754 25.598 41.6428C25.4133 41.5315 25.1979 41.4759 24.9517 41.4759C24.6889 41.4759 24.4581 41.5398 24.2592 41.6676C24.0604 41.7931 23.9053 41.9588 23.794 42.1648C23.6851 42.3684 23.6295 42.5921 23.6271 42.8359V43.5923C23.6271 43.9096 23.6851 44.1818 23.8011 44.4091C23.9171 44.634 24.0793 44.8068 24.2876 44.9276C24.496 45.0459 24.7398 45.1051 25.0192 45.1051C25.2062 45.1051 25.3755 45.0791 25.527 45.027C25.6785 44.9725 25.8099 44.8932 25.9212 44.7891C26.0324 44.6849 26.1165 44.5559 26.1733 44.402L27.3736 44.5369C27.2978 44.8542 27.1534 45.1312 26.9403 45.3679C26.7296 45.6023 26.4597 45.7846 26.1307 45.9148C25.8016 46.0426 25.4252 46.1065 25.0014 46.1065Z" fill="#08FDD8"/>
</svg>
