<svg width="29" height="50" viewBox="0 0 29 50" fill="none" xmlns="http://www.w3.org/2000/svg">
<path d="M6.33337 31.3333V29C6.33337 25.134 9.46738 22 13.3334 22H15.6667C19.5327 22 22.6667 25.134 22.6667 29V31.3333" stroke="#E0E1DD" stroke-width="1.5" stroke-linecap="round" stroke-linejoin="round"/>
<path d="M14.5 21.9998C17.0774 21.9998 19.1667 19.9105 19.1667 17.3332C19.1667 14.7558 17.0774 12.6665 14.5 12.6665C11.9227 12.6665 9.83337 14.7558 9.83337 17.3332C9.83337 19.9105 11.9227 21.9998 14.5 21.9998Z" stroke="#E0E1DD" stroke-width="1.5" stroke-linecap="round" stroke-linejoin="round"/>
<path d="M1.08115 46V38.7273H3.53854C4.10909 38.7273 4.57547 38.8303 4.93768 39.0362C5.30227 39.2398 5.57215 39.5156 5.74734 39.8636C5.92253 40.2116 6.01013 40.5999 6.01013 41.0284C6.01013 41.4569 5.92253 41.8464 5.74734 42.1967C5.57452 42.5471 5.307 42.8265 4.94479 43.0348C4.58257 43.2408 4.11856 43.3438 3.55274 43.3438H1.79138V42.5625H3.52433C3.91496 42.5625 4.22864 42.495 4.46538 42.3601C4.70213 42.2251 4.87376 42.0429 4.9803 41.8132C5.0892 41.5812 5.14365 41.3196 5.14365 41.0284C5.14365 40.7372 5.0892 40.4768 4.9803 40.2472C4.87376 40.0175 4.70094 39.8376 4.46183 39.7074C4.22272 39.5748 3.90549 39.5085 3.51013 39.5085H1.96183V46H1.08115ZM7.07517 46V40.5455H7.88483V41.3693H7.94165C8.04108 41.0994 8.221 40.8804 8.48142 40.7124C8.74184 40.5443 9.0354 40.4602 9.3621 40.4602C9.42366 40.4602 9.5006 40.4614 9.59293 40.4638C9.68526 40.4661 9.7551 40.4697 9.80244 40.4744V41.3267C9.77403 41.3196 9.70893 41.3089 9.60713 41.2947C9.5077 41.2782 9.40235 41.2699 9.29108 41.2699C9.02593 41.2699 8.78919 41.3255 8.58085 41.4368C8.37489 41.5457 8.21153 41.6972 8.0908 41.8913C7.97242 42.0831 7.91324 42.3021 7.91324 42.5483V46H7.07517ZM12.6058 46.1136C12.1133 46.1136 11.6813 45.9964 11.3096 45.7621C10.9403 45.5277 10.6515 45.1998 10.4431 44.7784C10.2372 44.357 10.1342 43.8646 10.1342 43.3011C10.1342 42.733 10.2372 42.237 10.4431 41.8132C10.6515 41.3894 10.9403 41.0604 11.3096 40.826C11.6813 40.5916 12.1133 40.4744 12.6058 40.4744C13.0982 40.4744 13.5291 40.5916 13.8984 40.826C14.2701 41.0604 14.5589 41.3894 14.7649 41.8132C14.9732 42.237 15.0774 42.733 15.0774 43.3011C15.0774 43.8646 14.9732 44.357 14.7649 44.7784C14.5589 45.1998 14.2701 45.5277 13.8984 45.7621C13.5291 45.9964 13.0982 46.1136 12.6058 46.1136ZM12.6058 45.3608C12.9798 45.3608 13.2876 45.2649 13.5291 45.0732C13.7705 44.8814 13.9493 44.6293 14.0653 44.3168C14.1813 44.0043 14.2393 43.6657 14.2393 43.3011C14.2393 42.9366 14.1813 42.5968 14.0653 42.282C13.9493 41.9671 13.7705 41.7126 13.5291 41.5185C13.2876 41.3243 12.9798 41.2273 12.6058 41.2273C12.2317 41.2273 11.9239 41.3243 11.6825 41.5185C11.441 41.7126 11.2623 41.9671 11.1463 42.282C11.0302 42.5968 10.9722 42.9366 10.9722 43.3011C10.9722 43.6657 11.0302 44.0043 11.1463 44.3168C11.2623 44.6293 11.441 44.8814 11.6825 45.0732C11.9239 45.2649 12.2317 45.3608 12.6058 45.3608ZM18.5456 40.5455V41.2557H15.6053V40.5455H18.5456ZM16.486 46V39.7926C16.486 39.4801 16.5594 39.2197 16.7061 39.0114C16.8529 38.803 17.0435 38.6468 17.2779 38.5426C17.5123 38.4384 17.7596 38.3864 18.0201 38.3864C18.226 38.3864 18.3941 38.4029 18.5243 38.4361C18.6545 38.4692 18.7516 38.5 18.8155 38.5284L18.574 39.2528C18.5314 39.2386 18.4722 39.2209 18.3965 39.1996C18.3231 39.1783 18.226 39.1676 18.1053 39.1676C17.8283 39.1676 17.6283 39.2375 17.5051 39.3771C17.3844 39.5168 17.324 39.7216 17.324 39.9915V46H16.486ZM19.4802 46V40.5455H20.3182V46H19.4802ZM19.9063 39.6364C19.743 39.6364 19.6021 39.5807 19.4837 39.4695C19.3677 39.3582 19.3097 39.2244 19.3097 39.0682C19.3097 38.9119 19.3677 38.7782 19.4837 38.6669C19.6021 38.5556 19.743 38.5 19.9063 38.5C20.0697 38.5 20.2093 38.5556 20.3253 38.6669C20.4437 38.7782 20.5029 38.9119 20.5029 39.0682C20.5029 39.2244 20.4437 39.3582 20.3253 39.4695C20.2093 39.5807 20.0697 39.6364 19.9063 39.6364ZM22.4513 38.7273V46H21.6132V38.7273H22.4513ZM26.0332 46.1136C25.5076 46.1136 25.0543 45.9976 24.6731 45.7656C24.2943 45.5312 24.0019 45.2045 23.796 44.7855C23.5924 44.3641 23.4906 43.8741 23.4906 43.3153C23.4906 42.7566 23.5924 42.2642 23.796 41.8381C24.0019 41.4096 24.2884 41.0758 24.6554 40.8366C25.0247 40.5952 25.4555 40.4744 25.948 40.4744C26.2321 40.4744 26.5126 40.5218 26.7896 40.6165C27.0666 40.7112 27.3187 40.8651 27.546 41.0781C27.7733 41.2888 27.9544 41.5682 28.0893 41.9162C28.2242 42.2642 28.2917 42.6927 28.2917 43.2017V43.5568H24.0872V42.8324H27.4394C27.4394 42.5246 27.3779 42.25 27.2548 42.0085C27.134 41.767 26.9612 41.5765 26.7363 41.4368C26.5138 41.2971 26.251 41.2273 25.948 41.2273C25.6142 41.2273 25.3253 41.3101 25.0815 41.4759C24.84 41.6392 24.6542 41.8523 24.524 42.1151C24.3938 42.3778 24.3286 42.6596 24.3286 42.9602V43.4432C24.3286 43.8551 24.3997 44.2043 24.5417 44.4908C24.6861 44.7749 24.8862 44.9915 25.1419 45.1406C25.3975 45.2874 25.6947 45.3608 26.0332 45.3608C26.2534 45.3608 26.4522 45.33 26.6298 45.2685C26.8097 45.2045 26.9648 45.1098 27.095 44.9844C27.2252 44.8565 27.3258 44.6979 27.3968 44.5085L28.2065 44.7358C28.1213 45.0104 27.978 45.2519 27.7768 45.4602C27.5756 45.6662 27.327 45.8272 27.0311 45.9432C26.7351 46.0568 26.4025 46.1136 26.0332 46.1136Z" fill="#E0E1DD"/>
</svg>
