<svg width="33" height="50" viewBox="0 0 33 50" fill="none" xmlns="http://www.w3.org/2000/svg">
<path d="M6 30.5V13.5C6 12.3954 6.89543 11.5 8 11.5H25C26.1046 11.5 27 12.3954 27 13.5V30.5C27 31.6046 26.1046 32.5 25 32.5H8C6.89543 32.5 6 31.6046 6 30.5Z" stroke="#E0E1DD" stroke-width="1.5"/>
<path d="M18.6655 24.1582C19.3871 23.4346 19.8333 22.4362 19.8333 21.3335C19.8333 19.1244 18.0425 17.3335 15.8333 17.3335C13.6242 17.3335 11.8333 19.1244 11.8333 21.3335C11.8333 23.5426 13.6242 25.3335 15.8333 25.3335C16.9398 25.3335 17.9413 24.8842 18.6655 24.1582ZM18.6655 24.1582L21.1666 26.6668" stroke="#E0E1DD" stroke-width="1.5" stroke-linecap="round" stroke-linejoin="round"/>
<path d="M5.51753 40.5455C5.47491 40.1856 5.30209 39.9062 4.99906 39.7074C4.69603 39.5085 4.32434 39.4091 3.884 39.4091C3.56203 39.4091 3.28031 39.4612 3.03883 39.5653C2.79972 39.6695 2.6127 39.8127 2.47775 39.995C2.34518 40.1773 2.27889 40.3845 2.27889 40.6165C2.27889 40.8106 2.32505 40.9775 2.41738 41.1172C2.51208 41.2545 2.63282 41.3693 2.7796 41.4616C2.92638 41.5516 3.08026 41.6262 3.24125 41.6854C3.40223 41.7422 3.5502 41.7884 3.68514 41.8239L4.42378 42.0227C4.61317 42.0724 4.82387 42.1411 5.05588 42.2287C5.29025 42.3163 5.51397 42.4358 5.72704 42.5874C5.94248 42.7365 6.12003 42.9283 6.25971 43.1626C6.39939 43.397 6.46923 43.6847 6.46923 44.0256C6.46923 44.4186 6.36625 44.7737 6.16028 45.0909C5.95668 45.4081 5.65839 45.6603 5.26539 45.8473C4.87477 46.0343 4.4001 46.1278 3.84139 46.1278C3.32056 46.1278 2.86956 46.0438 2.48841 45.8757C2.10962 45.7076 1.81132 45.4732 1.59352 45.1726C1.37808 44.8719 1.25616 44.5227 1.22775 44.125H2.13684C2.16052 44.3996 2.25285 44.6269 2.41383 44.8068C2.57718 44.9844 2.78315 45.117 3.03173 45.2045C3.28268 45.2898 3.55256 45.3324 3.84139 45.3324C4.17756 45.3324 4.47941 45.2779 4.74693 45.169C5.01445 45.0578 5.22633 44.9039 5.38258 44.7074C5.53883 44.5085 5.61696 44.2765 5.61696 44.0114C5.61696 43.7699 5.54949 43.5734 5.41454 43.4219C5.2796 43.2704 5.10204 43.1473 4.88187 43.0526C4.6617 42.9579 4.42378 42.875 4.16809 42.804L3.27321 42.5483C2.70503 42.3849 2.25521 42.1518 1.92378 41.8487C1.59234 41.5457 1.42662 41.1491 1.42662 40.6591C1.42662 40.2519 1.5367 39.8968 1.75687 39.5938C1.97941 39.2884 2.27771 39.0516 2.65176 38.8835C3.02818 38.7131 3.4484 38.6278 3.91241 38.6278C4.38116 38.6278 4.79783 38.7119 5.16241 38.88C5.527 39.0457 5.81582 39.273 6.02889 39.5618C6.24432 39.8506 6.35796 40.1785 6.3698 40.5455H5.51753ZM9.8505 46.1136C9.32493 46.1136 8.87157 45.9976 8.49042 45.7656C8.11163 45.5312 7.81925 45.2045 7.61329 44.7855C7.40969 44.3641 7.30789 43.8741 7.30789 43.3153C7.30789 42.7566 7.40969 42.2642 7.61329 41.8381C7.81925 41.4096 8.10571 41.0758 8.47266 40.8366C8.84198 40.5952 9.27285 40.4744 9.76527 40.4744C10.0494 40.4744 10.3299 40.5218 10.6069 40.6165C10.8839 40.7112 11.136 40.8651 11.3633 41.0781C11.5906 41.2888 11.7717 41.5682 11.9066 41.9162C12.0416 42.2642 12.109 42.6927 12.109 43.2017V43.5568H7.90448V42.8324H11.2568C11.2568 42.5246 11.1952 42.25 11.0721 42.0085C10.9514 41.767 10.7785 41.5765 10.5536 41.4368C10.3311 41.2971 10.0683 41.2273 9.76527 41.2273C9.43147 41.2273 9.14264 41.3101 8.8988 41.4759C8.65732 41.6392 8.47148 41.8523 8.34127 42.1151C8.21106 42.3778 8.14596 42.6596 8.14596 42.9602V43.4432C8.14596 43.8551 8.21698 44.2043 8.35902 44.4908C8.50344 44.7749 8.70348 44.9915 8.95917 45.1406C9.21485 45.2874 9.51196 45.3608 9.8505 45.3608C10.0707 45.3608 10.2695 45.33 10.4471 45.2685C10.627 45.2045 10.7821 45.1098 10.9123 44.9844C11.0425 44.8565 11.1431 44.6979 11.2141 44.5085L12.0238 44.7358C11.9386 45.0104 11.7953 45.2519 11.5941 45.4602C11.3929 45.6662 11.1443 45.8272 10.8484 45.9432C10.5524 46.0568 10.2198 46.1136 9.8505 46.1136ZM14.749 46.1278C14.4034 46.1278 14.0897 46.0627 13.8079 45.9325C13.5262 45.8 13.3025 45.6094 13.1368 45.3608C12.9711 45.1098 12.8882 44.8068 12.8882 44.4517C12.8882 44.1392 12.9498 43.8859 13.0729 43.6918C13.196 43.4953 13.3605 43.3414 13.5665 43.2301C13.7724 43.1188 13.9997 43.036 14.2483 42.9815C14.4992 42.9247 14.7514 42.8797 15.0047 42.8466C15.3361 42.804 15.6048 42.772 15.8108 42.7507C16.0191 42.727 16.1706 42.688 16.2653 42.6335C16.3624 42.5791 16.4109 42.4844 16.4109 42.3494V42.321C16.4109 41.9706 16.315 41.6984 16.1233 41.5043C15.9339 41.3101 15.6462 41.2131 15.2604 41.2131C14.8603 41.2131 14.5466 41.3007 14.3193 41.4759C14.092 41.651 13.9322 41.8381 13.8399 42.0369L13.0445 41.7528C13.1865 41.4214 13.3759 41.1634 13.6126 40.9787C13.8517 40.7917 14.1122 40.6615 14.3939 40.5881C14.678 40.5123 14.9573 40.4744 15.232 40.4744C15.4071 40.4744 15.6084 40.4957 15.8356 40.5384C16.0653 40.5786 16.2866 40.6626 16.4997 40.7905C16.7151 40.9183 16.8939 41.1113 17.0359 41.3693C17.178 41.6274 17.249 41.973 17.249 42.4062V46H16.4109V45.2614H16.3683C16.3115 45.3797 16.2168 45.5064 16.0842 45.6413C15.9516 45.7763 15.7753 45.8911 15.5551 45.9858C15.3349 46.0805 15.0662 46.1278 14.749 46.1278ZM14.8768 45.375C15.2083 45.375 15.4876 45.3099 15.7149 45.1797C15.9445 45.0495 16.1174 44.8814 16.2334 44.6754C16.3517 44.4695 16.4109 44.2528 16.4109 44.0256V43.2585C16.3754 43.3011 16.2973 43.3402 16.1766 43.3757C16.0582 43.4089 15.9209 43.4384 15.7646 43.4645C15.6107 43.4882 15.4604 43.5095 15.3136 43.5284C15.1692 43.545 15.052 43.5592 14.9621 43.571C14.7443 43.5994 14.5407 43.6456 14.3513 43.7095C14.1642 43.7711 14.0127 43.8646 13.8967 43.9901C13.7831 44.1132 13.7263 44.2812 13.7263 44.4943C13.7263 44.7855 13.834 45.0057 14.0494 45.1548C14.2672 45.3016 14.543 45.375 14.8768 45.375ZM18.5386 46V40.5455H19.3483V41.3693H19.4051C19.5046 41.0994 19.6845 40.8804 19.9449 40.7124C20.2053 40.5443 20.4989 40.4602 20.8256 40.4602C20.8871 40.4602 20.9641 40.4614 21.0564 40.4638C21.1487 40.4661 21.2186 40.4697 21.2659 40.4744V41.3267C21.2375 41.3196 21.1724 41.3089 21.0706 41.2947C20.9712 41.2782 20.8658 41.2699 20.7546 41.2699C20.4894 41.2699 20.2527 41.3255 20.0443 41.4368C19.8384 41.5457 19.675 41.6972 19.5543 41.8913C19.4359 42.0831 19.3767 42.3021 19.3767 42.5483V46H18.5386ZM24.0692 46.1136C23.5579 46.1136 23.1175 45.9929 22.7482 45.7514C22.3789 45.5099 22.0948 45.1773 21.8959 44.7536C21.6971 44.3298 21.5977 43.8456 21.5977 43.3011C21.5977 42.7472 21.6995 42.2583 21.9031 41.8345C22.109 41.4084 22.3955 41.0758 22.7624 40.8366C23.1317 40.5952 23.5626 40.4744 24.055 40.4744C24.4386 40.4744 24.7842 40.5455 25.092 40.6875C25.3997 40.8295 25.6519 41.0284 25.8484 41.2841C26.0449 41.5398 26.1668 41.8381 26.2141 42.179H25.3761C25.3121 41.9304 25.1701 41.7102 24.9499 41.5185C24.7321 41.3243 24.4386 41.2273 24.0692 41.2273C23.7425 41.2273 23.4561 41.3125 23.2099 41.483C22.966 41.651 22.7754 41.889 22.6381 42.1967C22.5032 42.5021 22.4357 42.8608 22.4357 43.2727C22.4357 43.6941 22.502 44.0611 22.6346 44.3736C22.7695 44.6861 22.9589 44.9287 23.2028 45.1016C23.449 45.2744 23.7378 45.3608 24.0692 45.3608C24.287 45.3608 24.4847 45.3229 24.6623 45.2472C24.8398 45.1714 24.9902 45.0625 25.1133 44.9205C25.2364 44.7784 25.324 44.608 25.3761 44.4091H26.2141C26.1668 44.7311 26.0496 45.0211 25.8626 45.2791C25.6779 45.5348 25.4329 45.7384 25.1275 45.8899C24.8245 46.0391 24.4717 46.1136 24.0692 46.1136ZM28.0373 42.7188V46H27.1993V38.7273H28.0373V41.3977H28.1084C28.2362 41.116 28.428 40.8923 28.6836 40.7266C28.9417 40.5585 29.285 40.4744 29.7135 40.4744C30.0852 40.4744 30.4107 40.549 30.69 40.6982C30.9694 40.8449 31.186 41.071 31.3399 41.3764C31.4961 41.6795 31.5743 42.0653 31.5743 42.5341V46H30.7362V42.5909C30.7362 42.1577 30.6238 41.8227 30.3988 41.5859C30.1763 41.3468 29.8674 41.2273 29.472 41.2273C29.1974 41.2273 28.9512 41.2853 28.7334 41.4013C28.5179 41.5173 28.3475 41.6866 28.222 41.9091C28.0989 42.1316 28.0373 42.4015 28.0373 42.7188Z" fill="#E0E1DD"/>
</svg>
