<svg width="63" height="120" viewBox="0 0 63 120" fill="none" xmlns="http://www.w3.org/2000/svg">
<path d="M41.1849 115.865C27.9736 123.133 11.3147 118.422 3.97255 105.343C2.69973 103.076 1.79165 100.706 1.22848 98.3004C0.982068 97.2532 0.801318 96.1988 0.684787 95.1444C-0.43723 84.993 4.32828 74.6984 13.5927 69.0875C13.9228 68.8849 14.259 68.691 14.601 68.5031C15.5928 67.9573 16.6041 67.4798 17.6291 67.0701C21.1903 65.6357 24.9232 65.001 28.5981 65.0974C28.8355 65.1035 29.0733 65.1138 29.3107 65.1256C33.2186 65.3281 37.0443 66.3604 40.5142 68.1427C45.1228 70.5076 49.1022 74.1958 51.8134 79.0245C53.3088 81.6894 54.3021 84.4951 54.8234 87.3375C56.8639 98.4426 51.7045 110.079 41.1849 115.866V115.865Z" fill="#5FCFBE"/>
<g opacity="0.6">
<path d="M51.5093 78.5055C48.8085 73.9325 44.955 70.4215 40.5142 68.1427C37.0443 66.3607 33.2186 65.3284 29.3106 65.1256C29.0732 65.1138 28.8355 65.1034 28.5981 65.0973C24.9232 65.0013 21.1903 65.6356 17.629 67.0704C16.6041 67.4801 15.5928 67.9576 14.601 68.5034C14.259 68.6913 13.9228 68.8849 13.5927 69.0878C4.32789 74.6983 -0.437251 84.9933 0.684766 95.1447C0.801297 96.1991 0.982046 97.2535 1.22846 98.3007C1.28762 98.5532 1.35256 98.8054 1.41967 99.0572C-0.349943 87.9382 4.90911 76.4146 15.4268 70.6279C16.4219 70.08 17.4364 69.5996 18.4653 69.1853C18.4747 69.2596 18.4895 69.3335 18.5079 69.4067C18.9051 70.9712 21.2148 71.7448 23.6692 71.134C26.1224 70.524 27.79 68.7609 27.3927 67.1965L27.3913 67.1915C36.6492 66.6775 45.8368 70.7765 51.5089 78.5055H51.5093Z" fill="white"/>
</g>
<g opacity="0.35">
<path d="M40.5903 68.6629C40.5903 70.8131 36.7589 72.5554 32.0323 72.5554C31.0164 72.5554 30.0412 72.4754 29.1375 72.3261C27.711 73.5727 24.8457 74.4245 21.5413 74.4245C16.8148 74.4245 12.9833 72.6808 12.9833 70.532C12.9833 70.0219 13.1998 69.5337 13.5927 69.0872C13.9228 68.8847 14.259 68.6907 14.601 68.5029C15.5928 67.9571 16.6041 67.4796 17.629 67.0699C18.8016 66.7948 20.131 66.6395 21.5413 66.6395C22.5573 66.6395 23.5324 66.7195 24.4362 66.8688C25.3356 66.0819 26.8068 65.4533 28.5981 65.0972C28.8355 65.1032 29.0732 65.1136 29.3106 65.1254C33.2186 65.3279 37.0443 66.3602 40.5142 68.1425C40.5651 68.3125 40.5903 68.4872 40.5903 68.6629Z" fill="#371A45"/>
</g>
<g opacity="0.35">
<path d="M41.1849 114.079C27.9736 121.347 11.3147 116.636 3.97252 103.557C2.6997 101.29 1.79163 98.9204 1.22845 96.5145C0.982041 95.4672 0.801292 94.4128 0.684761 93.3584C0.476953 91.4804 0.471181 89.5959 0.657703 87.7371C0.666722 87.8229 0.675741 87.9086 0.684761 87.9943C0.801292 89.0487 0.982041 90.1031 1.22845 91.1503C1.79163 93.5567 2.6997 95.9258 3.97252 98.1928C11.3147 111.272 27.9736 115.983 41.1849 108.715C49.3352 104.231 54.2677 96.2362 55.1268 87.6968C56.1784 98.1275 51.0276 108.664 41.1849 114.079V114.079Z" fill="#371A45"/>
</g>
<path d="M28.0836 119.906C18.2225 119.906 8.64496 114.755 3.52517 105.633C-3.98477 92.2524 0.900878 75.3175 14.4163 67.8817C27.9325 60.4463 45.0376 65.2836 52.5479 78.6642C60.0579 92.0449 55.1722 108.98 41.6568 116.416C37.3549 118.782 32.6879 119.906 28.0836 119.906ZM27.9916 65.7308C23.6089 65.7308 19.1685 66.7998 15.0733 69.0525C2.21014 76.129 -2.43992 92.247 4.70816 104.982C11.8559 117.717 28.1363 122.321 40.9998 115.244C53.863 108.168 58.513 92.0495 51.365 79.3143C46.4927 70.6334 37.3758 65.7304 27.9913 65.7304L27.9916 65.7308Z" fill="#371A45"/>
<path d="M21.0788 79.1536C18.1908 79.2958 16.1509 78.321 16.5222 76.9766C16.8934 75.6322 19.5357 74.4271 22.4238 74.2853C25.3118 74.1431 27.3516 75.1178 26.9804 76.4623C26.6091 77.8067 23.9668 79.0118 21.0788 79.1536Z" fill="#5FCFBE"/>
<path d="M26.7249 72.745C27.1792 73.0683 27.5796 73.5108 27.7993 74.0602C27.8542 74.1966 27.8971 74.3384 27.9281 74.4827C27.9631 74.627 27.9628 74.7756 27.9776 74.9238C27.9909 75.2199 27.9512 75.5178 27.8729 75.8025C27.7099 76.3722 27.3927 76.8755 27.0164 77.3066C26.6344 77.7341 26.195 78.1049 25.7173 78.4067C25.24 78.7074 24.7371 78.9714 24.2089 79.1636C24.0794 79.2189 23.9459 79.2621 23.812 79.305C23.6782 79.3475 23.5458 79.395 23.4105 79.4325C23.1381 79.4993 22.869 79.5829 22.5915 79.6265C22.0417 79.7415 21.4796 79.7833 20.9179 79.8093C20.3547 79.8104 19.7879 79.7911 19.228 79.6875C18.6691 79.5843 18.1146 79.435 17.5832 79.2036C17.0557 78.9664 16.546 78.6542 16.1246 78.222C15.7032 77.7959 15.376 77.2351 15.2724 76.6201C15.1602 76.0064 15.2869 75.3725 15.5473 74.8424C15.8085 74.3081 16.1859 73.858 16.6109 73.483C16.8209 73.2905 17.0518 73.1294 17.2802 72.9658C17.5197 72.8204 17.7531 72.6658 18.0057 72.5486C18.2506 72.4157 18.5108 72.3182 18.7644 72.2093C19.0267 72.1218 19.2825 72.0171 19.5509 71.9546C20.0783 71.7971 20.6242 71.7207 21.1646 71.6581C21.2382 71.6496 21.305 71.7017 21.3136 71.7749C21.3216 71.8425 21.2768 71.9042 21.2115 71.92L21.204 71.9217L20.8172 72.0139C20.6881 72.0428 20.5603 72.075 20.4344 72.1164L20.0556 72.2289L19.6851 72.3629L19.5007 72.4304L19.3207 72.5086L18.9617 72.6647C18.7312 72.7858 18.4949 72.8947 18.2781 73.0354C18.0529 73.1629 17.8462 73.3151 17.6362 73.4608C17.4389 73.6219 17.239 73.7791 17.0651 73.9605C16.713 74.3159 16.4082 74.712 16.222 75.1467C16.0326 75.5793 15.9763 76.0425 16.0643 76.4761C16.1513 76.9108 16.3923 77.3069 16.7282 77.6295C17.0651 77.952 17.4836 78.2095 17.935 78.407C18.391 78.5996 18.8806 78.7264 19.3777 78.8128C19.877 78.896 20.3875 78.9235 20.8984 78.9246C21.4089 78.9032 21.9226 78.87 22.4259 78.7671C23.4383 78.5992 24.4174 78.2456 25.2941 77.7402C25.7346 77.4891 26.1318 77.1751 26.4792 76.824C26.826 76.4729 27.1135 76.0665 27.2715 75.6182C27.3505 75.3946 27.4014 75.1628 27.409 74.9278C27.4046 74.811 27.418 74.691 27.3981 74.5742C27.3819 74.457 27.3574 74.3406 27.3242 74.2256C27.1871 73.7662 26.8902 73.3465 26.5121 73.0022C26.4439 72.9404 26.4392 72.8358 26.5016 72.7686C26.5593 72.7061 26.6546 72.6979 26.7224 72.7461L26.7249 72.745Z" fill="#371A45"/>
<path d="M22.9858 81.3868C22.1218 81.8908 21.0943 82.1212 20.0805 82.1198C19.5718 82.124 19.0646 82.0612 18.566 81.9626C18.0695 81.8544 17.5825 81.7008 17.1174 81.4965C16.1895 81.0889 15.3219 80.5089 14.6595 79.7224C14.3279 79.3323 14.0519 78.8873 13.8791 78.4004C13.7092 77.9147 13.6406 77.3875 13.7283 76.8903C13.7409 76.8174 13.8113 76.7685 13.8849 76.7813C13.9466 76.7921 13.991 76.8421 13.9967 76.901V76.9039C14.0837 77.8222 14.566 78.6076 15.2079 79.2273C15.8526 79.8474 16.6354 80.3317 17.4725 80.6814C18.3109 81.0289 19.2031 81.2604 20.1123 81.334C21.0218 81.4086 21.9432 81.334 22.8534 81.0839L22.8556 81.0832C22.9451 81.0586 23.0378 81.1107 23.0623 81.1993C23.0833 81.2736 23.0497 81.35 22.9858 81.3872V81.3868Z" fill="#371A45"/>
<path d="M13.0551 95.2389C12.9234 98.0985 11.7491 100.017 10.4326 99.5226C9.11614 99.0286 8.15575 96.3101 8.28744 93.4505C8.41912 90.591 9.59345 88.6729 10.9099 89.1669C12.2264 89.6609 13.1868 92.3794 13.0551 95.2389Z" fill="#5FCFBE"/>
<path d="M7.14809 89.0658C7.51644 88.649 7.99916 88.2964 8.57244 88.1321C8.71494 88.091 8.86142 88.0625 9.0097 88.0453C9.15834 88.0246 9.3077 88.0393 9.45778 88.0385C9.75687 88.0535 10.0523 88.121 10.3316 88.225C10.8886 88.44 11.3649 88.8004 11.7624 89.2122C12.156 89.6294 12.4869 90.0977 12.7448 90.597C13.0017 91.0963 13.2192 91.6168 13.3625 92.1554C13.4058 92.2883 13.4368 92.424 13.4671 92.5601C13.497 92.6958 13.5324 92.8312 13.5573 92.968C13.5984 93.2426 13.6569 93.5159 13.6742 93.7934C13.7373 94.3463 13.7261 94.9039 13.6987 95.4604C13.646 96.0154 13.5732 96.5723 13.4155 97.1141C13.2586 97.6549 13.0558 98.1874 12.7726 98.6889C12.484 99.1861 12.1218 99.6586 11.647 100.033C11.1783 100.408 10.5834 100.677 9.95493 100.721C9.32718 100.773 8.70159 100.588 8.19326 100.28C7.68095 99.9722 7.26426 99.5576 6.92765 99.1029C6.75412 98.8779 6.61414 98.6346 6.47127 98.3942C6.34788 98.1446 6.2144 97.8995 6.12095 97.6395C6.01092 97.3856 5.93732 97.1198 5.85218 96.8594C5.78904 96.5926 5.70823 96.3308 5.67107 96.0601C5.56283 95.5254 5.53794 94.98 5.52639 94.4413C5.52495 94.3678 5.58376 94.307 5.65808 94.3056C5.72699 94.3042 5.78471 94.3542 5.79409 94.4199L5.79517 94.4274L5.85109 94.8174C5.86769 94.9475 5.88789 95.0764 5.91784 95.2043L5.99468 95.5882L6.09426 95.9661L6.1444 96.1544L6.20574 96.339L6.3284 96.7076C6.42834 96.9462 6.51528 97.1895 6.63614 97.4166C6.74293 97.6506 6.87642 97.8688 7.00305 98.0896C7.14628 98.2992 7.28518 98.5114 7.45114 98.7C7.77476 99.0807 8.14455 99.4186 8.56342 99.6436C8.98047 99.8715 9.44083 99.9712 9.8853 99.9255C10.3305 99.8812 10.7519 99.6812 11.1083 99.3808C11.4648 99.0793 11.7635 98.6914 12.0049 98.2653C12.2419 97.8342 12.4158 97.3638 12.55 96.8819C12.6813 96.3976 12.7571 95.8972 12.8069 95.3939C12.8336 94.8889 12.8491 94.3792 12.7939 93.8734C12.7214 92.8597 12.4591 91.8614 12.0341 90.9492C11.8234 90.4909 11.5456 90.0698 11.2256 89.6937C10.9056 89.3187 10.5242 88.9965 10.0884 88.7983C9.87123 88.6993 9.64286 88.6268 9.40727 88.5972C9.2893 88.5904 9.17024 88.5657 9.05046 88.574C8.93105 88.579 8.81163 88.5918 8.69293 88.6136C8.21815 88.705 7.7679 88.9579 7.38584 89.2976C7.31729 89.359 7.21158 89.3537 7.14989 89.2858C7.09253 89.2229 7.09325 89.1283 7.14809 89.0658Z" fill="#371A45"/>
<path d="M15.4821 93.5723C15.9067 94.4717 16.0405 95.5064 15.9428 96.5054C15.8988 97.0073 15.7873 97.5012 15.6408 97.9831C15.4849 98.4621 15.284 98.9275 15.0343 99.3664C14.5365 100.242 13.8708 101.042 13.0169 101.62C12.5933 101.91 12.1196 102.14 11.6134 102.264C11.1087 102.385 10.5722 102.402 10.0805 102.269C10.0083 102.249 9.96577 102.175 9.98562 102.104C10.0022 102.044 10.0567 102.005 10.1162 102.005H10.1191C11.0506 102.007 11.8866 101.606 12.5702 101.033C13.255 100.456 13.8163 99.7308 14.2475 98.9389C14.6768 98.1456 14.9939 97.2884 15.1545 96.3993C15.3161 95.51 15.3284 94.5949 15.1639 93.6737V93.6716C15.1473 93.5812 15.2082 93.4948 15.2995 93.4787C15.376 93.4651 15.4496 93.5055 15.481 93.5719L15.4821 93.5723Z" fill="#371A45"/>
<g opacity="0.35">
<path d="M29.9117 87.1133C32.6965 86.6146 35.3194 88.1141 35.7696 90.4629C36.2199 92.8117 34.3272 95.1198 31.542 95.6184C28.7572 96.117 26.1344 94.6176 25.6841 92.2688C25.2339 89.92 27.1265 87.6119 29.9117 87.1133Z" fill="#371A45"/>
</g>
<path d="M30.6275 90.027C32.7131 90.4295 34.0949 92.1008 33.7139 93.7598C33.333 95.4186 31.3335 96.4373 29.2479 96.0344C27.1622 95.6318 25.7804 93.9606 26.1614 92.3015C26.5424 90.6427 28.5418 89.6241 30.6275 90.027Z" fill="#5FCFBE"/>
<path d="M31.55 95.649C32.5684 95.3972 33.5191 94.9168 34.2554 94.2203C34.9903 93.5305 35.5113 92.6237 35.6318 91.6661C35.7566 90.7103 35.4622 89.7327 34.8626 88.9854C34.2663 88.2257 33.3723 87.7128 32.4198 87.4496C30.5044 86.9299 28.2662 87.4749 26.8754 88.9108C26.1744 89.6162 25.718 90.561 25.6733 91.5528C25.6538 91.8011 25.6816 92.0486 25.7083 92.2979C25.7469 92.5454 25.8129 92.7883 25.8995 93.0259C25.9882 93.2627 26.1008 93.492 26.2361 93.7095C26.3649 93.932 26.5395 94.1242 26.6993 94.3303L26.7112 94.346C26.7563 94.4038 26.7451 94.4871 26.6867 94.5317C26.6322 94.5732 26.5557 94.5667 26.5092 94.5189C26.3169 94.3221 26.1073 94.1352 25.9406 93.9102C25.77 93.6888 25.6235 93.4473 25.5001 93.1937C25.2515 92.6855 25.1256 92.1193 25.1108 91.5486C25.0834 90.4024 25.5517 89.2583 26.3281 88.4143C26.712 87.9886 27.1543 87.6114 27.6485 87.3163C28.1439 87.0242 28.6757 86.7977 29.2277 86.6338C29.7829 86.4848 30.3551 86.3995 30.9327 86.3863C31.5103 86.3848 32.0886 86.4502 32.6521 86.592C33.2157 86.7345 33.754 86.9752 34.2504 87.2821C34.7443 87.5924 35.201 87.9775 35.5604 88.4486C36.278 89.3844 36.6265 90.6206 36.4179 91.7822C36.3213 92.3622 36.0994 92.9105 35.801 93.403C35.4951 93.8924 35.1069 94.3217 34.6714 94.6857C33.7886 95.4025 32.7095 95.8444 31.6095 95.974C31.5179 95.9847 31.4345 95.9201 31.4237 95.8293C31.4136 95.7458 31.4688 95.669 31.5493 95.6493H31.5503L31.55 95.649Z" fill="#371A45"/>
<path d="M23.961 89.9526C23.632 90.9174 23.5454 91.9453 23.7529 92.9129C23.8045 93.1544 23.8856 93.3883 23.9506 93.6248L24.0949 93.9641C24.1425 94.077 24.1858 94.1916 24.2525 94.2959C24.3745 94.5092 24.4827 94.7288 24.6368 94.9221C24.7096 95.0206 24.7753 95.1242 24.8532 95.2192L25.0986 95.4943L25.2205 95.6318C25.2638 95.6754 25.3111 95.7154 25.3562 95.7571L25.6278 96.0072C25.7159 96.0929 25.8223 96.159 25.9179 96.2361C26.0175 96.309 26.1113 96.3894 26.2152 96.4565C26.6319 96.7226 27.0655 96.9666 27.5309 97.143C28.4509 97.5198 29.4495 97.7045 30.4496 97.7199C32.4501 97.7481 34.4838 97.0787 36.0016 95.77C36.7538 95.1164 37.3964 94.3184 37.7903 93.398C38.1858 92.4804 38.3409 91.4581 38.22 90.4416V90.4395C38.211 90.3662 38.264 90.3002 38.3376 90.2916C38.4058 90.2837 38.4682 90.3277 38.4841 90.392C38.7439 91.4349 38.6706 92.564 38.3146 93.5987C37.952 94.6342 37.3022 95.5611 36.5006 96.314C35.6993 97.0716 34.7338 97.6552 33.6966 98.0388C32.6587 98.4246 31.5507 98.611 30.4406 98.6074C29.3305 98.5999 28.22 98.376 27.1904 97.9502C26.1675 97.5155 25.2144 96.8748 24.4993 96.0115C23.7799 95.1599 23.2756 94.1145 23.1334 93.0151C22.9859 91.9189 23.1742 90.7934 23.6518 89.8269C23.6923 89.7447 23.7926 89.7105 23.8755 89.7508C23.952 89.7876 23.987 89.8748 23.9607 89.9526H23.961Z" fill="#371A45"/>
<g opacity="0.35">
<path d="M43.0337 76.167C43.1157 74.9012 41.9669 73.7979 40.4678 73.7027C38.9688 73.6075 37.687 74.5565 37.605 75.8223C37.523 77.0881 38.6718 78.1914 40.1709 78.2866C41.6699 78.3818 42.9517 77.4328 43.0337 76.167Z" fill="#371A45"/>
</g>
<path d="M40.4226 75.2852C41.4555 75.7328 41.9757 76.7568 41.5846 77.5722C41.1932 78.3877 40.0387 78.6859 39.0058 78.2384C37.9729 77.7908 37.4527 76.7668 37.8437 75.9514C38.2352 75.1359 39.3897 74.8377 40.4226 75.2852Z" fill="#5FCFBE"/>
<path d="M40.2458 78.2253C40.7906 78.1796 41.3112 78.0242 41.7394 77.7452C42.1677 77.472 42.501 77.0794 42.6482 76.6415C42.7951 76.2036 42.7557 75.7257 42.5497 75.3189C42.3513 74.9042 41.9808 74.5695 41.5543 74.3402C40.6946 73.8831 39.5481 73.8945 38.7093 74.4185C38.2882 74.6756 37.9541 75.0675 37.8066 75.5371C37.646 76.0068 37.7016 76.5451 37.9383 77.0305C37.9707 77.0973 37.9426 77.1773 37.8751 77.2095C37.8174 77.237 37.7499 77.2205 37.7113 77.1734C37.3293 76.7073 37.1402 76.0465 37.2593 75.4118C37.3708 74.776 37.7597 74.192 38.285 73.8163C38.5455 73.6252 38.8319 73.4662 39.1386 73.3623C39.4449 73.2591 39.7634 73.1966 40.0856 73.1705C40.4078 73.1519 40.7311 73.1737 41.0496 73.2355C41.3667 73.3033 41.677 73.4084 41.9703 73.5541C42.5504 73.8534 43.0588 74.3306 43.3496 74.946C43.6292 75.5621 43.6638 76.3044 43.3903 76.9248C43.2579 77.2352 43.0624 77.5098 42.8322 77.7413C42.5973 77.9688 42.3278 78.1506 42.0432 78.2899C41.4678 78.5571 40.8295 78.6467 40.2321 78.556C40.1405 78.5421 40.0777 78.4571 40.0918 78.3664C40.1037 78.2889 40.1679 78.2324 40.2433 78.226H40.2458V78.2253Z" fill="#371A45"/>
<path d="M37.0428 74.5272C36.7935 74.9962 36.6571 75.5016 36.6716 75.9999C36.6745 76.1242 36.6925 76.2474 36.7015 76.3695C36.7322 76.4896 36.7452 76.6117 36.787 76.7274C36.8271 76.8435 36.857 76.9614 36.9137 77.0707C36.9396 77.1261 36.9613 77.1828 36.9898 77.2368L37.0832 77.395C37.1377 77.5039 37.2254 77.595 37.291 77.6975C37.3668 77.794 37.4494 77.8858 37.532 77.9769C37.7088 78.1497 37.896 78.313 38.1064 78.448C38.5162 78.7319 38.9881 78.9273 39.4788 79.0462C40.4623 79.2827 41.541 79.1848 42.448 78.7259C42.8975 78.4937 43.3153 78.1837 43.6281 77.7797C43.943 77.3786 44.1563 76.8957 44.2428 76.3685V76.3653C44.2551 76.2924 44.3247 76.2427 44.3983 76.2545C44.4615 76.2645 44.5069 76.3163 44.5113 76.377C44.5542 76.96 44.3976 77.565 44.0949 78.089C43.7872 78.6116 43.334 79.0462 42.8145 79.3648C42.2957 79.6885 41.7051 79.8931 41.0997 79.9831C40.4933 80.0746 39.8738 80.0424 39.2735 79.911C38.6739 79.776 38.1013 79.5181 37.5955 79.1627C37.0976 78.7991 36.6593 78.3333 36.3844 77.7708C36.1037 77.2153 35.9713 76.5785 36.0442 75.9663C36.1163 75.3555 36.3739 74.7769 36.7686 74.3379C36.8303 74.2693 36.9364 74.2633 37.0056 74.3243C37.0645 74.3761 37.0778 74.4597 37.0428 74.5258L37.0421 74.5269L37.0428 74.5272Z" fill="#371A45"/>
<path d="M46.3606 82.8972C46.0525 83.0415 45.7632 83.2151 45.4969 83.414C45.2379 83.6234 44.9864 83.8377 44.7772 84.0895C44.346 84.5795 44.0347 85.1592 43.8467 85.7732C43.6624 86.389 43.5906 87.0383 43.6429 87.6816C43.6829 88.326 43.8456 88.961 44.092 89.5622C44.5809 90.7698 45.4583 91.8253 46.5525 92.5685C47.65 93.3086 48.9928 93.7222 50.3681 93.6315H50.3707C50.445 93.6265 50.5092 93.6822 50.5142 93.7554C50.5186 93.8212 50.4742 93.879 50.4118 93.894C49.7075 94.0644 48.9564 94.0841 48.2305 93.9544C47.5064 93.8201 46.795 93.5708 46.1575 93.1908C44.872 92.4464 43.8406 91.2766 43.2637 89.9022C42.9726 89.2168 42.803 88.4788 42.7608 87.732C42.7305 86.9855 42.8282 86.2265 43.0941 85.5218C43.6028 84.1055 44.8205 82.9469 46.2477 82.5868C46.3372 82.564 46.4284 82.6175 46.4515 82.7061C46.4717 82.7843 46.432 82.864 46.361 82.8976L46.3606 82.8972Z" fill="#371A45"/>
<g opacity="0.3">
<path d="M52.0476 86.8767C52.8708 89.0476 52.0703 91.37 50.2592 92.064C48.4481 92.758 46.313 91.5607 45.4897 89.3898C44.6664 87.2188 45.467 84.8964 47.2781 84.2025C49.0888 83.5085 51.2243 84.7057 52.0476 86.8767Z" fill="#6B184E"/>
</g>
<path d="M49.4738 91.6504C48.2417 91.8636 46.8502 91.2343 45.9757 89.9406C44.8118 88.2176 45.0063 85.9677 46.4093 84.9151C46.6074 84.7661 46.8192 84.6493 47.0403 84.564C48.0065 84.7836 48.9449 85.4201 49.6127 86.4074C50.7946 88.1575 50.7058 90.4013 49.4738 91.6504Z" fill="#5FCFBE"/>
<path d="M51.6262 86.2624C51.1207 85.6949 50.4977 85.2484 49.806 85.0077C49.1206 84.7605 48.3705 84.7212 47.7121 84.9291C47.0504 85.1302 46.4992 85.5934 46.1788 86.1828C45.8552 86.7761 45.7726 87.4918 45.8876 88.1755C46.1218 89.5513 47.1915 90.7915 48.5541 91.2369C49.2335 91.4526 49.9861 91.4762 50.6582 91.2158C51.3339 90.9647 51.9043 90.4357 52.2323 89.7549C52.2644 89.6885 52.3448 89.6603 52.4119 89.6917C52.4722 89.7203 52.5014 89.7871 52.4837 89.8489V89.8499C52.2561 90.6386 51.6644 91.3433 50.8873 91.7237C50.1091 92.1102 49.1815 92.162 48.3467 91.9423C46.6604 91.5023 45.3209 90.0478 45.0045 88.3291C44.8493 87.4726 44.968 86.5489 45.4046 85.7602C45.629 85.3706 45.9349 85.0259 46.2928 84.7541C46.6431 84.4744 47.0645 84.2754 47.4953 84.1715C47.9275 84.0615 48.3756 84.0347 48.8085 84.0833C49.2418 84.1344 49.6596 84.2565 50.0467 84.433C50.8187 84.7937 51.4656 85.3727 51.8964 86.0674C51.9447 86.1453 51.9202 86.2474 51.8412 86.2953C51.7708 86.3382 51.681 86.3231 51.628 86.2639L51.6262 86.2617V86.2624Z" fill="#371A45"/>
<path d="M41.8462 105.017C43.1338 105.688 44.139 106.667 44.7011 107.917C45.7192 110.183 44.9976 112.686 43.1356 114.889C41.9137 116.335 40.1791 117.594 38.0718 118.44C32.7525 120.574 27.0731 119.262 25.3868 115.511C24.7594 114.115 24.7732 112.578 25.3122 111.088C26.2213 108.574 28.6764 106.329 32.0165 104.989" fill="#5FCFBE"/>
<path d="M44.9031 107.828C45.1877 108.365 45.3843 108.956 45.4677 109.569C45.5554 110.181 45.5272 110.809 45.4179 111.418C45.1881 112.639 44.6242 113.768 43.9055 114.752C43.1941 115.747 42.2943 116.605 41.3126 117.33C40.3219 118.047 39.2342 118.624 38.0959 119.062C35.8194 119.925 33.2994 120.258 30.88 119.783C29.6754 119.549 28.4996 119.101 27.4822 118.402C26.4717 117.702 25.6386 116.719 25.2245 115.583C25.1909 115.491 25.2389 115.39 25.332 115.356C25.416 115.326 25.508 115.362 25.5495 115.438L25.5503 115.439C26.0961 116.432 26.9208 117.229 27.8885 117.777C28.8543 118.331 29.9427 118.655 31.0489 118.816C32.1583 118.965 33.2925 118.969 34.4059 118.809C35.5189 118.654 36.6193 118.381 37.6644 117.962C38.715 117.56 39.718 117.037 40.6336 116.395C41.5554 115.76 42.3805 115.001 43.0804 114.136C43.7713 113.267 44.3406 112.297 44.6224 111.242C44.9175 110.192 44.8868 109.06 44.4994 108.006V108.005C44.4571 107.891 44.5167 107.766 44.6314 107.724C44.7367 107.686 44.8526 107.732 44.9031 107.828V107.828Z" fill="#371A45"/>
<g opacity="0.35">
<path d="M34.1256 106.046C38.3878 105.163 42.2528 106.963 42.7586 110.068C43.2644 113.172 40.2191 116.404 35.9569 117.288C31.6946 118.171 27.8296 116.371 27.3238 113.266C26.818 110.162 29.8633 106.93 34.1256 106.046Z" fill="#371A45"/>
</g>
<path d="M34.3954 109.068C38.0534 108.587 41.1394 110.072 41.2881 112.383C41.4367 114.694 38.592 116.958 34.9337 117.438C31.2758 117.919 28.1897 116.435 28.0411 114.123C27.8924 111.812 30.7371 109.548 34.3954 109.068Z" fill="#5FCFBE"/>
<path d="M29.7822 116.942C29.4412 116.778 29.1097 116.587 28.8045 116.356C28.4996 116.124 28.2214 115.854 27.9772 115.554C27.4898 114.952 27.1629 114.213 27.0464 113.437C26.9353 112.66 27.0316 111.862 27.2805 111.127C27.5324 110.392 27.9177 109.71 28.391 109.105C29.3359 107.885 30.608 106.958 31.9887 106.306C33.3759 105.666 34.8937 105.279 36.4389 105.256C37.2102 105.247 37.9866 105.322 38.7435 105.509C39.4997 105.693 40.2379 105.994 40.8981 106.433C41.5583 106.869 42.133 107.46 42.5216 108.162C42.9145 108.86 43.1021 109.668 43.0801 110.458C43.0602 111.249 42.8452 112.017 42.5003 112.705C42.1579 113.395 41.703 114.017 41.1741 114.56C40.1105 115.641 38.7984 116.444 37.3928 116.941C37.3228 116.965 37.2459 116.929 37.2207 116.86C37.1972 116.795 37.2293 116.723 37.2917 116.694C38.6118 116.09 39.8316 115.263 40.7595 114.186C41.2246 113.652 41.6207 113.063 41.8989 112.429C42.1781 111.796 42.3452 111.121 42.3379 110.45C42.3358 109.78 42.1511 109.126 41.8188 108.554C41.4861 107.981 41.0013 107.498 40.4283 107.137C39.2785 106.41 37.8538 106.111 36.4547 106.144C35.0495 106.173 33.6454 106.51 32.3621 107.099C31.0756 107.677 29.903 108.52 29.0144 109.593C28.5685 110.127 28.2092 110.727 27.9639 111.366C27.7156 112.004 27.6042 112.69 27.6698 113.363C27.7304 114.035 27.97 114.697 28.3715 115.26C28.7738 115.823 29.3207 116.29 29.9377 116.649L29.9398 116.65C30.0192 116.697 30.0455 116.798 29.999 116.877C29.9546 116.951 29.8597 116.978 29.7825 116.942L29.7822 116.942Z" fill="#371A45"/>
<path d="M52.1832 30.7247C49.2898 36.5789 41.48 39.1642 36.6149 39.7571C35.2411 39.9267 34.1032 39.9353 33.3759 39.8142L32.6846 36.1914L31.7599 31.3423C31.7599 31.3423 32.2928 31.6631 33.5198 31.6631H33.5213C35.0621 31.6631 37.6976 31.1584 41.7473 28.8828C43.3055 28.0073 45.0741 26.8697 47.0702 25.3981C51.2726 22.2985 54.0149 27.0208 52.1828 30.7251L52.1832 30.7247Z" fill="white"/>
<g opacity="0.35">
<path d="M52.6659 29.2788C52.5768 29.7649 52.4166 30.2525 52.1835 30.7247C48.4737 38.2301 36.6788 40.3646 33.3766 39.8142L31.7607 31.3422C31.7607 31.3422 32.3094 31.673 33.5782 31.6616L34.1447 34.6311C34.438 36.1695 35.8728 37.2285 37.4454 37.0667C41.9093 36.6078 49.2392 34.3786 52.6662 29.2788H52.6659Z" fill="#371A45"/>
</g>
<path d="M34.5881 40.4674C34.0822 40.4674 33.641 40.4363 33.2802 40.3763C32.9664 40.3242 32.7549 40.0299 32.8076 39.7191C32.8603 39.4087 33.1576 39.1987 33.4715 39.2512C36.7607 39.7991 48.1269 37.6328 51.6658 30.4739C52.6576 28.4676 52.1269 26.346 51.0409 25.4534C50.1015 24.6812 48.8139 24.8233 47.4151 25.8552C35.9179 34.3343 31.638 31.9365 31.4612 31.8305C31.1895 31.6669 31.1026 31.3161 31.2678 31.0468C31.4316 30.7804 31.7798 30.6939 32.05 30.85C32.1333 30.8936 36.0672 32.8016 46.7268 24.9405C49.3406 23.0128 51.1293 24.044 51.7769 24.5758C53.434 25.9377 53.8312 28.6887 52.7009 30.9754C50.5907 35.2444 46.1665 37.6003 42.8268 38.8251C39.7273 39.962 36.6308 40.4674 34.5881 40.4674Z" fill="#371A45"/>
<path d="M36.6809 52.6123C36.6809 52.6123 38.7161 60.4599 35.3641 64.3367C35.3641 64.3367 38.5447 65.9579 37.9242 67.9985C37.0818 70.7691 30.7213 71.1495 27.8426 68.6807C24.07 65.4446 27.8603 60.0677 24.9914 46.5142" fill="white"/>
<g opacity="0.35">
<path d="M37.9242 67.998C37.0818 70.7697 30.7205 71.149 27.843 68.6809C25.7158 66.8557 25.9922 64.3522 26.1235 60.0847C26.0975 60.0861 26.0716 60.0875 26.0456 60.089C16.1473 60.4883 14.101 53.6387 13.7683 49.1389C13.2485 42.1368 16.139 38.0135 16.4976 33.3098C16.6459 31.3636 33.3286 33.1173 33.663 36.1573C34.2002 41.0549 36.5749 45.0914 37.2044 48.9807C38.0284 54.0759 35.9417 57.8516 30.7642 59.3739C27.6954 60.2761 26.7285 64.1908 29.0635 66.3585C29.1151 66.4064 29.1681 66.4539 29.2229 66.501C31.4536 68.4144 35.7743 68.617 37.9992 67.3222C38.0165 67.5404 37.9949 67.7669 37.9242 67.998Z" fill="#371A45"/>
</g>
<path d="M33.0176 70.8895C31.0651 70.8895 28.9213 70.3606 27.4652 69.1115C25.2999 67.2542 25.3857 64.7868 25.516 61.0518C25.6332 57.6893 25.7938 53.0845 24.4275 46.631C24.3622 46.3228 24.5621 46.0206 24.8731 45.9556C25.1844 45.891 25.49 46.0888 25.5553 46.3967C26.9497 52.9856 26.7866 57.67 26.6676 61.0907C26.5402 64.7389 26.4702 66.7488 28.2196 68.2493C29.9842 69.763 33.167 70.0559 35.2252 69.4651C36.3916 69.1301 37.1543 68.5507 37.3725 67.8339C37.8419 66.2909 35.1278 64.8575 35.1004 64.8436L34.4528 64.5135L34.9265 63.9656C38.0476 60.3563 36.1427 52.8299 36.1228 52.7541C36.0434 52.4491 36.2292 52.1384 36.5373 52.0601C36.8451 51.9816 37.1593 52.1655 37.2383 52.4705C37.321 52.7888 39.1443 60.0042 36.2159 64.1757C37.208 64.8186 39.0426 66.298 38.4754 68.1628C38.141 69.263 37.1005 70.1145 35.5459 70.5606C34.8053 70.7731 33.9322 70.8892 33.0176 70.8892V70.8895Z" fill="#371A45"/>
<path d="M23.465 54.1264C17.8224 54.8236 7.88803 55.3126 6.76061 49.8263C6.61377 49.1076 6.51131 48.3208 6.4525 47.4893C6.05348 41.973 7.49948 34.5344 9.62806 32.6281C10.8435 31.5402 13.1824 31.1198 15.7775 31.2408C20.9348 31.4819 27.1102 33.8572 27.5147 37.3761C27.9065 40.7625 29.1075 53.4292 23.465 54.1264Z" fill="white"/>
<g opacity="0.35">
<path d="M23.465 54.1267C17.8224 54.824 7.88805 55.3129 6.76062 49.8267C6.61378 49.108 6.51132 48.3212 6.45251 47.4896C8.12869 48.5633 10.2057 47.2814 10.3294 45.7702C11.0943 36.4396 14.2193 32.5999 15.7775 31.2412C20.9348 31.4823 27.1103 33.8576 27.5147 37.3765C27.9065 40.7629 29.1075 53.4295 23.465 54.1267Z" fill="#371A45"/>
</g>
<path d="M17.2787 55.1161C11.893 55.1161 7.02002 53.951 6.19672 49.9403C5.10826 44.6386 6.44025 34.7144 9.24205 32.2056C11.7238 29.9832 17.9689 30.3676 22.3328 31.9981C25.7981 33.2929 27.8423 35.1798 28.088 37.3111C28.8023 43.5042 29.1613 53.9975 23.5364 54.6925C21.5099 54.9429 19.3557 55.1165 17.2787 55.1165V55.1161ZM10.0145 33.051C7.74734 35.0813 6.23966 44.424 7.3256 49.7127C8.34154 54.6622 17.8289 54.2475 23.3935 53.5599C28.342 52.9488 27.3614 41.0669 26.9429 37.4401C26.7513 35.7792 24.9225 34.1844 21.9255 33.0646C17.3639 31.3602 11.9096 31.3541 10.0145 33.051Z" fill="#371A45"/>
<path d="M27.7048 56.9853C27.571 56.9939 27.4357 56.9996 27.2986 57.0053C24.7868 57.1064 22.7809 56.7417 21.1794 56.0656C20.6653 55.8488 20.1945 55.6009 19.7608 55.3241C17.8614 54.1193 16.7004 52.3999 15.9976 50.6033C15.4416 49.186 15.1725 47.7233 15.0527 46.4228C15.0397 46.2989 15.0296 46.176 15.021 46.0549C14.9401 44.9713 14.9416 43.9576 15.0036 42.9993C15.227 39.4689 16.2595 36.7001 17.0013 34.0523C17.085 33.7544 17.164 33.459 17.239 33.164C17.4465 32.3428 17.6135 31.5256 17.7055 30.6945C17.7228 30.5391 17.7387 30.3823 17.7502 30.2255C17.874 28.6057 29.4445 29.5483 33.5198 31.6628H33.5213C34.3435 32.0907 34.859 32.5639 34.9153 33.0743C34.9918 33.773 35.1054 34.453 35.2479 35.1174C35.5907 36.7472 36.0976 38.2827 36.6146 39.7568C37.365 41.9042 38.1367 43.9186 38.4567 45.8963C39.4806 52.227 36.0128 56.5199 27.7044 56.9846L27.7048 56.9853Z" fill="white"/>
<g opacity="0.35">
<path d="M27.2986 57.0052C17.4003 57.4046 15.354 50.5564 15.0213 46.0552C14.9448 45.0301 14.9419 44.0675 14.9939 43.1553C15.0011 43.2949 15.0112 43.4346 15.0213 43.576C15.354 48.0772 17.4006 54.9254 27.2986 54.5275C34.3424 54.2439 38.0306 51.2882 38.5635 46.6942C39.1869 52.6855 35.5391 56.6734 27.2986 57.0056V57.0052Z" fill="#371A45"/>
</g>
<path d="M26.4875 57.5921C16.7758 57.5928 14.7688 50.4424 14.4466 46.0966C14.1212 41.7055 15.1115 38.3951 15.9857 35.4745C16.5286 33.6597 17.0417 31.9459 17.1762 30.1832C17.2441 29.2946 18.387 28.8803 20.8825 28.8399C24.767 28.7752 35.1541 29.9643 35.4882 33.0125C35.7812 35.6824 36.6315 38.0855 37.4541 40.4089C38.115 42.2759 38.7392 44.0393 39.0249 45.807C39.5448 49.0219 38.9647 51.6736 37.3 53.6881C35.3233 56.0801 31.9663 57.3881 27.3224 57.5749C27.0384 57.5864 26.7588 57.5921 26.4872 57.5921H26.4875ZM18.3185 30.3511C18.1659 32.2045 17.6431 33.9511 17.09 35.7985C16.2025 38.7634 15.285 41.8294 15.595 46.0131C15.9514 50.82 18.1514 56.4509 26.4911 56.4513C26.7469 56.4513 27.0081 56.4459 27.2758 56.4352C31.5763 56.262 34.649 55.0947 36.4086 52.9655C37.8556 51.2147 38.3531 48.8666 37.8877 45.987C37.6182 44.32 37.0103 42.6031 36.3671 40.7857C35.5228 38.4012 34.6501 35.9353 34.3431 33.135C34.3294 33.0117 34.1425 32.3574 31.7787 31.5605C29.7003 30.8597 26.5528 30.2879 23.5642 30.0686C20.3096 29.8293 18.659 30.1047 18.3185 30.3508V30.3511Z" fill="#371A45"/>
<path d="M46.396 31.6209C46.5471 30.9283 48.8489 29.4567 49.5921 28.827C50.3353 28.1973 51.1059 27.1808 49.9853 26.6418C48.8648 26.1025 46.5323 27.5437 46.5323 27.5437L44.2317 30.3497L46.3956 31.6209H46.396Z" fill="white"/>
<path d="M32.5168 62.669C29.9849 62.669 27.7596 61.8535 27.6099 61.7978C27.3768 61.7107 27.2596 61.4531 27.3476 61.2224C27.4357 60.9917 27.6969 60.8759 27.9285 60.9624C27.9837 60.9831 33.4852 62.9929 36.6961 60.5806C36.8945 60.4316 37.1774 60.4698 37.3278 60.6663C37.4782 60.8627 37.4396 61.1428 37.2412 61.2917C35.8421 62.3429 34.118 62.669 32.5161 62.669H32.5168Z" fill="#371A45"/>
<path d="M45.5254 37.463C45.4612 37.463 45.3962 37.4495 45.3342 37.4205C42.1074 35.9222 43.1681 28.4636 43.2998 27.6178C43.3376 27.3742 43.5664 27.207 43.8139 27.2445C44.0599 27.282 44.2288 27.5099 44.1909 27.7535C43.8626 29.868 43.4971 35.5811 45.717 36.6119C45.9425 36.7165 46.0395 36.9826 45.9338 37.2059C45.857 37.368 45.6946 37.463 45.525 37.463H45.5254Z" fill="#371A45"/>
<path d="M39.3352 44.0376C39.5651 43.0732 38.9619 42.1069 37.9878 41.8793C37.0137 41.6517 36.0377 42.249 35.8078 43.2133C35.5779 44.1777 36.1812 45.144 37.1552 45.3716C38.1293 45.5992 39.1053 45.002 39.3352 44.0376Z" fill="white"/>
<g opacity="0.35">
<path d="M39.3846 43.6271C39.3846 44.6179 38.5739 45.4223 37.5728 45.4223C36.5716 45.4223 35.7595 44.6183 35.7595 43.6271C35.7595 43.3535 35.8216 43.0924 35.9338 42.8599C36.2246 43.466 36.8498 43.8864 37.5728 43.8864C38.2958 43.8864 38.9207 43.4656 39.2104 42.8599C39.3226 43.0924 39.3846 43.3531 39.3846 43.6271Z" fill="#371A45"/>
</g>
<path d="M37.5728 45.8679C36.3249 45.8679 35.3096 44.8628 35.3096 43.6273C35.3096 42.3918 36.3249 41.3867 37.5728 41.3867C38.8207 41.3867 39.8359 42.3918 39.8359 43.6273C39.8359 44.8628 38.8207 45.8679 37.5728 45.8679ZM37.5728 42.2793C36.822 42.2793 36.2116 42.884 36.2116 43.6269C36.2116 44.3699 36.8224 44.9746 37.5728 44.9746C38.3232 44.9746 38.934 44.3699 38.934 43.6269C38.934 42.884 38.3236 42.2793 37.5728 42.2793Z" fill="#371A45"/>
<path d="M28.4971 69.8219C27.6547 72.5936 21.2934 72.9729 18.4144 70.5048C15.5354 68.0352 17.0622 64.3181 16.6704 56.673C16.5799 54.8778 16.3825 52.8662 15.998 50.6035C15.8742 49.8748 15.7303 49.1208 15.5643 48.3379L22.0868 51.7397L27.2542 54.436C27.2542 54.436 27.5233 55.4754 27.7048 56.9852C28.0216 59.6215 28.0692 63.6952 25.9363 66.1601C25.9363 66.1601 29.1176 67.7813 28.4967 69.8215L28.4971 69.8219Z" fill="white"/>
<path d="M27.4396 54.3887C27.7113 54.8591 27.8827 55.3509 28.0335 55.8517C28.1781 56.3528 28.277 56.8646 28.3441 57.3808C28.4866 58.4123 28.5212 59.4624 28.4404 60.5114C28.4025 61.0358 28.3495 61.5612 28.259 62.0841C28.1684 62.6063 28.0623 63.1299 27.9018 63.6439C27.742 64.1572 27.554 64.6679 27.2968 65.1533C27.0424 65.6395 26.7365 66.1049 26.3746 66.5313L26.2007 65.6534C26.4157 65.7666 26.5904 65.8727 26.7769 65.9924C26.9598 66.1102 27.138 66.2349 27.3123 66.3674C27.6608 66.6313 27.9927 66.9275 28.2936 67.2721C28.5898 67.619 28.8636 68.0176 29.0227 68.5026C29.1014 68.7437 29.1494 69.0037 29.153 69.2688C29.1559 69.5341 29.1082 69.8002 29.0278 70.0456C28.8665 70.5346 28.5617 70.9593 28.207 71.2847C27.8513 71.6129 27.449 71.8555 27.0377 72.0451C26.2115 72.4205 25.3453 72.603 24.4834 72.6784C24.0516 72.7173 23.6194 72.7277 23.1886 72.7095C22.7578 72.6927 22.3278 72.6537 21.9017 72.5823C21.0492 72.4459 20.2079 72.2012 19.4113 71.8208C19.0148 71.6261 18.6309 71.3965 18.2726 71.1225C17.9115 70.8489 17.5962 70.5282 17.3058 70.176C17.0197 69.8195 16.792 69.4184 16.6077 69.0055C16.4338 68.5883 16.3115 68.1594 16.2263 67.7318C16.0643 66.876 16.0373 66.0356 16.034 65.2123C16.034 64.3883 16.0665 63.5778 16.0935 62.771C16.1527 61.1587 16.1881 59.5599 16.1455 57.9619C16.0997 56.365 15.9842 54.7709 15.7923 53.185C15.7403 52.7889 15.6758 52.3946 15.6087 52.0006C15.5315 51.608 15.4644 51.2148 15.4138 50.8183C15.3572 50.4226 15.3128 50.025 15.3009 49.62C15.2861 49.2153 15.2937 48.806 15.3774 48.3774L15.3781 48.3731C15.3998 48.2624 15.5084 48.1898 15.6202 48.2113C15.6765 48.222 15.7238 48.2552 15.753 48.2991C15.9958 48.6627 16.1621 49.0449 16.3057 49.4325C16.4406 49.8218 16.5337 50.22 16.6196 50.6194C16.6986 51.0201 16.7516 51.4255 16.8 51.8306C16.8407 52.237 16.8855 52.6428 16.9356 53.0478C17.1319 54.6687 17.2498 56.2996 17.2964 57.9312C17.3397 59.5624 17.3032 61.1944 17.2441 62.8095C17.217 63.6168 17.1853 64.4204 17.1853 65.2116C17.1874 66.0013 17.2174 66.7828 17.3566 67.5161C17.4295 67.8808 17.5312 68.2312 17.6676 68.5612C17.8145 68.8852 17.9873 69.1938 18.2099 69.4702C18.4354 69.7417 18.6911 70.0053 18.979 70.2217C19.2662 70.441 19.5826 70.6318 19.9171 70.7961C21.2678 71.4379 22.8614 71.6683 24.3813 71.5422C25.1411 71.4772 25.8937 71.3111 26.5514 71.0107C27.2077 70.7143 27.7506 70.2535 27.9321 69.6917C28.0255 69.4173 28.0208 69.1427 27.9267 68.8555C27.835 68.569 27.6478 68.2815 27.4183 68.0147C27.1856 67.7479 26.91 67.4993 26.6109 67.2728C26.4616 67.1593 26.3064 67.051 26.1477 66.9485C25.9926 66.8482 25.8179 66.7442 25.6733 66.6678L25.0394 66.3342L25.4994 65.7898C25.797 65.4377 26.0539 65.0487 26.2714 64.6337C26.4919 64.2197 26.6564 63.7718 26.7985 63.316C26.94 62.8595 27.0431 62.3863 27.112 61.9062C27.1846 61.4269 27.2293 60.9401 27.2416 60.4504C27.2701 59.4713 27.2214 58.4862 27.1647 57.4976C27.0947 56.5096 27.0258 55.5159 27.0684 54.4837V54.4791C27.0731 54.3701 27.1658 54.2858 27.2755 54.2901C27.3462 54.293 27.4072 54.333 27.4404 54.389L27.4396 54.3887Z" fill="#371A45"/>
<path d="M35.6834 48.0783L26.1192 48.6416C24.9871 48.7087 24.005 47.8462 23.9372 46.7239L23.6349 41.6852C23.5757 40.7029 24.237 39.8361 25.1628 39.5907C25.2937 39.555 25.4305 39.5335 25.5719 39.5249L35.1346 38.9617C36.2682 38.8945 37.2502 39.7571 37.3166 40.8794L37.5573 44.8701L37.6208 45.9181C37.6886 47.0404 36.8159 48.0112 35.6837 48.0783H35.6834Z" fill="white"/>
<g opacity="0.35">
<path d="M35.6834 48.0785L26.1192 48.6417C24.9871 48.7089 24.005 47.8463 23.9372 46.724L23.6349 41.6853C23.5757 40.7031 24.237 39.8362 25.1628 39.5908C25.7274 39.9159 26.086 40.1241 26.086 40.1241C26.7946 44.1413 28.0793 46.0897 33.1572 45.8729C35.3493 45.7789 36.7116 45.3668 37.5569 44.8706L37.6204 45.9186C37.6882 47.0409 36.8155 48.0117 35.6834 48.0788V48.0785Z" fill="#371A45"/>
</g>
<path d="M25.9958 49.0919C24.6772 49.0919 23.567 48.0707 23.4877 46.7506L23.185 41.7111C23.1453 41.0497 23.3693 40.411 23.8163 39.9127C24.2633 39.4145 24.877 39.118 25.5452 39.0791L35.1083 38.5158C36.4912 38.4283 37.685 39.4823 37.7672 40.8525L38.0699 45.8919C38.1525 47.2617 37.0937 48.4429 35.7097 48.5243L26.1462 49.0876C26.0957 49.0905 26.0452 49.0922 25.9954 49.0922L25.9958 49.0919ZM35.2587 39.4041C35.2266 39.4041 35.1945 39.4048 35.1617 39.407L25.5986 39.9703C25.1711 39.9956 24.7774 40.1856 24.4906 40.5057C24.2038 40.8257 24.0599 41.235 24.0851 41.6583L24.3878 46.6977C24.4408 47.576 25.1996 48.2443 26.0928 48.1961L35.6563 47.6328C36.0838 47.6075 36.4775 47.4174 36.7643 47.0974C37.0511 46.7774 37.195 46.368 37.1698 45.9444L36.8671 40.905C36.8159 40.0585 36.104 39.4038 35.2587 39.4038V39.4041Z" fill="#371A45"/>
<path d="M36.0651 48.0183C35.9428 48.0511 35.8158 48.0711 35.6834 48.0783L26.1192 48.6415C25.2898 48.6901 24.5408 48.2408 24.1735 47.5536C24.0397 47.3039 23.956 47.0232 23.9386 46.7238L23.8034 44.4854L23.7586 43.7468L23.6349 41.6851C23.567 40.5629 24.4398 39.592 25.5719 39.5249L27.6384 39.4038C26.6964 39.6378 26.021 40.5118 26.0802 41.504L26.2429 44.2257L26.3825 46.5442C26.4504 47.665 27.4324 48.529 28.5645 48.4619L36.0647 48.0186L36.0651 48.0183Z" fill="white"/>
<g opacity="0.35">
<path d="M36.0651 48.0186C35.9428 48.0514 35.8158 48.0714 35.6834 48.0786L26.1192 48.6418C24.9871 48.709 24.005 47.8464 23.9387 46.7242L23.7586 43.7471C24.0307 44.2589 24.5018 44.8793 25.1974 44.9061C25.5791 44.9218 25.9363 44.6297 26.2429 44.226L26.3826 46.5445C26.4504 47.6653 27.4324 48.5293 28.5646 48.4622L36.0647 48.0189L36.0651 48.0186Z" fill="#371A45"/>
</g>
<path d="M25.9936 49.092C25.381 49.092 24.7951 48.8716 24.3301 48.4626C23.8265 48.0201 23.5274 47.4122 23.488 46.7507L23.1854 41.7112C23.1024 40.3418 24.1609 39.1606 25.5456 39.0785L27.6117 38.957L27.7481 39.8357C26.997 40.0225 26.485 40.7133 26.5308 41.4776L26.8335 46.5171C26.8588 46.9407 27.0507 47.33 27.3743 47.6143C27.6976 47.8983 28.111 48.0405 28.5375 48.0155L36.0388 47.5729L36.1802 48.4505C36.0265 48.4905 35.8678 48.5151 35.7079 48.5237L26.1459 49.087C26.095 49.0902 26.0441 49.0916 25.9936 49.0916V49.092ZM26.0925 39.9407L25.5989 39.97C24.7114 40.0225 24.0325 40.7801 24.0855 41.658L24.3885 46.6978C24.4138 47.1211 24.6057 47.5108 24.929 47.7951C25.2519 48.079 25.6668 48.2223 26.0921 48.1962L26.6485 48.1633C26.2213 47.7336 25.9691 47.1739 25.933 46.5703L25.6303 41.5312C25.5953 40.9472 25.7689 40.3911 26.0925 39.9411V39.9407Z" fill="#371A45"/>
<path d="M30.1855 43.843C30.1956 44.0294 30.0127 45.5481 30.0127 45.5481C30.0127 45.5481 29.531 45.5739 28.9401 45.6053C28.2016 45.6446 27.5616 44.9191 27.5111 43.9855C27.4605 43.0518 28.0179 42.2625 28.7568 42.2232C29.2554 42.1967 29.8294 42.166 29.8294 42.166C29.8294 42.166 30.1693 43.5394 30.1859 43.843H30.1855Z" fill="#33AEF2"/>
<g opacity="0.35">
<path d="M30.1855 43.843C30.1956 44.0294 30.0127 45.5481 30.0127 45.5481C30.0127 45.5481 29.531 45.5739 28.9401 45.6053C28.2016 45.6446 27.5616 44.9191 27.5111 43.9855C27.4605 43.0518 28.0179 42.2625 28.7568 42.2232C29.2554 42.1967 29.8294 42.166 29.8294 42.166C29.8294 42.166 30.1693 43.5394 30.1859 43.843H30.1855Z" fill="#371A45"/>
</g>
<path d="M28.8809 45.9641C28.4393 45.9641 28.0208 45.7641 27.6958 45.3955C27.3729 45.0298 27.1795 44.5358 27.1506 44.0047C27.0897 42.8756 27.8011 41.9162 28.737 41.8666L29.8096 41.8094C29.9835 41.8019 30.1379 41.9141 30.1794 42.0809C30.2375 42.3156 30.5286 43.5032 30.5459 43.8239C30.5564 44.0207 30.4269 45.1248 30.3709 45.5905C30.35 45.7627 30.2072 45.8956 30.0322 45.9048L28.9596 45.962C28.9332 45.9634 28.9073 45.9641 28.8813 45.9641H28.8809ZM29.5487 42.5384L28.7759 42.5795C28.2463 42.6077 27.8322 43.2428 27.8711 43.9661C27.8913 44.3383 28.0219 44.679 28.2395 44.9255C28.4347 45.1469 28.6785 45.263 28.921 45.2487L29.6902 45.2076C29.763 44.5851 29.8273 43.9697 29.8255 43.8607C29.8164 43.7014 29.675 43.0671 29.5487 42.5388V42.5384Z" fill="#371A45"/>
<path d="M30.0157 45.5455C30.7543 45.5062 31.3118 44.7172 31.2611 43.7833C31.2103 42.8494 30.5705 42.1243 29.8319 42.1636C29.0933 42.203 28.5358 42.9919 28.5865 43.9258C28.6373 44.8597 29.2772 45.5849 30.0157 45.5455Z" fill="#33AEF2"/>
<g opacity="0.6">
<path d="M29.6487 42.88C30.3872 42.8407 31.0272 43.5661 31.0777 44.4998C31.0824 44.5866 31.0802 44.6712 31.0748 44.7552C31.2083 44.4751 31.2776 44.1408 31.2581 43.7854C31.2072 42.8514 30.5676 42.126 29.8291 42.1656C29.1591 42.2013 28.6396 42.8546 28.5862 43.6725C28.8034 43.2168 29.1908 42.9043 29.6487 42.88Z" fill="white"/>
</g>
<g opacity="0.35">
<path d="M30.3735 44.4767C29.635 44.516 28.9949 43.7905 28.9444 42.8569C28.9408 42.794 28.9408 42.7318 28.943 42.6704C28.698 42.9929 28.5573 43.4405 28.5837 43.9284C28.6345 44.8624 29.2742 45.5875 30.0127 45.5482C30.7014 45.5114 31.2325 44.8228 31.2599 43.9727C31.0362 44.2674 30.7259 44.4581 30.3735 44.4767Z" fill="#371A45"/>
</g>
<path d="M29.9539 45.9067C29.5119 45.9067 29.0938 45.7067 28.7684 45.3381C28.4455 44.9723 28.2521 44.4783 28.2232 43.9472C28.1944 43.4161 28.3333 42.9046 28.6147 42.5063C28.9148 42.0817 29.3391 41.8338 29.8096 41.8088C30.2789 41.7834 30.7288 41.9852 31.0734 42.3753C31.3963 42.741 31.5896 43.235 31.6185 43.7661C31.6474 44.2972 31.5085 44.8087 31.2271 45.2066C30.9265 45.6313 30.5023 45.8792 30.0322 45.9042C30.0062 45.9056 29.9798 45.9063 29.9542 45.9063L29.9539 45.9067ZM29.8857 42.5213C29.8734 42.5213 29.8608 42.5213 29.8485 42.5224C29.6046 42.5353 29.3763 42.6753 29.206 42.916C29.0169 43.1839 28.9235 43.5364 28.9437 43.909C28.9639 44.2812 29.0945 44.6219 29.3117 44.868C29.5072 45.0895 29.7497 45.2048 29.9932 45.1913C30.2374 45.1784 30.4655 45.0384 30.6357 44.7976C30.8248 44.5298 30.9182 44.1772 30.898 43.805C30.8778 43.4325 30.7472 43.0918 30.53 42.8457C30.3446 42.6356 30.1169 42.5213 29.8857 42.5213Z" fill="#371A45"/>
<path d="M32.7077 48.5741C32.5143 48.5741 32.3545 48.4227 32.3473 48.2298L32.2329 45.0616C32.221 44.7344 32.3747 44.4248 32.6442 44.234L33.6692 43.5086C33.7428 43.4564 33.7839 43.3718 33.7788 43.2821L33.5397 39.0578C33.5285 38.8606 33.6807 38.692 33.8795 38.681C34.079 38.6731 34.2489 38.8206 34.2601 39.0174L34.4993 43.2421C34.5181 43.5779 34.3644 43.8947 34.0888 44.0897L33.0641 44.8152C32.9923 44.8662 32.9512 44.9487 32.9545 45.0359L33.0688 48.2044C33.076 48.4016 32.9202 48.567 32.721 48.5741C32.7167 48.5741 32.7124 48.5741 32.7081 48.5741H32.7077Z" fill="#371A45"/>
<path d="M23.2676 63.7217C20.0206 63.7217 16.7494 62.613 16.5423 62.5416C16.3071 62.4605 16.183 62.2062 16.2649 61.9733C16.3468 61.7404 16.6033 61.6172 16.8389 61.6983C16.9118 61.7236 24.1746 64.1828 27.3942 61.7643C27.5926 61.6154 27.8754 61.6536 28.0259 61.8501C28.1763 62.0465 28.1377 62.3265 27.9393 62.4755C26.6928 63.412 24.9834 63.7217 23.2672 63.7217H23.2676Z" fill="#371A45"/>
<path d="M14.2063 40.6611C14.2063 40.6611 13.1889 41.2483 13.1583 42.3288C13.1229 43.5779 14.0418 44.1904 14.0418 44.1904C14.0418 44.1904 17.1604 46.3717 24.4445 45.9599C24.4445 45.9599 26.3018 44.1229 24.1869 42.7271C24.1869 42.7271 17.5244 43.7529 14.2067 40.6615L14.2063 40.6611Z" fill="white"/>
<g opacity="0.35">
<path d="M14.9809 43.44C14.9737 43.5539 14.9708 43.6697 14.9679 43.785C14.965 43.8693 14.9636 43.9533 14.9621 44.039C14.9578 44.2472 14.9578 44.4583 14.9621 44.6719C14.3387 44.3969 14.0418 44.1901 14.0418 44.1901C14.0418 44.1901 13.1229 43.5768 13.1575 42.3281C13.159 42.2795 13.1619 42.2327 13.1676 42.187C13.4213 42.6121 13.7366 42.8228 13.7366 42.8228C13.7366 42.8228 14.1356 43.1021 14.9809 43.44Z" fill="#371A45"/>
</g>
<path d="M22.6431 46.4577C16.5766 46.4577 13.9 44.6376 13.7817 44.5547C13.7442 44.5297 12.6658 43.7935 12.7077 42.3159C12.7167 41.9955 12.7961 41.6833 12.9433 41.3887C13.1352 41.0047 13.4884 40.7236 13.9123 40.6172C14.3373 40.5107 14.7847 40.5914 15.14 40.8393C17.9296 42.7877 22.4144 42.4763 23.7218 42.3348C24.1638 42.2873 24.5982 42.4316 24.916 42.7306C25.7913 43.5542 25.8876 44.6536 25.1808 45.7462C24.9175 46.1538 24.4647 46.4092 23.9693 46.4299C23.5108 46.4488 23.0681 46.4581 22.6431 46.4581V46.4577ZM14.2832 41.464C14.2334 41.464 14.1832 41.4701 14.1338 41.4826C13.9657 41.5248 13.8261 41.6351 13.751 41.7848C13.6619 41.963 13.6143 42.1498 13.6085 42.3409C13.5804 43.3331 14.2857 43.815 14.2929 43.8196C14.329 43.8446 17.2719 45.8159 23.9304 45.5377C24.132 45.5294 24.3153 45.4273 24.4203 45.2648C24.8918 44.5358 24.8493 43.9011 24.2937 43.3778C24.1685 43.2599 23.9935 43.2038 23.8189 43.2224C22.4317 43.3728 17.6669 43.6978 14.6191 41.569C14.5206 41.5001 14.4026 41.4644 14.2825 41.4644L14.2832 41.464Z" fill="#371A45"/>
<g opacity="0.35">
<path d="M28.4971 69.8218C27.6547 72.5935 21.2934 72.9728 18.4144 70.5047C15.5354 68.0352 17.0622 64.318 16.6704 56.673C16.6647 56.5605 16.6589 56.4476 16.6517 56.3337C16.6473 56.2469 16.6416 56.1569 16.6358 56.0686C16.6315 55.9958 16.6271 55.9218 16.6214 55.8475C16.6156 55.7393 16.6069 55.6293 16.5983 55.5182C16.5911 55.4086 16.5824 55.2971 16.5723 55.1846C16.5564 54.9792 16.5391 54.771 16.5189 54.5617C16.4641 53.967 16.3966 53.3512 16.3129 52.714C16.297 52.5915 16.2812 52.4672 16.2638 52.3418C16.2133 51.9668 16.156 51.5846 16.0939 51.1956C16.0737 51.066 16.0535 50.9349 16.0304 50.802C16.0203 50.7363 16.0088 50.6709 15.9972 50.6038C15.9972 50.6024 15.9958 50.6024 15.9958 50.6009C15.4413 49.1851 15.1721 47.721 15.0524 46.4234C15.0394 46.2994 15.0293 46.1766 15.0206 46.0555C14.986 45.5822 14.9658 45.1214 14.9614 44.6725C14.9571 44.4585 14.9571 44.2474 14.9614 44.0396C14.9629 43.9542 14.9643 43.8699 14.9672 43.7856C14.9701 43.6702 14.973 43.5545 14.9802 43.4406C16.3973 44.011 19.0718 44.7496 23.2265 44.631C23.4282 44.6253 23.6226 44.5853 23.8041 44.5157C24.3153 44.3217 24.7172 43.8956 24.8453 43.3466C24.8467 43.3395 24.8482 43.3323 24.8496 43.3252C25.8216 44.5957 24.4434 45.9601 24.4434 45.9601C24.2576 45.9701 24.0732 45.9801 23.8932 45.9858L23.9379 46.7245C23.9553 47.0238 24.0386 47.3049 24.1728 47.5542C23.9596 47.6496 23.7251 47.7053 23.4801 47.7124C22.5857 47.7367 21.7621 47.721 21.0045 47.6753C21.402 49.3037 21.818 50.7606 22.0861 51.7403C22.243 52.3136 22.3483 52.7226 22.3696 52.9065C22.4587 53.6666 22.0283 55.0425 21.1787 56.0661C20.4817 56.9044 19.504 57.5063 18.3012 57.3352C18.2809 63.0083 17.5006 66.0539 19.9759 68.1784C22.1449 70.039 26.2953 70.2815 28.5663 69.0996C28.5909 69.3335 28.5707 69.5743 28.4956 69.8225L28.4971 69.8218Z" fill="#371A45"/>
</g>
<g opacity="0.35">
<path d="M20.3341 44.5567C18.5901 44.437 16.5723 44.042 15.004 42.9997C15.2273 39.4694 16.2599 36.7005 17.0016 34.0527C18.6147 31.7214 20.1613 38.4785 20.1613 38.4785C19.7219 39.9644 19.9163 42.2425 20.3341 44.5567Z" fill="#371A45"/>
</g>
<path d="M19.7609 55.3244C18.773 56.5334 17.2047 57.2678 15.223 55.9559C10.0011 52.4984 11.3143 43.0167 12.9764 38.3473C13.878 35.8138 15.1772 33.7747 16.3104 32.3192C16.8288 31.6534 17.3112 31.1102 17.7059 30.6951C18.308 30.0622 18.7052 29.7314 18.7052 29.7314L19.5462 34.7816L20.161 38.4788C19.0061 42.3927 20.8003 51.0829 20.9301 52.1934C21.0178 52.9463 20.5961 54.305 19.7609 55.3244Z" fill="white"/>
<g opacity="0.35">
<path d="M15.223 55.9558C10.9283 53.1126 11.0539 46.1962 12.1582 41.2314C11.6094 45.7483 12.1365 50.8871 15.6895 53.2394C18.1579 54.8735 19.9827 53.3348 20.8482 51.6568C20.8886 51.9007 20.9175 52.0833 20.9305 52.1929C21.1235 53.837 18.8784 58.3753 15.223 55.9554V55.9558Z" fill="#371A45"/>
</g>
<path d="M18.829 29.8764C18.5393 30.3357 18.22 30.7658 17.9119 31.1965C17.5994 31.6241 17.2751 32.038 16.9612 32.4595C16.3392 33.3064 15.7274 34.1586 15.1743 35.0515C14.6263 35.9474 14.167 36.8939 13.7795 37.8658C13.3816 38.833 13.0872 39.8428 12.8354 40.8664C12.3454 42.9152 12.0662 45.0243 12.0853 47.1178C12.1005 48.1629 12.1827 49.2066 12.3923 50.217C12.4876 50.7249 12.6315 51.2178 12.7892 51.7032C12.9606 52.1829 13.1565 52.6523 13.3982 53.0934C13.8831 53.9724 14.526 54.7575 15.3356 55.33C15.7331 55.6268 16.1578 55.8533 16.5921 55.9794C16.7 56.018 16.8097 56.0265 16.9179 56.0537C17.0262 56.0597 17.1351 56.084 17.2423 56.0769C17.458 56.0851 17.6694 56.0483 17.8758 55.9901C18.7063 55.7497 19.4069 54.9957 19.8536 54.1396C20.0801 53.7113 20.2479 53.242 20.3284 52.7901C20.3471 52.678 20.3601 52.5673 20.3634 52.4644C20.3637 52.414 20.367 52.3612 20.3615 52.3183C20.3594 52.2947 20.3597 52.2754 20.3569 52.2479L20.3431 52.1561C20.3266 52.0368 20.306 51.9075 20.2833 51.7747L20.2172 51.3796C19.8568 49.2555 19.5245 47.1106 19.342 44.9426C19.2911 44.4011 19.2623 43.856 19.2312 43.311L19.193 42.4902C19.1746 42.2169 19.1656 41.9415 19.1674 41.6647C19.154 41.1139 19.2146 40.5557 19.311 40.0053C19.3759 39.7288 19.4531 39.4552 19.5491 39.1891C19.6732 38.923 19.8041 38.663 19.9755 38.4258C20.0408 38.3358 20.1675 38.3151 20.2584 38.3794C20.3035 38.4112 20.3312 38.458 20.3399 38.508L20.3442 38.5323C20.394 38.8187 20.403 39.0827 20.4052 39.3406C20.4279 39.607 20.4323 39.8663 20.424 40.1224C20.4279 40.6425 20.4081 41.1575 20.3965 41.6822L20.3789 42.0744C20.3745 42.2055 20.376 42.3376 20.3742 42.4694C20.3742 42.733 20.3702 42.9963 20.3828 43.2606C20.4106 43.7892 20.4402 44.3175 20.4893 44.8472C20.6675 46.966 20.9933 49.0765 21.3526 51.1928L21.4193 51.5932C21.4417 51.725 21.4637 51.8615 21.4839 52.0086L21.4994 52.1161C21.5041 52.1551 21.5067 52.2036 21.5099 52.2469C21.5182 52.3379 21.5146 52.4197 21.5135 52.5037C21.5077 52.6694 21.4886 52.8262 21.4634 52.9794C21.3544 53.5866 21.1498 54.141 20.8749 54.6653C20.7382 54.9275 20.5838 55.1811 20.4066 55.4225C20.2317 55.6647 20.0368 55.8969 19.8153 56.1098C19.596 56.3237 19.3539 56.5223 19.0819 56.6877C18.812 56.8541 18.518 56.9966 18.2012 57.0845C17.8873 57.1749 17.5561 57.2277 17.2286 57.2181C17.0633 57.2241 16.9035 57.1959 16.7415 57.1817C16.5857 57.1474 16.4229 57.127 16.2739 57.0766C15.6649 56.9005 15.1231 56.5994 14.6544 56.2516C13.6937 55.5711 12.9353 54.641 12.3833 53.6366C12.107 53.1323 11.8869 52.6055 11.6971 52.0715C11.5214 51.5343 11.3645 50.9917 11.2609 50.442C11.034 49.3448 10.9478 48.2347 10.9316 47.131C10.9121 44.9218 11.2036 42.7359 11.713 40.6018C11.9746 39.5374 12.2845 38.4748 12.7055 37.4489C12.8 37.1889 12.914 36.9367 13.0277 36.6846C13.1413 36.4324 13.2481 36.177 13.3758 35.9316C13.4992 35.6845 13.6172 35.4337 13.7456 35.1891L14.1432 34.4608C14.6858 33.4971 15.2984 32.5674 16.0214 31.7259C16.2014 31.5151 16.3876 31.3094 16.577 31.1072C16.7747 30.9115 16.9688 30.7136 17.1835 30.535C17.6095 30.1739 18.0537 29.8375 18.58 29.5867C18.6785 29.5399 18.7969 29.581 18.8445 29.6785C18.8748 29.741 18.8687 29.8114 18.8347 29.8664L18.8275 29.8775L18.829 29.8764Z" fill="#371A45"/>
<g opacity="0.35">
<path d="M41.7477 28.8828C40.6055 30.8819 39.017 32.6496 37.0428 34.0283C36.5734 34.3562 36.0835 34.6627 35.5723 34.9438C35.4659 35.0038 35.3576 35.0606 35.2483 35.1177C35.1029 35.1935 34.9575 35.2674 34.8089 35.3403C34.1119 35.6781 33.4033 35.9617 32.6846 36.1914C32.5941 36.22 32.5046 36.2486 32.414 36.2757C31.717 36.4882 31.0113 36.6507 30.3057 36.7647C29.4531 36.9043 28.5963 36.9715 27.7452 36.9743C27.4357 36.9743 27.1258 36.9658 26.8162 36.9486C24.2515 36.8061 21.757 36.0603 19.5462 34.7813C18.7355 34.3137 17.9635 33.7733 17.239 33.1643C16.9194 32.895 16.6098 32.6139 16.31 32.3189C16.8285 31.6531 17.3108 31.1098 17.7055 30.6948C17.7228 30.5394 17.7387 30.3826 17.7503 30.2258C17.874 28.606 29.4445 29.5486 33.5198 31.6631H33.5213C35.0621 31.6631 37.6976 31.1584 41.7473 28.8828H41.7477Z" fill="#371A45"/>
</g>
<path d="M42.8365 24.4885C41.703 27.1262 39.8994 29.4947 37.5075 31.3224C37.0194 31.6949 36.5092 32.0446 35.9745 32.3693C35.7148 32.5279 35.4474 32.6804 35.1754 32.8286C34.3528 33.2712 33.5104 33.6405 32.6539 33.9391C31.9165 34.198 31.1686 34.4031 30.4175 34.5581C29.5105 34.7456 28.5966 34.8574 27.685 34.8981C27.3523 34.9117 27.0204 34.9167 26.6892 34.9131C20.6271 34.8324 14.7861 31.6003 11.6859 25.9511C7.11742 17.6303 10.228 7.21924 18.6313 2.69628C20.2504 1.82619 21.9486 1.23506 23.667 0.91324C23.8676 0.873594 24.07 0.840019 24.2727 0.810373C24.8146 0.727507 25.3576 0.670716 25.8998 0.639641C27.1543 0.568563 28.4065 0.634284 29.6324 0.829661C30.8584 1.02361 32.0612 1.34793 33.2153 1.79512C33.5822 1.93692 33.9448 2.09086 34.3023 2.25838C34.8381 2.50947 35.3619 2.78593 35.8721 3.09275C38.4166 4.61219 40.599 6.80169 42.1204 9.57412C44.7486 14.3603 44.8352 19.8377 42.8365 24.4888V24.4885Z" fill="white"/>
<path d="M26.8992 34.9752C26.8288 34.9752 26.7585 34.9752 26.6885 34.9741C20.3994 34.8902 14.6302 31.4438 11.6318 25.98C7.05464 17.6438 10.1815 7.17491 18.602 2.6423C20.2003 1.78365 21.9006 1.18144 23.6558 0.852837C23.8477 0.814976 24.0469 0.781044 24.2641 0.749255C24.8052 0.666747 25.3547 0.608884 25.8966 0.577809C27.1434 0.507802 28.4033 0.57138 29.6425 0.768543C30.8703 0.962848 32.08 1.28895 33.2381 1.73757C33.6107 1.88151 33.978 2.03796 34.329 2.20226C34.8756 2.45836 35.4056 2.73981 35.9046 3.03949C38.5328 4.60929 40.7011 6.85845 42.1749 9.54407C44.7241 14.1863 44.986 19.6419 42.8935 24.512C41.7333 27.2119 39.8839 29.5832 37.5454 31.3702C37.0507 31.7478 36.5334 32.101 36.007 32.421C35.766 32.5685 35.5034 32.7193 35.205 32.8818C34.3915 33.3197 33.5404 33.6947 32.6745 33.9965C31.9504 34.2509 31.1953 34.4602 30.4301 34.6177C29.5354 34.8027 28.6125 34.9174 27.6879 34.9588C27.4274 34.9695 27.1629 34.9749 26.8996 34.9749L26.8992 34.9752ZM26.8797 0.672819C26.5536 0.672819 26.2278 0.681748 25.9031 0.700322C25.3652 0.731039 24.8197 0.788545 24.2818 0.870696C24.0664 0.902128 23.8694 0.935702 23.6789 0.973206C21.936 1.29967 20.2475 1.89723 18.6605 2.75017C10.3002 7.25027 7.19535 17.6453 11.7401 25.9222C14.7172 31.347 20.4456 34.7688 26.6899 34.852C27.0201 34.8559 27.3541 34.8506 27.6821 34.8373C28.6003 34.7963 29.5163 34.6823 30.4045 34.4987C31.1643 34.3423 31.914 34.1344 32.633 33.8819C33.4928 33.5822 34.3381 33.21 35.1455 32.7754C35.4417 32.6139 35.7022 32.4643 35.9421 32.3178C36.4648 31.9999 36.9789 31.6492 37.4696 31.2741C39.7916 29.5 41.6276 27.1455 42.7795 24.4652C44.8572 19.6297 44.5971 14.2128 42.0659 9.60336C40.6026 6.93702 38.4498 4.70394 35.84 3.14521C35.3446 2.84768 34.8186 2.56801 34.2756 2.3137C33.9271 2.15047 33.5624 1.99545 33.1922 1.85258C32.0424 1.40682 30.8414 1.08322 29.6223 0.890341C28.7146 0.74604 27.7957 0.673533 26.8794 0.673533L26.8797 0.672819Z" fill="#371A45"/>
<g opacity="0.35">
<path d="M42.8365 24.4882C41.703 27.1259 39.8995 29.4944 37.5075 31.3221C37.0194 31.6946 36.5092 32.0443 35.9746 32.369C35.7148 32.5276 35.4475 32.6801 35.1754 32.8283C34.3529 33.2708 33.5105 33.6402 32.654 33.9388C31.9165 34.1977 31.1687 34.4027 30.4175 34.5578C29.5105 34.7453 28.5967 34.8571 27.685 34.8978C27.3524 34.9114 27.0204 34.9164 26.6892 34.9128C20.6271 34.8321 14.7861 31.6 11.686 25.9508C10.0304 22.9352 9.38312 19.6434 9.6317 16.4584C9.97949 17.7682 10.4903 19.0587 11.1729 20.3024C12.3354 22.4208 14.1021 23.1398 15.9027 24.54C18.9037 26.8731 22.3873 29.214 26.1762 29.2644C26.5074 29.2679 26.8393 29.2629 27.172 29.2494C28.0836 29.2086 28.9975 29.0969 29.9045 28.9093C30.6556 28.7543 31.4035 28.5493 32.1409 28.2903C32.9971 27.9917 33.8395 27.6224 34.6624 27.1799C34.9348 27.0316 35.2021 26.8791 35.4615 26.7205C35.9962 26.3959 36.5067 26.0462 36.9945 25.6736C39.3864 23.846 41.19 21.4775 42.3235 18.8397C43.062 17.1189 43.5166 15.2847 43.6616 13.4146C44.6538 17.1489 44.3168 21.0446 42.8365 24.4882Z" fill="#371A45"/>
</g>
<path d="M26.8992 35.3293C26.8274 35.3293 26.756 35.3293 26.6842 35.3282C20.2652 35.2425 14.3774 31.7254 11.3172 26.1495C6.6459 17.6422 9.83697 6.95751 18.4307 2.33168C20.0618 1.45517 21.7975 0.840818 23.5887 0.505427C23.7832 0.467209 23.9881 0.432206 24.2111 0.399702C24.7612 0.315765 25.3222 0.256831 25.8753 0.225042C27.1471 0.153249 28.4336 0.218255 29.6988 0.419704C30.9515 0.617939 32.186 0.950472 33.3676 1.40873C33.7478 1.55589 34.1223 1.71519 34.4809 1.88307C35.0391 2.14452 35.5799 2.43205 36.0893 2.73815C38.7713 4.33974 40.9843 6.63569 42.4884 9.37597C45.09 14.1136 45.3573 19.6813 43.2218 24.6514C42.0378 27.4067 40.1502 29.8273 37.7633 31.6511C37.2589 32.0365 36.7307 32.3969 36.1935 32.7233C35.9479 32.8733 35.6805 33.0273 35.3767 33.1923C34.5452 33.6399 33.6764 34.0228 32.7925 34.3306C32.054 34.5903 31.283 34.8035 30.5023 34.9646C29.5892 35.1532 28.6472 35.2704 27.703 35.3129C27.4368 35.324 27.1673 35.3293 26.8985 35.3293H26.8992ZM26.8797 1.02691C26.5604 1.02691 26.2415 1.03584 25.9237 1.05405C25.3973 1.08406 24.8633 1.14013 24.3366 1.22086C24.1248 1.25193 23.9333 1.28443 23.7489 1.32051C22.0392 1.64054 20.3857 2.22632 18.8315 3.0614C10.6444 7.46792 7.60412 17.6475 12.0547 25.753C14.9701 31.0657 20.5802 34.4164 26.6954 34.4982C27.0193 34.5024 27.3466 34.4971 27.668 34.4835C28.5656 34.4435 29.4629 34.3317 30.3324 34.1521C31.0763 33.9988 31.8105 33.7956 32.5143 33.5481C33.3571 33.2545 34.1847 32.8898 34.9756 32.464C35.2649 32.3065 35.5207 32.1597 35.7552 32.0165C36.2679 31.705 36.7712 31.361 37.2524 30.9939C39.5257 29.2569 41.3238 26.9513 42.4516 24.3264C44.4864 19.5909 44.2317 14.2861 41.7528 9.77244C40.3198 7.1611 38.2117 4.97445 35.6563 3.44823C35.1707 3.15641 34.6556 2.88245 34.1238 2.6335C33.7828 2.4742 33.426 2.32204 33.0634 2.18203C31.9371 1.74555 30.761 1.42874 29.5672 1.23979C28.6782 1.09834 27.7781 1.02727 26.8808 1.02727L26.8797 1.02691Z" fill="#371A45"/>
<path d="M26.8988 35.5256C26.8263 35.5256 26.7542 35.5253 26.682 35.5246C20.1909 35.4378 14.2374 31.8813 11.143 26.2433C6.41967 17.6402 9.6461 6.83629 18.3358 2.15903C19.9853 1.27287 21.7401 0.651379 23.5519 0.312416C23.7478 0.27384 23.956 0.23848 24.1822 0.205619C24.7374 0.120611 25.3046 0.061319 25.8641 0.0291729C27.1503 -0.0436916 28.4513 0.0223865 29.7306 0.225979C30.9969 0.426356 32.2452 0.762819 33.4404 1.22572C33.8247 1.37431 34.2035 1.53575 34.5664 1.70541C35.1307 1.96973 35.678 2.26047 36.1928 2.56979C38.9044 4.18924 41.1423 6.51054 42.6634 9.28189C45.2941 14.0727 45.5644 19.7026 43.4051 24.7281C42.208 27.5145 40.2992 29.9622 37.8852 31.8067C37.3751 32.196 36.8411 32.5607 36.2982 32.8907C36.0499 33.0422 35.7797 33.1975 35.4734 33.3647C34.6317 33.818 33.7532 34.2048 32.8596 34.5162C32.1131 34.7784 31.3335 34.9945 30.5441 35.157C29.6205 35.3481 28.6681 35.4663 27.7135 35.5092C27.4436 35.5206 27.1712 35.526 26.8999 35.526L26.8988 35.5256ZM26.8801 1.22322C26.5644 1.22322 26.2494 1.23215 25.9352 1.25001C25.415 1.28001 24.8871 1.33538 24.3669 1.41467C24.1569 1.44539 23.9686 1.47718 23.7875 1.51289C22.0962 1.82971 20.4622 2.40798 18.926 3.23343C10.8352 7.58851 7.83067 17.6485 12.2289 25.6589C15.1104 30.9091 20.6545 34.2208 26.6979 34.3012C27.0179 34.3055 27.3415 34.3001 27.6593 34.2866C28.5461 34.2469 29.4322 34.1366 30.2916 33.959C31.0272 33.8076 31.7524 33.6065 32.4479 33.3622C33.2813 33.0718 34.0992 32.7114 34.8807 32.2907C35.166 32.1349 35.4189 31.9899 35.6506 31.8485C36.1578 31.5402 36.6553 31.2005 37.1308 30.8373C39.3774 29.1207 41.1542 26.8422 42.2687 24.2484C44.2796 19.5683 44.0278 14.3256 41.5781 9.86481C40.1621 7.28419 38.0786 5.12326 35.5535 3.61489C35.0733 3.32629 34.5643 3.05591 34.0386 2.80981C33.7016 2.65265 33.3492 2.50228 32.9906 2.36369C31.8776 1.93222 30.7151 1.61898 29.535 1.43253C28.6562 1.29252 27.7669 1.22251 26.8801 1.22251V1.22322Z" fill="#371A45"/>
<path d="M40.5896 28.2779C31.1542 36.2112 16.9367 32.5136 15.0607 20.5181C13.7842 12.357 20.8699 4.81906 28.8654 4.1072C34.6848 3.58929 40.595 5.60378 43.8763 14.3257C43.8763 14.3257 44.7267 18.409 43.859 21.2614C42.9913 24.1139 41.6615 26.7431 41.6615 26.7431L40.5896 28.2779Z" fill="#371A45"/>
<path d="M44.0379 20.5439C43.9903 20.7893 43.9304 21.0297 43.8597 21.2612C42.992 24.1132 41.6611 26.7442 41.6611 26.7442L40.5892 28.2783C31.1549 36.212 16.9374 32.5137 15.061 20.5189C14.9398 19.7446 14.8947 18.9752 14.9174 18.2173C20.2952 27.5972 33.8698 29.4813 43.3827 21.483L44.0379 20.5443V20.5439Z" fill="#21102B"/>
<path d="M29.3464 34.6832C25.7011 34.6832 22.1781 33.6253 19.3355 31.624C15.7786 29.1195 13.5234 25.3987 12.8138 20.864C12.1607 16.6911 13.3639 12.4149 16.2014 8.82312C19.289 4.91487 23.9744 2.32818 28.7356 1.9042C31.4089 1.66704 33.8597 1.92456 36.0204 2.67107L36.0648 2.68643L36.1048 2.71036C38.7926 4.31552 41.0096 6.6154 42.5162 9.36103C45.1224 14.1072 45.3905 19.6849 43.2511 24.6637C42.0648 27.4239 40.174 29.8488 37.7824 31.6761C37.277 32.0619 36.7477 32.4234 36.2098 32.7502C35.9637 32.9006 35.696 33.0545 35.3919 33.2199C34.5585 33.6685 33.6883 34.0517 32.803 34.3603L32.7344 34.3782C31.6045 34.5825 30.4691 34.6832 29.346 34.6832H29.3464ZM30.6228 2.71143C30.034 2.71143 29.4319 2.73893 28.8167 2.79358C24.2995 3.19576 19.8493 5.6553 16.9122 9.37282C14.2298 12.7682 13.0912 16.8004 13.7052 20.7268C14.3766 25.018 16.5045 28.5344 19.8583 30.8961C23.3705 33.3688 27.9898 34.3196 32.5378 33.5063C33.3661 33.2156 34.1808 32.8556 34.9597 32.4366C35.2483 32.2794 35.5038 32.1326 35.7375 31.9898C36.2495 31.6786 36.752 31.3354 37.2322 30.9689C39.5015 29.2352 41.296 26.9339 42.4217 24.314C44.4525 19.5874 44.1985 14.2926 41.7243 9.78715C40.3014 7.19438 38.2121 5.02095 35.6795 3.49901C34.1454 2.97503 32.4505 2.71143 30.6228 2.71143Z" fill="#371A45"/>
<path d="M29.3438 33.0947C27.4389 33.0947 25.5452 32.7708 23.7446 32.1068C18.6886 30.2426 15.3009 26.0526 14.4499 20.6117C13.86 16.8399 14.9459 12.977 17.5078 9.7345C20.2908 6.212 24.5159 3.88069 28.8099 3.49851C36.2928 2.83237 41.5547 6.4038 44.4546 14.1124L44.481 14.2024C44.517 14.3753 45.3522 18.4715 44.4503 21.4378C43.5776 24.3078 42.269 26.9077 42.2135 27.0173L42.1691 27.0913L41.051 28.6921L40.9894 28.7443C37.6035 31.5914 33.4477 33.0951 29.3438 33.0951V33.0947ZM30.4893 4.64505C29.9784 4.64505 29.456 4.66898 28.9206 4.71649C24.96 5.06902 21.0575 7.22638 18.4808 10.4878C16.1314 13.4613 15.1335 16.9902 15.6707 20.4245C16.4511 25.415 19.5512 29.2554 24.1757 30.9606C29.4131 32.8926 35.5182 31.7049 40.1282 27.8635L41.1279 26.4326C41.291 26.1044 42.4815 23.6705 43.2677 21.0853C44.0325 18.5704 43.3654 14.9336 43.2799 14.4932C40.8046 7.95217 36.506 4.64505 30.4893 4.64505Z" fill="#371A45"/>
<path d="M16.3627 20.6036C16.3638 20.6279 16.3649 20.654 16.3645 20.6786C16.4471 24.0243 14.5285 26.6975 12.0561 26.6642C9.56494 26.6321 7.45512 23.8632 7.34147 20.4818C7.25525 17.8737 8.38376 15.661 10.0498 14.8041C10.5412 14.5491 11.0809 14.4134 11.6484 14.4212C14.1396 14.4552 16.2512 17.224 16.3631 20.6036H16.3627Z" fill="white"/>
<g opacity="0.35">
<path d="M16.3645 20.6779C16.4471 24.0235 14.5285 26.6967 12.0561 26.6635C9.56493 26.6313 7.4551 23.8625 7.34146 20.481C7.3227 19.9146 7.3613 19.367 7.45005 18.8477C7.82814 16.6396 10.8233 16.1488 11.9421 18.0951L13.146 20.1896C13.146 20.1896 13.8372 21.5987 15.2551 21.5387C15.7364 21.5183 16.0979 21.1525 16.3649 20.6779H16.3645Z" fill="#371A45"/>
</g>
<path d="M12.1037 27.2764C12.0853 27.2764 12.0669 27.2764 12.0485 27.2764C9.23627 27.2386 6.84792 24.1997 6.7249 20.5029C6.65346 18.3587 7.33389 16.4003 8.59192 15.1302C9.44804 14.2658 10.4878 13.8101 11.6019 13.8101C11.6203 13.8101 11.6387 13.8101 11.6571 13.8101C14.4693 13.8479 16.8577 16.8868 16.9807 20.5836C17.0521 22.7281 16.3717 24.6865 15.1137 25.9563C14.2572 26.8203 13.2178 27.2761 12.1037 27.2761V27.2764ZM11.6033 15.033C10.8277 15.033 10.0924 15.362 9.47366 15.9864C8.46601 17.0036 7.89959 18.677 7.95912 20.4622C8.06086 23.516 9.90298 26.0242 12.0651 26.0531C12.0774 26.0531 12.09 26.0531 12.1023 26.0531C12.878 26.0531 13.6132 25.7241 14.2316 25.0998C15.2392 24.0825 15.8057 22.4091 15.7461 20.624C15.6444 17.5701 13.8023 15.062 11.6401 15.033C11.6279 15.033 11.6156 15.033 11.6033 15.033Z" fill="#371A45"/>
<path d="M7.10877 22.8655C8.0136 25.3043 10.2255 26.4598 12.0496 25.4469C13.8737 24.4339 14.6187 21.6358 13.7142 19.1969C12.8094 16.7581 10.5975 15.6026 8.77339 16.6156C6.9493 17.6286 6.2043 20.4267 7.10877 22.8655Z" fill="white"/>
<path d="M10.6548 25.8751C10.3074 25.8751 9.95673 25.813 9.61435 25.6876C8.49197 25.2776 7.55684 24.2568 7.04887 22.8873C6.13502 20.4246 6.89481 17.5864 8.74163 16.5606C9.50323 16.1374 10.3792 16.0713 11.2079 16.3749C12.3303 16.7849 13.2654 17.8057 13.7734 19.1752C14.6872 21.6379 13.9274 24.4761 12.0803 25.5019C11.6336 25.7501 11.1477 25.8751 10.6545 25.8751H10.6548ZM10.162 16.3099C9.69481 16.3099 9.23662 16.4306 8.80441 16.6706C7.00954 17.6679 6.27572 20.4367 7.16864 22.8438C7.66399 24.1785 8.57135 25.1722 9.65873 25.5694C10.4633 25.8641 11.2797 25.8023 12.0186 25.3919C13.8138 24.395 14.5476 21.6258 13.6547 19.2187C13.1594 17.884 12.252 16.8903 11.1646 16.4931C10.8302 16.371 10.4939 16.3099 10.1624 16.3099H10.162Z" fill="#371A45"/>
<g opacity="0.35">
<path d="M14.009 22.8548C14.206 21.9536 14.1544 20.9957 13.9058 20.1027C13.2817 22.1201 11.476 22.9937 9.71646 22.0561C8.57929 21.4507 7.72317 20.227 7.3393 18.8447C7.29925 18.9719 7.26498 19.1051 7.23467 19.2416C6.73391 21.5368 7.71487 24.4621 9.58586 25.4597C11.4568 26.4573 13.5082 25.1486 14.009 22.8548Z" fill="#371A45"/>
</g>
<path d="M10.6343 26.5772C10.6126 26.5772 10.591 26.5772 10.5693 26.5765C8.33289 26.529 6.48967 24.0462 6.37314 20.9249C6.30532 19.0993 6.87535 17.3956 7.89815 16.3673C8.56306 15.699 9.37048 15.3511 10.2237 15.3736C12.4602 15.4211 14.3034 17.9038 14.4199 21.0252C14.4877 22.8508 13.9177 24.5545 12.8949 25.5828C12.247 26.2343 11.4666 26.5772 10.6339 26.5772H10.6343ZM7.60772 20.8802C7.6972 23.2726 9.06562 25.3217 10.596 25.3542C11.2404 25.3639 11.7224 25.0196 12.0153 24.7252C12.8044 23.9323 13.2416 22.5661 13.1861 21.0706C13.0966 18.6782 11.7282 16.6291 10.1977 16.5966C9.55412 16.5862 9.0714 16.9312 8.77845 17.2256C7.98943 18.0185 7.55216 19.3847 7.60772 20.8802Z" fill="#371A45"/>
<g opacity="0.6">
<path d="M33.4246 6.88684C33.3218 6.75575 33.9261 6.88327 33.9261 6.88327L34.3532 6.89541C34.3532 6.89541 35.1137 6.95006 35.4882 7.00399C35.8663 7.05828 36.2405 7.13043 36.6092 7.22009C37.0522 7.3276 37.4599 7.55226 37.772 7.88158C39.0971 9.27887 40.1275 10.9908 40.7314 12.9482C41.9429 16.8757 41.2538 19.9435 39.232 22.9517C39.232 22.9517 39.5437 20.8368 38.5469 16.7168C37.9895 14.4122 37.1309 11.623 33.4242 6.88648L33.4246 6.88684Z" fill="white"/>
</g>
<g opacity="0.6">
<path d="M22.1465 19.613C23.416 19.4618 24.3008 18.1519 24.1228 16.6873C23.9448 15.2228 22.7715 14.158 21.502 14.3092C20.2326 14.4604 19.3478 15.7703 19.5257 17.2349C19.7037 18.6995 20.8771 19.7642 22.1465 19.613Z" fill="white"/>
</g>
<g opacity="0.6">
<path d="M22.2043 23.6688C22.7213 23.5628 23.0393 22.9933 22.9145 22.3968C22.7898 21.8004 22.2695 21.4027 21.7524 21.5087C21.2354 21.6147 20.9174 22.1842 21.0421 22.7807C21.1669 23.3772 21.6872 23.7749 22.2043 23.6688Z" fill="white"/>
</g>
<path d="M16.0766 47.2805C13.5255 47.2805 11.4557 46.2329 11.3262 46.1658C11.1054 46.0515 11.0199 45.7818 11.1354 45.5632C11.2505 45.3446 11.5229 45.26 11.7436 45.3739C11.7877 45.3964 16.1646 47.6024 19.7598 45.3907C19.9705 45.2603 20.249 45.3246 20.3807 45.5343C20.5123 45.7436 20.4474 46.019 20.2356 46.149C18.856 46.9977 17.4017 47.2802 16.0769 47.2802L16.0766 47.2805Z" fill="#371A45"/>
<path d="M10.8457 42.2407L8.54068 41.5721C8.01971 41.421 7.48144 41.7553 7.39557 42.2861C7.09937 44.112 6.7339 47.8731 8.61716 48.4596C10.8998 49.1704 11.4384 46.5904 11.4951 43.1101C11.5016 42.709 11.2346 42.3536 10.8457 42.2411V42.2407Z" fill="white"/>
<g opacity="0.35">
<path d="M11.4944 43.1092C11.4381 46.5895 10.8994 49.1702 8.6168 48.4587C7.67914 48.1679 7.29888 47.0885 7.19101 45.8538C7.40712 46.1902 7.69501 46.4399 8.07672 46.5581C10.1202 47.1939 10.767 45.1923 10.9182 42.2666C11.2682 42.3977 11.5016 42.7341 11.4944 43.1092Z" fill="#371A45"/>
</g>
<path d="M9.32644 49.0244C9.06235 49.0244 8.78022 48.9783 8.48222 48.8851C6.3172 48.2111 6.59319 44.4168 6.95036 42.2152C7.01169 41.8362 7.23537 41.5015 7.56296 41.2965C7.89163 41.0911 8.29389 41.035 8.66766 41.1436L10.9727 41.8123C11.5557 41.9816 11.9558 42.518 11.946 43.117C11.8941 46.2999 11.4471 47.9611 10.4503 48.6733C10.1227 48.9073 9.74674 49.0244 9.32644 49.0244ZM8.28488 41.9819C8.20081 41.9819 8.11856 42.0055 8.0446 42.0516C7.93384 42.1205 7.86168 42.2291 7.84112 42.3566C7.31944 45.5712 7.66037 47.6932 8.7528 48.0332C9.24599 48.1868 9.62841 48.1593 9.9228 47.949C10.9777 47.1953 11.0279 44.115 11.0441 43.1027C11.0473 42.9038 10.9139 42.7256 10.719 42.6691L8.41403 42.0005C8.3711 41.988 8.32781 41.9819 8.28488 41.9819Z" fill="#371A45"/>
</svg>
