<svg width="57" height="56" viewBox="0 0 57 56" fill="none" xmlns="http://www.w3.org/2000/svg">
<path d="M41.1849 51.4738C27.9736 58.7413 11.3147 54.0309 3.97249 40.9513C2.69967 38.6843 1.79159 36.3148 1.22842 33.9088C0.982007 32.8616 0.801257 31.8072 0.684726 30.7528C-0.437291 20.6014 4.32822 10.3068 13.5926 4.69585C13.9227 4.49333 14.259 4.29939 14.601 4.11151C15.5928 3.56574 16.604 3.08819 17.629 2.67851C21.1902 1.24408 24.9232 0.609371 28.5981 0.70581C28.8355 0.711882 29.0732 0.722237 29.3106 0.734024C33.2185 0.936544 37.0442 1.96879 40.5142 3.75112C45.1227 6.116 49.1021 9.80423 51.8134 14.6329C53.3088 17.2978 54.302 20.1035 54.8233 22.9459C56.8639 34.051 51.7044 45.6871 41.1849 51.4742V51.4738Z" fill="#5FCFBE"/>
<g opacity="0.6">
<path d="M51.5092 14.1139C48.8084 9.54092 44.955 6.02986 40.5142 3.75106C37.0442 1.96909 33.2185 0.93684 29.3106 0.733962C29.0732 0.722175 28.8355 0.71182 28.5981 0.705748C24.9232 0.609667 21.1902 1.24402 17.629 2.6788C16.604 3.08849 15.5928 3.56604 14.601 4.11181C14.259 4.29968 13.9227 4.49327 13.5926 4.69615C4.32786 10.3067 -0.437282 20.6017 0.684735 30.7531C0.801266 31.8075 0.982016 32.8619 1.22843 33.9091C1.28759 34.1616 1.35253 34.4138 1.41964 34.6656C-0.349974 23.5466 4.90908 12.023 15.4268 6.23631C16.4218 5.68839 17.4363 5.20799 18.4653 4.79366C18.4747 4.86795 18.4895 4.94189 18.5079 5.01511C18.9051 6.57956 21.2148 7.35321 23.6691 6.74243C26.1224 6.13237 27.7899 4.36933 27.3927 2.80489L27.3913 2.79989C36.6492 2.28591 45.8367 6.38489 51.5089 14.1139H51.5092Z" fill="white"/>
</g>
<g opacity="0.35">
<path d="M41.1849 49.6878C27.9736 56.9554 11.3147 52.2449 3.97249 39.1654C2.69967 36.8983 1.79159 34.5288 1.22842 32.1228C0.982011 31.0756 0.801261 30.0212 0.68473 28.9668C0.476923 27.0888 0.47115 25.2043 0.657672 23.3455C0.666691 23.4313 0.675711 23.517 0.68473 23.6027C0.801261 24.6571 0.982011 25.7115 1.22842 26.7587C1.79159 29.1651 2.69967 31.5342 3.97249 33.8012C11.3147 46.8808 27.9736 51.5912 41.1849 44.3237C49.3352 39.8397 54.2677 31.8446 55.1267 23.3052C56.1784 33.7359 51.0276 44.2719 41.1849 49.6875V49.6878Z" fill="#371A45"/>
</g>
<path d="M28.0836 55.5139C18.2225 55.5139 8.6449 50.3631 3.52511 41.2414C-3.98483 27.8608 0.900817 10.9259 14.4163 3.49011C27.9324 -3.94529 45.0376 0.891995 52.5479 14.2726C60.0578 27.6533 55.1722 44.5886 41.6567 52.024C37.3548 54.3906 32.6878 55.5139 28.0836 55.5139ZM27.9916 1.33918C23.6089 1.33918 19.1684 2.40822 15.0732 4.66094C2.21008 11.7374 -2.43998 27.8554 4.7081 40.5906C11.8558 53.3259 28.1363 57.9292 40.9998 50.8524C53.8629 43.776 58.513 27.6579 51.3649 14.9227C46.4926 6.24182 37.3758 1.33882 27.9912 1.33882L27.9916 1.33918Z" fill="#371A45"/>
<path d="M21.0787 14.762C18.1907 14.9042 16.1509 13.9294 16.5221 12.585C16.8934 11.2406 19.5357 10.0355 22.4237 9.89365C25.3117 9.75149 27.3516 10.7262 26.9803 12.0707C26.6091 13.4151 23.9668 14.6202 21.0787 14.762Z" fill="#5FCFBE"/>
<path d="M26.7249 8.35344C27.1791 8.67669 27.5796 9.11923 27.7993 9.66858C27.8541 9.80502 27.8971 9.94682 27.9281 10.0911C27.9631 10.2354 27.9627 10.384 27.9775 10.5322C27.9909 10.8283 27.9512 11.1262 27.8729 11.4109C27.7098 11.9806 27.3927 12.4839 27.0164 12.915C26.6344 13.3425 26.1949 13.7133 25.7173 14.0151C25.2399 14.3158 24.737 14.5798 24.2088 14.772C24.0793 14.8273 23.9458 14.8705 23.812 14.9134C23.6781 14.9559 23.5457 15.0034 23.4104 15.0409C23.1381 15.1077 22.8689 15.1913 22.5915 15.2349C22.0417 15.3499 21.4796 15.3917 20.9178 15.4177C20.3547 15.4188 19.7879 15.3995 19.228 15.2959C18.6691 15.1927 18.1146 15.0434 17.5832 14.812C17.0557 14.5748 16.5459 14.2626 16.1246 13.8304C15.7032 13.4043 15.3759 12.8435 15.2724 12.2285C15.1602 11.6148 15.2868 10.9809 15.5473 10.4508C15.8085 9.91646 16.1859 9.46642 16.6109 9.09138C16.8209 8.89886 17.0517 8.73777 17.2801 8.57418C17.5197 8.42881 17.7531 8.27415 18.0056 8.157C18.2506 8.02413 18.5107 7.92662 18.7644 7.81768C19.0266 7.73017 19.2824 7.62551 19.5509 7.56301C20.0783 7.40549 20.6242 7.32905 21.1646 7.26655C21.2382 7.25797 21.305 7.31012 21.3136 7.38335C21.3215 7.45085 21.2768 7.51265 21.2115 7.52836L21.2039 7.53015L20.8172 7.6223C20.688 7.65123 20.5603 7.68338 20.4344 7.72481L20.0556 7.83732L19.6851 7.97126L19.5007 8.03877L19.3207 8.11699L18.9617 8.27308C18.7312 8.39416 18.4949 8.5031 18.278 8.64383C18.0529 8.77134 17.8462 8.9235 17.6362 9.06923C17.4389 9.23032 17.239 9.38748 17.0651 9.56892C16.713 9.92431 16.4081 10.3204 16.222 10.7551C16.0326 11.1877 15.9763 11.6509 16.0643 12.0845C16.1512 12.5192 16.3922 12.9153 16.7281 13.2379C17.0651 13.5604 17.4836 13.8179 17.9349 14.0154C18.391 14.208 18.8805 14.3348 19.3777 14.4212C19.877 14.5044 20.3875 14.5319 20.8984 14.533C21.4089 14.5116 21.9226 14.4784 22.4259 14.3755C23.4382 14.2076 24.4174 13.854 25.2941 13.3486C25.7346 13.0975 26.1318 12.7835 26.4792 12.4324C26.8259 12.0813 27.1135 11.6749 27.2715 11.2266C27.3505 11.003 27.4014 10.7712 27.4089 10.5362C27.4046 10.4194 27.418 10.2994 27.3981 10.1826C27.3819 10.0654 27.3574 9.94897 27.3242 9.83395C27.1871 9.37462 26.8901 8.95493 26.512 8.61061C26.4439 8.54882 26.4392 8.44417 26.5016 8.37702C26.5593 8.31451 26.6546 8.3063 26.7224 8.35452L26.7249 8.35344Z" fill="#371A45"/>
<path d="M22.9858 16.9952C22.1218 17.4992 21.0943 17.7296 20.0805 17.7282C19.5718 17.7324 19.0645 17.6696 18.5659 17.571C18.0695 17.4628 17.5825 17.3092 17.1174 17.1049C16.1895 16.6973 15.3218 16.1173 14.6594 15.3308C14.3279 14.9407 14.0519 14.4957 13.8791 14.0088C13.7092 13.5231 13.6406 12.9959 13.7283 12.4987C13.7409 12.4258 13.8113 12.3769 13.8849 12.3897C13.9465 12.4005 13.9909 12.4505 13.9967 12.5094V12.5123C14.0836 13.4306 14.566 14.216 15.2078 14.8357C15.8525 15.4558 16.6354 15.9401 17.4724 16.2898C18.3109 16.6373 19.2031 16.8688 20.1122 16.9424C21.0217 17.017 21.9432 16.9424 22.8534 16.6923L22.8556 16.6916C22.9451 16.667 23.0378 16.7191 23.0623 16.8077C23.0832 16.882 23.0497 16.9584 22.9858 16.9956V16.9952Z" fill="#371A45"/>
<path d="M13.055 30.8473C12.9233 33.7069 11.749 35.625 10.4325 35.131C9.11605 34.637 8.15566 31.9185 8.28734 29.0589C8.41903 26.1994 9.59336 24.2813 10.9098 24.7753C12.2263 25.2693 13.1867 27.9878 13.055 30.8473Z" fill="#5FCFBE"/>
<path d="M7.14803 24.6742C7.51638 24.2574 7.9991 23.9048 8.57237 23.7405C8.71488 23.6994 8.86136 23.6709 9.00964 23.6537C9.15828 23.633 9.30764 23.6477 9.45772 23.6469C9.75681 23.6619 10.0523 23.7294 10.3315 23.8334C10.8886 24.0484 11.3648 24.4088 11.7624 24.8206C12.156 25.2378 12.4868 25.7061 12.7448 26.2054C13.0016 26.7047 13.2192 27.2252 13.3624 27.7638C13.4057 27.8967 13.4367 28.0324 13.467 28.1685C13.497 28.3042 13.5323 28.4396 13.5572 28.5764C13.5984 28.851 13.6568 29.1243 13.6741 29.4018C13.7373 29.9547 13.7261 30.5123 13.6987 31.0688C13.646 31.6238 13.5731 32.1807 13.4154 32.7225C13.2585 33.2633 13.0558 33.7958 12.7725 34.2973C12.4839 34.7945 12.1217 35.267 11.6469 35.6414C11.1783 36.016 10.5833 36.2854 9.95487 36.3289C9.32712 36.3811 8.70153 36.1964 8.1932 35.8889C7.68089 35.5806 7.2642 35.166 6.92759 34.7113C6.75406 34.4863 6.61408 34.243 6.47121 34.0026C6.34782 33.753 6.21433 33.5079 6.12089 33.2479C6.01086 32.994 5.93726 32.7282 5.85211 32.4678C5.78898 32.201 5.70816 31.9392 5.671 31.6685C5.56277 31.1338 5.53788 30.5884 5.52633 30.0497C5.52489 29.9762 5.5837 29.9154 5.65802 29.914C5.72692 29.9126 5.78465 29.9626 5.79403 30.0283L5.79511 30.0358L5.85103 30.4258C5.86763 30.5559 5.88783 30.6848 5.91778 30.8127L5.99462 31.1966L6.0942 31.5745L6.14434 31.7628L6.20568 31.9474L6.32834 32.316C6.42828 32.5546 6.51522 32.7979 6.63608 33.025C6.74287 33.259 6.87636 33.4772 7.00299 33.698C7.14622 33.9076 7.28512 34.1198 7.45108 34.3084C7.7747 34.6891 8.14449 35.027 8.56335 35.252C8.98041 35.4799 9.44076 35.5796 9.88524 35.5339C10.3304 35.4896 10.7518 35.2895 11.1083 34.9892C11.4647 34.6877 11.7634 34.2998 12.0048 33.8737C12.2418 33.4426 12.4157 32.9722 12.5499 32.4903C12.6813 32.006 12.757 31.5056 12.8068 31.0023C12.8335 30.4973 12.849 29.9876 12.7938 29.4818C12.7213 28.4681 12.459 27.4698 12.034 26.5576C11.8233 26.0993 11.5455 25.6782 11.2255 25.3021C10.9055 24.9271 10.5242 24.6049 10.0884 24.4067C9.87117 24.3077 9.6428 24.2352 9.40721 24.2056C9.28924 24.1988 9.17018 24.1741 9.0504 24.1824C8.93099 24.1874 8.81157 24.2002 8.69287 24.222C8.21809 24.3134 7.76784 24.5663 7.38578 24.906C7.31723 24.9674 7.21152 24.9621 7.14983 24.8942C7.09247 24.8313 7.09319 24.7367 7.14803 24.6742Z" fill="#371A45"/>
<path d="M15.482 29.1807C15.9066 30.0801 16.0404 31.1148 15.9427 32.1138C15.8987 32.6157 15.7872 33.1096 15.6407 33.5915C15.4849 34.0705 15.2839 34.5359 15.0342 34.9748C14.5364 35.8506 13.8707 36.6507 13.0168 37.2286C12.5932 37.5183 12.1195 37.748 11.6134 37.8719C11.1086 37.9934 10.5721 38.0105 10.0804 37.8769C10.0083 37.8573 9.96568 37.7837 9.98552 37.7123C10.0021 37.6526 10.0566 37.6137 10.1161 37.6137H10.119C11.0505 37.6155 11.8865 37.2147 12.5701 36.6411C13.2549 36.0646 13.8163 35.3392 14.2474 34.5473C14.6767 33.754 14.9938 32.8968 15.1544 32.0077C15.316 31.1184 15.3283 30.2033 15.1638 29.2821V29.28C15.1472 29.1896 15.2081 29.1032 15.2994 29.0871C15.3759 29.0735 15.4495 29.1139 15.4809 29.1803L15.482 29.1807Z" fill="#371A45"/>
<g opacity="0.35">
<path d="M29.9116 22.7217C32.6965 22.223 35.3193 23.7225 35.7696 26.0713C36.2198 28.4201 34.3272 30.7282 31.542 31.2268C28.7571 31.7254 26.1343 30.226 25.684 27.8772C25.2338 25.5284 27.1264 23.2203 29.9116 22.7217Z" fill="#371A45"/>
</g>
<path d="M30.6274 25.6354C32.713 26.0379 34.0948 27.7092 33.7138 29.3682C33.3328 31.027 31.3334 32.0457 29.2478 31.6428C27.1621 31.2402 25.7803 29.569 26.1613 27.9099C26.5423 26.2511 28.5417 25.2325 30.6274 25.6354Z" fill="#5FCFBE"/>
<path d="M31.5499 31.2574C32.5684 31.0056 33.519 30.5252 34.2554 29.8287C34.9903 29.1389 35.5112 28.2321 35.6317 27.2745C35.7566 26.3187 35.4622 25.3411 34.8626 24.5938C34.2662 23.8341 33.3722 23.3212 32.4197 23.058C30.5044 22.5383 28.2661 23.0833 26.8753 24.5192C26.1743 25.2246 25.7179 26.1694 25.6732 27.1612C25.6537 27.4095 25.6815 27.657 25.7082 27.9063C25.7468 28.1538 25.8128 28.3967 25.8994 28.6342C25.9882 28.8711 26.1007 29.1004 26.236 29.3179C26.3648 29.5404 26.5394 29.7326 26.6993 29.9387L26.7112 29.9544C26.7563 30.0122 26.7451 30.0955 26.6866 30.1401C26.6322 30.1816 26.5557 30.1751 26.5091 30.1273C26.3168 29.9305 26.1072 29.7436 25.9405 29.5186C25.7699 29.2972 25.6234 29.0557 25.5 28.8021C25.2515 28.2939 25.1256 27.7277 25.1108 27.157C25.0833 26.0108 25.5516 24.8667 26.328 24.0227C26.7119 23.597 27.1542 23.2198 27.6485 22.9247C28.1438 22.6326 28.6756 22.4061 29.2276 22.2422C29.7828 22.0932 30.355 22.0079 30.9326 21.9947C31.5102 21.9932 32.0886 22.0586 32.6521 22.2004C33.2156 22.3429 33.7539 22.5836 34.2503 22.8905C34.7442 23.2008 35.201 23.5859 35.5603 24.057C36.2779 24.9928 36.6264 26.229 36.4179 27.3905C36.3212 27.9706 36.0993 28.5189 35.801 29.0114C35.495 29.5008 35.1068 29.9301 34.6714 30.2941C33.7885 31.0109 32.7095 31.4527 31.6094 31.5824C31.5178 31.5931 31.4345 31.5285 31.4236 31.4377C31.4135 31.3542 31.4687 31.2774 31.5492 31.2577H31.5503L31.5499 31.2574Z" fill="#371A45"/>
<path d="M23.961 25.561C23.6319 26.5258 23.5454 27.5537 23.7528 28.5213C23.8044 28.7628 23.8856 28.9967 23.9505 29.2332L24.0948 29.5725C24.1424 29.6854 24.1857 29.8 24.2525 29.9043C24.3744 30.1176 24.4827 30.3372 24.6367 30.5305C24.7096 30.629 24.7752 30.7326 24.8532 30.8276L25.0985 31.1027L25.2204 31.2402C25.2637 31.2837 25.311 31.3238 25.3561 31.3655L25.6278 31.6156C25.7158 31.7013 25.8222 31.7674 25.9178 31.8445C26.0174 31.9174 26.1112 31.9978 26.2151 32.0649C26.6318 32.331 27.0655 32.575 27.5309 32.7514C28.4508 33.1282 29.4495 33.3129 30.4496 33.3282C32.4501 33.3565 34.4838 32.6871 36.0016 31.3784C36.7538 30.7248 37.3963 29.9268 37.7903 29.0064C38.1857 28.0888 38.3408 27.0665 38.22 26.05V26.0479C38.211 25.9746 38.264 25.9086 38.3376 25.9C38.4058 25.8921 38.4682 25.9361 38.4841 26.0004C38.7438 27.0433 38.6706 28.1724 38.3145 29.2071C37.9519 30.2426 37.3022 31.1695 36.5005 31.9224C35.6992 32.68 34.7338 33.2636 33.6965 33.6472C32.6586 34.033 31.5506 34.2194 30.4405 34.2158C29.3304 34.2083 28.2199 33.9844 27.1903 33.5586C26.1675 33.1239 25.2143 32.4832 24.4993 31.6199C23.7799 30.7683 23.2755 29.7229 23.1334 28.6235C22.9858 27.5273 23.1741 26.4018 23.6518 25.4353C23.6922 25.3531 23.7925 25.3189 23.8755 25.3592C23.952 25.396 23.987 25.4832 23.9606 25.561H23.961Z" fill="#371A45"/>
<g opacity="0.35">
<path d="M43.0337 11.7754C43.1157 10.5096 41.9669 9.40631 40.4678 9.31111C38.9688 9.21592 37.687 10.1649 37.605 11.4307C37.523 12.6965 38.6718 13.7998 40.1709 13.895C41.6699 13.9902 42.9517 13.0412 43.0337 11.7754Z" fill="#371A45"/>
</g>
<path d="M40.4226 10.8936C41.4555 11.3412 41.9757 12.3652 41.5846 13.1806C41.1932 13.9961 40.0387 14.2943 39.0058 13.8468C37.9729 13.3992 37.4527 12.3752 37.8437 11.5598C38.2352 10.7443 39.3897 10.4461 40.4226 10.8936Z" fill="#5FCFBE"/>
<path d="M40.2458 13.8337C40.7905 13.788 41.3112 13.6326 41.7394 13.3536C42.1676 13.0804 42.501 12.6878 42.6482 12.2499C42.795 11.812 42.7557 11.3341 42.5497 10.9273C42.3513 10.5126 41.9808 10.1779 41.5543 9.94864C40.6946 9.49145 39.548 9.50288 38.7092 10.0269C38.2882 10.284 37.9541 10.6759 37.8066 11.1455C37.646 11.6152 37.7016 12.1535 37.9382 12.6389C37.9707 12.7057 37.9426 12.7857 37.8751 12.8179C37.8174 12.8454 37.7499 12.8289 37.7113 12.7818C37.3293 12.3157 37.1402 11.6549 37.2593 11.0202C37.3707 10.3844 37.7597 9.8004 38.285 9.42465C38.5454 9.23356 38.8319 9.07462 39.1385 8.97068C39.4448 8.86745 39.7634 8.80495 40.0856 8.77888C40.4078 8.7603 40.731 8.78208 41.0496 8.84388C41.3667 8.91174 41.677 9.01676 41.9703 9.16249C42.5504 9.4618 43.0588 9.93899 43.3495 10.5544C43.6291 11.1705 43.6638 11.9128 43.3903 12.5332C43.2579 12.8436 43.0624 13.1182 42.8322 13.3497C42.5973 13.5772 42.3278 13.759 42.0432 13.8983C41.4677 14.1655 40.8295 14.2551 40.2321 14.1644C40.1404 14.1505 40.0777 14.0655 40.0917 13.9748C40.1036 13.8973 40.1678 13.8408 40.2432 13.8344H40.2458V13.8337Z" fill="#371A45"/>
<path d="M37.0428 10.1356C36.7935 10.6046 36.6571 11.11 36.6715 11.6083C36.6744 11.7326 36.6925 11.8558 36.7015 11.9779C36.7322 12.098 36.7451 12.2201 36.787 12.3358C36.827 12.4519 36.857 12.5698 36.9136 12.6791C36.9396 12.7344 36.9612 12.7912 36.9897 12.8452L37.0832 13.0034C37.1377 13.1123 37.2253 13.2034 37.291 13.3059C37.3668 13.4024 37.4494 13.4942 37.532 13.5853C37.7088 13.7581 37.896 13.9214 38.1064 14.0564C38.5162 14.3403 38.9881 14.5357 39.4787 14.6546C40.4622 14.8911 41.5409 14.7932 42.4479 14.3343C42.8975 14.1021 43.3153 13.7921 43.628 13.3881C43.943 12.987 44.1562 12.5041 44.2428 11.9769V11.9737C44.2551 11.9008 44.3247 11.8511 44.3983 11.8629C44.4614 11.8729 44.5069 11.9247 44.5112 11.9854C44.5542 12.5684 44.3976 13.1734 44.0949 13.6974C43.7871 14.22 43.334 14.6546 42.8145 14.9732C42.2957 15.2969 41.7051 15.5015 41.0997 15.5915C40.4933 15.683 39.8738 15.6508 39.2735 15.5194C38.6739 15.3844 38.1013 15.1265 37.5955 14.7711C37.0976 14.4075 36.6593 13.9417 36.3844 13.3792C36.1037 12.8237 35.9713 12.1869 36.0441 11.5747C36.1163 10.9639 36.3739 10.3853 36.7686 9.94631C36.8303 9.87773 36.9364 9.87166 37.0056 9.93274C37.0644 9.98453 37.0778 10.0681 37.0428 10.1342L37.0421 10.1353L37.0428 10.1356Z" fill="#371A45"/>
<path d="M46.3605 18.5056C46.0524 18.6499 45.7631 18.8235 45.4968 19.0224C45.2378 19.2318 44.9863 19.4461 44.7771 19.6979C44.3459 20.1879 44.0346 20.7676 43.8466 21.3816C43.6623 21.9974 43.5905 22.6467 43.6428 23.29C43.6828 23.9344 43.8455 24.5694 44.092 25.1706C44.5808 26.3782 45.4582 27.4337 46.5525 28.1769C47.6499 28.917 48.9927 29.3306 50.368 29.2399H50.3706C50.4449 29.2349 50.5091 29.2906 50.5141 29.3638C50.5185 29.4296 50.4741 29.4874 50.4117 29.5024C49.7075 29.6728 48.9563 29.6925 48.2304 29.5628C47.5063 29.4285 46.7949 29.1792 46.1574 28.7992C44.872 28.0548 43.8405 26.885 43.2636 25.5106C42.9725 24.8252 42.8029 24.0872 42.7607 23.3404C42.7304 22.5939 42.8281 21.8349 43.094 21.1302C43.6027 19.7139 44.8204 18.5553 46.2476 18.1952C46.3371 18.1724 46.4283 18.2259 46.4514 18.3145C46.4716 18.3927 46.432 18.4724 46.3609 18.506L46.3605 18.5056Z" fill="#371A45"/>
<g opacity="0.3">
<path d="M52.0475 22.4851C52.8708 24.656 52.0702 26.9784 50.2591 27.6724C48.448 28.3664 46.3129 27.1691 45.4896 24.9982C44.6663 22.8272 45.4669 20.5048 47.278 19.8108C49.0887 19.1169 51.2242 20.3141 52.0475 22.4851Z" fill="#6B184E"/>
</g>
<path d="M49.4737 27.2588C48.2416 27.472 46.8501 26.8427 45.9756 25.549C44.8117 23.8259 45.0062 21.5761 46.4093 20.5235C46.6073 20.3745 46.8191 20.2577 47.0403 20.1724C48.0064 20.392 48.9448 21.0285 49.6126 22.0158C50.7945 23.7659 50.7058 26.0097 49.4737 27.2588Z" fill="#5FCFBE"/>
<path d="M51.6261 21.8708C51.1207 21.3033 50.4976 20.8568 49.806 20.6161C49.1205 20.3689 48.3705 20.3296 47.712 20.5375C47.0504 20.7386 46.4991 21.2018 46.1787 21.7912C45.8551 22.3845 45.7725 23.1002 45.8876 23.7839C46.1217 25.1597 47.1914 26.3999 48.5541 26.8453C49.2334 27.061 49.986 27.0846 50.6581 26.8242C51.3339 26.5731 51.9043 26.0441 52.2322 25.3633C52.2643 25.2969 52.3448 25.2687 52.4119 25.3001C52.4721 25.3287 52.5014 25.3955 52.4837 25.4573V25.4583C52.256 26.247 51.6643 26.9517 50.8872 27.3321C50.109 27.7186 49.1815 27.7704 48.3466 27.5507C46.6604 27.1106 45.3208 25.6562 45.0044 23.9375C44.8493 23.0809 44.968 22.1573 45.4045 21.3686C45.6289 20.979 45.9348 20.6343 46.2927 20.3625C46.6431 20.0828 47.0644 19.8838 47.4952 19.7799C47.9274 19.6699 48.3755 19.6431 48.8084 19.6917C49.2417 19.7428 49.6595 19.8649 50.0466 20.0414C50.8187 20.4021 51.4656 20.9811 51.8963 21.6758C51.9447 21.7537 51.9201 21.8558 51.8411 21.9037C51.7708 21.9466 51.6809 21.9315 51.6279 21.8723L51.6261 21.8701V21.8708Z" fill="#371A45"/>
<path d="M41.8462 40.6254C43.1338 41.2962 44.1389 42.2756 44.701 43.5257C45.7191 45.7909 44.9975 48.294 43.1356 50.4978C41.9136 51.9437 40.179 53.2027 38.0717 54.0482C32.7524 56.182 27.0731 54.8708 25.3868 51.1197C24.7594 49.7238 24.7731 48.1869 25.3121 46.6967C26.2213 44.1825 28.6763 41.9369 32.0164 40.5972" fill="#5FCFBE"/>
<path d="M44.903 43.4369C45.1877 43.973 45.3843 44.5648 45.4677 45.1774C45.5553 45.7896 45.5272 46.4175 45.4179 47.0262C45.1881 48.2474 44.6242 49.376 43.9055 50.3604C43.194 51.3559 42.2943 52.2131 41.3126 52.9382C40.3219 53.6554 39.2341 54.2326 38.0959 54.6709C35.8194 55.5338 33.2994 55.866 30.88 55.3913C29.6754 55.1577 28.4996 54.7091 27.4822 54.0108C26.4716 53.3107 25.6386 52.327 25.2244 51.1912C25.1909 51.0994 25.2389 50.998 25.332 50.9648C25.416 50.9348 25.508 50.9708 25.5495 51.0466L25.5502 51.0476C26.0961 52.0406 26.9208 52.8375 27.8884 53.385C28.8542 53.9394 29.9427 54.2637 31.0488 54.4244C32.1582 54.5737 33.2925 54.5769 34.4059 54.4176C35.5189 54.2622 36.6192 53.9894 37.6644 53.5708C38.715 53.1682 39.7179 52.6449 40.6336 52.0034C41.5554 51.3684 42.3805 50.6094 43.0804 49.7439C43.7713 48.8756 44.3406 47.9059 44.6224 46.8508C44.9175 45.8007 44.8868 44.6688 44.4993 43.6147V43.6137C44.4571 43.4997 44.5166 43.374 44.6314 43.3326C44.7367 43.2947 44.8525 43.3408 44.903 43.4365V43.4369Z" fill="#371A45"/>
<g opacity="0.35">
<path d="M34.1256 41.6548C38.3878 40.7715 42.2528 42.5717 42.7586 45.6759C43.2644 48.7802 40.2191 52.0126 35.9569 52.896C31.6946 53.7793 27.8296 51.9791 27.3238 48.8748C26.818 45.7706 29.8633 42.5381 34.1256 41.6548Z" fill="#371A45"/>
</g>
<path d="M34.3953 44.6762C38.0533 44.1958 41.1393 45.6799 41.288 47.9916C41.4366 50.3029 38.5919 52.5663 34.9336 53.0467C31.2757 53.5271 28.1896 52.0431 28.041 49.7314C27.8923 47.4201 30.7371 45.1567 34.3953 44.6762Z" fill="#5FCFBE"/>
<path d="M29.7821 52.5503C29.4412 52.3867 29.1097 52.1956 28.8044 51.9642C28.4996 51.7324 28.2214 51.4623 27.9772 51.1619C27.4898 50.5601 27.1629 49.8214 27.0464 49.0457C26.9352 48.2688 27.0316 47.4705 27.2805 46.7358C27.5323 46.0007 27.9176 45.3189 28.391 44.7131C29.3359 43.4937 30.608 42.5668 31.9887 41.9142C33.3758 41.2742 34.8936 40.8873 36.4388 40.8645C37.2102 40.8555 37.9866 40.9306 38.7435 41.1177C39.4997 41.3017 40.2378 41.6024 40.898 42.0417C41.5583 42.4775 42.133 43.0686 42.5215 43.7705C42.9144 44.4688 43.102 45.2767 43.08 46.0661C43.0602 46.8572 42.8452 47.6259 42.5003 48.3131C42.1579 49.0032 41.7029 49.6257 41.174 50.1686C40.1105 51.2495 38.7983 52.0527 37.3927 52.5492C37.3227 52.5739 37.2459 52.5378 37.2206 52.4685C37.1972 52.4031 37.2293 52.3314 37.2917 52.3024C38.6118 51.6988 39.8316 50.8716 40.7595 49.7947C41.2245 49.2607 41.6207 48.6717 41.8988 48.037C42.1781 47.4048 42.3451 46.729 42.3379 46.0586C42.3357 45.3889 42.151 44.7345 41.8187 44.1619C41.4861 43.5897 41.0012 43.1065 40.4283 42.745C39.2785 42.0185 37.8538 41.7192 36.4547 41.7524C35.0495 41.7814 33.6453 42.1189 32.3621 42.7075C31.0755 43.2854 29.903 44.128 29.0144 45.201C28.5685 45.735 28.2091 46.3357 27.9638 46.9744C27.7156 47.6119 27.6041 48.2984 27.6698 48.9714C27.7304 49.6436 27.97 50.3054 28.3715 50.8687C28.7738 51.4316 29.3207 51.8985 29.9376 52.2578L29.9398 52.2588C30.0192 52.3053 30.0455 52.4064 29.999 52.4849C29.9546 52.5596 29.8597 52.5867 29.7825 52.5499L29.7821 52.5503Z" fill="#371A45"/>
</svg>
