<svg width="42" height="41" viewBox="0 0 42 41" fill="none" xmlns="http://www.w3.org/2000/svg">
<g style="mix-blend-mode:soft-light">
<path d="M41.5403 19.0485C41.4595 17.886 41.2782 16.7236 40.9921 15.5762C40.5472 13.7847 39.8522 12.0231 38.892 10.3394C37.9752 8.73512 36.8758 7.30159 35.634 6.05081C33.4784 3.8758 30.8915 2.25203 28.0963 1.23642C25.0315 0.12495 21.7166 -0.257028 18.4346 0.171384C16.7015 0.396075 14.9758 0.848458 13.3041 1.53751C12.4982 1.87005 11.7058 2.25652 10.9284 2.69842C10.7127 2.82275 10.497 2.95007 10.2888 3.07889C9.34656 3.66309 8.46727 4.3087 7.65389 5.01423C5.81442 6.60505 4.31197 8.48497 3.17054 10.5431C2.62379 11.5273 2.16093 12.5549 1.78644 13.6109C1.34905 14.8362 1.02848 16.102 0.830756 17.3887C0.495217 19.5518 0.50571 21.7792 0.884689 23.9797C1.25618 26.1367 1.98267 28.2728 3.08666 30.298C3.15257 30.4193 3.22148 30.5407 3.28889 30.662C4.49323 32.7711 6.01664 34.5881 7.76474 36.0816C8.14372 36.4066 8.53618 36.7167 8.93613 37.0103C9.81692 37.6574 10.7426 38.2311 11.7073 38.7239C15.9495 40.9034 20.8912 41.5745 25.6427 40.49C27.5451 40.0571 29.419 39.3411 31.2015 38.3285C31.218 38.3195 31.236 38.3105 31.254 38.3C34.479 36.4575 37.0151 33.8721 38.7677 30.8837C39.8447 29.0472 40.6266 27.0565 41.0895 24.9938C41.5269 23.054 41.6826 21.0527 41.5418 19.047L41.5403 19.0485ZM30.514 37.0103C30.4975 37.0193 30.4825 37.0283 30.4646 37.0373C28.8123 37.975 27.0747 38.64 25.3101 39.0415C20.9032 40.0466 16.321 39.425 12.3859 37.4042C11.4931 36.9459 10.6333 36.4141 9.81692 35.8149C9.44543 35.5423 9.08143 35.2532 8.72941 34.9521C7.10864 33.5665 5.69608 31.8828 4.57861 29.925C4.5157 29.8127 4.45129 29.7018 4.39137 29.588C3.36827 27.7096 2.6927 25.7308 2.34967 23.728C1.99915 21.6863 1.98867 19.6237 2.30024 17.6164C2.48299 16.4226 2.77958 15.2482 3.18553 14.1127C3.53455 13.1346 3.96296 12.1804 4.47076 11.2681C5.52831 9.35977 6.9229 7.61766 8.62755 6.14069C9.38252 5.48608 10.1974 4.88691 11.0707 4.34615C11.2639 4.22482 11.4647 4.10648 11.6654 3.99114C12.3844 3.5807 13.1199 3.2212 13.8674 2.91412C15.4177 2.2745 17.016 1.85657 18.6233 1.64836C21.6671 1.2499 24.7424 1.60342 27.5825 2.6355C30.177 3.57771 32.5752 5.08314 34.5749 7.09937C35.7283 8.26027 36.7454 9.58895 37.5963 11.0779C38.4875 12.6388 39.1317 14.2715 39.5436 15.9327C39.8102 16.9978 39.9795 18.0763 40.0529 19.1533C40.1832 21.0123 40.0394 22.8712 39.635 24.6687C39.2036 26.5816 38.4785 28.4271 37.4794 30.1302C35.8557 32.9044 33.5024 35.3011 30.5125 37.0088L30.514 37.0103Z" fill="white"/>
</g>
<g style="mix-blend-mode:soft-light">
<path d="M40.5277 19.1205C40.4528 18.0165 40.2805 16.9125 40.0064 15.8205C39.584 14.1173 38.9234 12.4426 38.0097 10.8428C37.1394 9.31792 36.0938 7.95629 34.9119 6.76692C32.8627 4.69976 30.4046 3.15539 27.7458 2.19071C24.8338 1.13317 21.6821 0.77216 18.5634 1.1781C16.9141 1.39231 15.2754 1.82072 13.6876 2.47682C12.9221 2.79139 12.1672 3.15988 11.4302 3.5808C11.225 3.69914 11.0197 3.81897 10.8205 3.9448C9.92474 4.49904 9.09039 5.1132 8.31745 5.78428C6.56935 7.2972 5.14031 9.08275 4.0558 11.0391C3.53601 11.9753 3.09562 12.9519 2.73911 13.9556C2.32418 15.121 2.02009 16.3238 1.83285 17.5461C1.51379 19.6043 1.52428 21.7194 1.88378 23.8105C2.2358 25.8642 2.92785 27.8924 3.9779 29.8173C4.03932 29.9311 4.10373 30.0479 4.16815 30.1618C5.31407 32.169 6.76259 33.8932 8.42231 35.3132C8.78331 35.6218 9.15629 35.9169 9.53677 36.1955C10.3741 36.8112 11.2549 37.3549 12.1702 37.8253C16.2026 39.8954 20.9002 40.5336 25.4165 39.503C27.2245 39.091 29.004 38.411 30.6997 37.4478C30.7162 37.4403 30.7327 37.4313 30.7491 37.4223C33.8154 35.6712 36.2271 33.2131 37.8913 30.3715C38.9159 28.6249 39.6589 26.7345 40.0993 24.7722C40.5142 22.9297 40.6625 21.0258 40.5277 19.119V19.1205ZM37.8344 24.2644C37.4449 25.9915 36.7903 27.6572 35.8886 29.1941C34.4221 31.6987 32.298 33.8617 29.5987 35.4046C29.5837 35.4121 29.5702 35.4211 29.5538 35.4286C28.0618 36.2749 26.4935 36.8756 24.9012 37.2381C20.9226 38.1443 16.7868 37.5841 13.2337 35.7596C12.4278 35.3462 11.6519 34.8653 10.9149 34.3246C10.5793 34.0789 10.2498 33.8168 9.93373 33.5456C8.47024 32.2949 7.19549 30.7745 6.18737 29.0084C6.13045 28.908 6.07353 28.8062 6.0181 28.7043C5.09387 27.0086 4.48571 25.2216 4.17413 23.4136C3.85807 21.5711 3.84758 19.7076 4.1292 17.8966C4.29397 16.8181 4.56211 15.7591 4.9276 14.733C5.24217 13.8492 5.63014 12.9879 6.08851 12.164C7.0442 10.4414 8.30247 8.86854 9.84085 7.53537C10.5224 6.94518 11.2579 6.40293 12.0473 5.9146C12.2226 5.80525 12.4023 5.69889 12.5836 5.59404C13.2322 5.22405 13.8973 4.89899 14.5714 4.62188C15.9704 4.04367 17.4145 3.66769 18.866 3.47894C21.6132 3.11944 24.3904 3.4385 26.9548 4.37022C29.2976 5.22105 31.4622 6.57969 33.2672 8.39969C34.3082 9.44825 35.228 10.6466 35.9949 11.9917C36.7993 13.4013 37.382 14.8738 37.7535 16.3747C37.9932 17.3364 38.146 18.3101 38.2134 19.2822C38.3302 20.9614 38.2014 22.6391 37.8359 24.2614L37.8344 24.2644Z" fill="white"/>
</g>
<path d="M14.2299 33.8258C13.5258 33.4648 12.8473 33.0454 12.2047 32.5721C11.9111 32.3579 11.6249 32.1302 11.3478 31.892C10.0701 30.8 8.95711 29.4728 8.07632 27.9299C8.02689 27.8416 7.97746 27.7532 7.92952 27.6648C7.12213 26.1848 6.59186 24.624 6.31924 23.0451C6.04212 21.4364 6.03463 19.8096 6.28029 18.2263C6.42409 17.2856 6.65778 16.3613 6.97834 15.4641C7.25246 14.6911 7.59099 13.9406 7.99095 13.2216C8.8253 11.7177 9.92479 10.3441 11.2684 9.18019C11.8631 8.66489 12.5057 8.19154 13.1948 7.76463C13.3476 7.66876 13.5049 7.57589 13.6637 7.48451C14.2314 7.16096 14.8111 6.87785 15.3998 6.63518C16.6221 6.13038 17.8819 5.80083 19.1506 5.63605C21.5503 5.32298 23.974 5.6016 26.2134 6.41499C28.2581 7.15797 30.1485 8.34433 31.7243 9.93365C32.6336 10.8489 33.4365 11.896 34.1061 13.0688C34.8086 14.2987 35.3164 15.5869 35.6415 16.8961C35.8512 17.7364 35.983 18.5858 36.0414 19.4351C36.1448 20.9016 36.0309 22.3651 35.7119 23.7836C35.3733 25.2921 34.8011 26.7466 34.0132 28.0887C32.7325 30.2742 30.878 32.1646 28.5202 33.5113C28.5068 33.5188 28.4948 33.5247 28.4813 33.5322C27.1781 34.2722 25.809 34.795 24.4174 35.1126C20.9437 35.905 17.3306 35.4151 14.2284 33.8228L14.2299 33.8258Z" fill="url(#paint0_linear_307_3231)"/>
<g style="mix-blend-mode:multiply" opacity="0.26">
<path d="M14.2299 33.8257C13.5258 33.4647 12.8473 33.0453 12.2047 32.5719C16.8243 31.7151 21.1998 29.6974 24.6525 26.5202C29.2108 22.3245 31.8801 16.0691 31.7228 9.93652C32.6321 10.8518 33.435 11.8988 34.1046 13.0717C34.8071 14.3015 35.3149 15.5898 35.64 16.899C35.8497 17.7393 35.9815 18.5886 36.0399 19.438C36.1433 20.9045 36.0294 22.3679 35.7104 23.7865C35.3718 25.2949 34.7996 26.7494 34.0117 28.0916C32.731 30.2771 30.8765 32.1675 28.5187 33.5141C28.5053 33.5216 28.4933 33.5276 28.4798 33.5351C27.1766 34.2751 25.8075 34.7979 24.4159 35.1154C20.9421 35.9079 17.3291 35.418 14.2269 33.8257H14.2299Z" fill="#351A65"/>
</g>
<g style="mix-blend-mode:multiply" opacity="0.26">
<path d="M6.31771 23.045C6.04059 21.4362 6.0331 19.8094 6.27876 18.2261C6.833 18.3085 7.37975 18.4298 7.77072 18.8118C8.5826 19.5997 8.23209 20.9958 7.57 21.914C7.24494 22.3634 6.80754 22.7798 6.31771 23.045Z" fill="#351A65"/>
</g>
<g style="mix-blend-mode:multiply" opacity="0.26">
<path d="M11.3463 31.893C10.0686 30.801 8.95562 29.4738 8.07483 27.9309C8.0254 27.8425 7.97596 27.7542 7.92802 27.6658C8.36093 26.4255 10.0836 26.1439 11.0902 25.2361C11.8676 24.5336 12.1972 23.3727 11.9036 22.3661C11.5426 21.1363 10.3442 20.0787 10.6123 18.8249C10.6753 18.5313 10.8191 18.2527 10.8176 17.9531C10.8146 17.321 10.1974 16.8896 9.63718 16.5975C8.90019 16.214 8.13774 15.88 7.35731 15.5954C7.23148 15.5504 7.10566 15.5055 6.97833 15.4665C7.25246 14.6936 7.59099 13.9431 7.99094 13.2241C8.21563 13.3649 8.46129 13.4728 8.72343 13.5402C9.78547 13.8143 11.2325 13.5776 11.6954 14.5708C11.8466 14.8958 11.8302 15.2673 11.8706 15.6238C12.0249 16.969 12.9986 18.0595 13.5348 19.3028C14.3542 21.1977 14.0801 23.524 12.8428 25.1762C12.5177 25.6121 12.1313 26.0031 11.8481 26.4674C11.2205 27.4965 11.1681 28.7713 11.2355 29.9741C11.2714 30.6122 11.3343 31.2564 11.3493 31.896L11.3463 31.893Z" fill="#351A65"/>
</g>
<g style="mix-blend-mode:multiply" opacity="0.26">
<path d="M28.4813 33.5363C28.4798 33.1079 28.5008 32.6809 28.5472 32.2555C28.7075 30.7651 29.1628 29.2956 29.076 27.7976C28.9876 26.3012 28.1517 24.6864 26.6897 24.3524C24.5866 23.87 22.8595 26.1709 20.7309 26.5244C19.5985 26.7116 18.3822 26.2877 17.6122 25.4369C16.8408 24.5846 16.5412 23.3323 16.8423 22.2238C17.025 21.5452 17.4145 20.9356 17.5957 20.254C17.8444 19.3268 17.6931 18.3426 17.4984 17.4019C17.3141 16.5136 17.073 15.5939 16.4723 14.9138C15.1631 13.4339 12.4997 13.4578 11.6294 11.6828C11.2564 10.9203 11.3388 10.0291 11.2684 9.17972C11.8631 8.66443 12.5057 8.19107 13.1948 7.76416C13.2128 7.91845 13.2382 8.07274 13.2727 8.22553C13.4689 9.09134 14.0007 9.93318 14.8245 10.2642C15.9031 10.6971 17.4205 10.2972 18.0526 11.2708C18.2578 11.5854 18.3028 11.9749 18.3432 12.3494C18.5679 14.4285 18.8465 16.5616 19.8471 18.3981C20.8478 20.2345 22.7427 21.7325 24.8338 21.6591C26.119 21.6141 27.3743 20.9925 28.6461 21.1887C30.4496 21.4658 31.585 23.2259 32.4823 24.8152C33.074 25.8653 33.6762 26.9423 34.0147 28.0897C32.7339 30.2752 30.8795 32.1656 28.5217 33.5123C28.5083 33.5198 28.4963 33.5258 28.4828 33.5333L28.4813 33.5363Z" fill="#351A65"/>
</g>
<g style="mix-blend-mode:multiply" opacity="0.26">
<path d="M14.2298 33.8254C14.1564 32.9416 14.3332 32.0519 14.5684 31.195C14.6642 30.84 14.7826 30.4715 15.0507 30.2214C15.5555 29.751 16.4198 29.8529 16.9111 29.3705C17.1718 29.1144 17.3096 28.71 17.6526 28.5811C17.8579 28.5047 18.093 28.5512 18.2893 28.6485C19.1671 29.0844 19.4127 30.3966 20.3549 30.6678C20.9631 30.843 21.5817 30.497 22.1599 30.2409C22.7381 29.9832 23.5036 29.8394 23.932 30.3038C24.2361 30.6333 24.2376 31.1411 24.1417 31.5785C24.0458 32.0174 23.8721 32.4473 23.8916 32.8952C23.9185 33.5483 24.281 34.155 24.3799 34.8006C24.3964 34.9084 24.4084 35.0133 24.4203 35.1167C20.9466 35.9091 17.3336 35.4192 14.2313 33.8269L14.2298 33.8254Z" fill="#351A65"/>
</g>
<g style="mix-blend-mode:multiply" opacity="0.26">
<path d="M33.9578 16.6694C32.2037 16.3773 30.3192 17.0109 28.6655 16.3578C27.7862 16.0118 27.0567 15.3063 26.6792 14.439C26.4171 13.8368 26.3212 13.1687 26.0112 12.5905C25.5483 11.7322 24.681 11.1854 23.9665 10.5203C23.8257 10.3885 23.6864 10.2462 23.6175 10.0665C23.4826 9.71595 23.6519 9.31151 23.914 9.04038C24.1747 8.76925 24.5147 8.59249 24.8188 8.37229C25.4779 7.89445 25.9692 7.19341 26.2104 6.41748C29.431 7.58737 32.2711 9.86275 34.1045 13.0728C34.8071 14.3026 35.3149 15.5909 35.6399 16.9001C35.0827 16.9495 34.5165 16.7638 33.9578 16.6694Z" fill="#351A65"/>
</g>
<g style="mix-blend-mode:multiply" opacity="0.26">
<path d="M17.5568 8.65107C17.2617 8.61362 16.9666 8.55969 16.6985 8.43386C16.3959 8.29156 16.1382 8.06537 15.927 7.80622C15.6814 7.50963 15.4866 7.15912 15.4177 6.78014C15.4087 6.7322 15.4027 6.68427 15.3983 6.63633C16.6206 6.13153 17.8804 5.80198 19.1491 5.63721C19.2704 5.84542 19.4232 6.04015 19.5655 6.23488C19.8037 6.56293 20.0284 6.93143 20.0239 7.33737C20.0194 7.86615 19.6075 8.32601 19.1191 8.52823C18.6308 8.73046 18.0811 8.71698 17.5583 8.65107H17.5568Z" fill="#351A65"/>
</g>
<g style="mix-blend-mode:multiply" opacity="0.26">
<path d="M23.2774 13.4309C22.8939 13.0129 22.3741 12.7718 21.5098 12.9276C20.9496 13.0294 20.4373 13.4189 20.2351 13.9521C19.8501 14.9618 20.9796 16.7937 21.393 17.694C21.5173 17.9651 21.6461 18.2363 21.8334 18.4684C22.4116 19.1875 23.4047 19.3912 24.314 19.547C25.0674 19.6758 25.9677 19.7327 26.3572 18.9388C26.6043 18.4355 26.5953 17.4753 26.3077 16.984C25.9243 16.3294 25.0465 16.1032 24.5791 15.507C24.0563 14.8419 23.7852 13.9821 23.2789 13.4309H23.2774Z" fill="#351A65"/>
</g>
<g style="mix-blend-mode:multiply" opacity="0.26">
<path d="M35.7103 23.7877C35.2639 23.7008 34.8415 23.5091 34.5 23.2095C33.8034 22.5999 33.5248 21.6561 33.2791 20.7649C33.1114 20.1597 32.9766 19.4197 33.423 18.9793C33.751 18.6573 34.2798 18.6378 34.7187 18.7786C35.1561 18.9194 35.538 19.189 35.95 19.3942C35.9799 19.4092 36.0099 19.4242 36.0414 19.4377C36.1447 20.9042 36.0309 22.3677 35.7118 23.7862L35.7103 23.7877Z" fill="#351A65"/>
</g>
<g style="mix-blend-mode:multiply" opacity="0.26">
<path d="M9.47985 12.261C9.45289 12.3763 9.47536 12.5096 9.55924 12.5935C9.5907 12.6265 9.62964 12.6504 9.67159 12.6699C9.69555 12.6819 9.72102 12.6924 9.74648 12.7029C9.88429 12.7568 10.0356 12.8002 10.1809 12.7628C10.8774 12.586 9.67308 11.4431 9.48134 12.261H9.47985Z" fill="#351A65"/>
</g>
<g style="mix-blend-mode:multiply" opacity="0.26">
<path d="M13.4929 14.4166C13.352 14.526 13.3131 14.7192 13.2831 14.8944C13.2292 15.2165 13.1738 15.5386 13.1199 15.8606C13.0719 16.1407 13.0285 16.4448 13.1663 16.6935C13.2906 16.9182 13.5378 17.0455 13.782 17.1279C14.077 17.2282 14.4201 17.2762 14.6897 17.1189C15.223 16.8088 15.4851 15.6734 15.1691 15.1446C14.9399 14.7596 13.8988 14.099 13.4929 14.4151V14.4166Z" fill="#351A65"/>
</g>
<g style="mix-blend-mode:multiply" opacity="0.26">
<path d="M8.659 18.0103C8.659 18.0747 8.659 18.1421 8.68896 18.1991C8.73839 18.2949 8.85523 18.3369 8.96308 18.3459C9.47388 18.3863 9.98318 17.7572 9.57574 17.3273C9.44991 17.1954 9.07093 17.0022 8.88519 17.0891C8.65151 17.1984 8.66199 17.7826 8.659 18.0088V18.0103Z" fill="#351A65"/>
</g>
<g style="mix-blend-mode:multiply" opacity="0.26">
<path d="M9.75098 23.0795C9.60418 22.9882 9.43491 22.9148 9.26265 22.9357C8.99152 22.9702 8.80877 23.2203 8.58558 23.3776C8.24854 23.6143 7.75422 23.6862 7.58944 24.0622C7.48758 24.2914 7.55349 24.564 7.67782 24.7812C7.87106 25.1197 8.2081 25.3759 8.58858 25.4658C8.96905 25.5541 9.38698 25.4718 9.70005 25.2366C10.0506 24.9744 10.3007 24.5071 10.4041 24.0847C10.5059 23.6667 10.0835 23.2878 9.75247 23.0795H9.75098Z" fill="#351A65"/>
</g>
<g style="mix-blend-mode:multiply" opacity="0.26">
<path d="M19.2689 9.55726C19.0712 9.95571 19.1446 10.45 19.8561 10.2658C20.2905 10.1549 20.5242 9.59321 20.1677 9.25468C19.8262 8.93112 19.4427 9.20675 19.2689 9.55577V9.55726Z" fill="#351A65"/>
</g>
<g style="mix-blend-mode:multiply" opacity="0.26">
<path d="M19.5371 12.0996C19.5176 12.0921 19.4996 12.0861 19.4786 12.0801C19.4262 12.1235 19.3468 12.134 19.2974 12.1864C19.2629 12.2239 19.2465 12.2748 19.233 12.3242C19.1551 12.5999 19.0907 12.88 19.0442 13.1616C19.0323 13.235 19.0203 13.3114 19.0308 13.3848C19.0622 13.605 19.3184 13.7623 19.5296 13.6919C19.7018 13.6349 19.8097 13.4642 19.8906 13.3009C20.1138 12.8425 20.0703 12.2958 19.5371 12.0981V12.0996Z" fill="#351A65"/>
</g>
<defs>
<linearGradient id="paint0_linear_307_3231" x1="30.6414" y1="26.3369" x2="8.33013" y2="12.7161" gradientUnits="userSpaceOnUse">
<stop stop-color="#5720D9"/>
<stop offset="1" stop-color="#E51BB6"/>
</linearGradient>
</defs>
</svg>
