<svg width="28" height="29" viewBox="0 0 28 29" fill="none" xmlns="http://www.w3.org/2000/svg">
<g style="mix-blend-mode:soft-light">
<path d="M27.9698 13.6634C27.9145 12.8696 27.7907 12.0757 27.5953 11.2921C27.2915 10.0685 26.8168 8.86547 26.1611 7.7156C25.535 6.61995 24.7841 5.64091 23.936 4.78669C22.4639 3.30127 20.6971 2.19232 18.7882 1.49871C16.6951 0.739631 14.4311 0.47876 12.1897 0.771343C11.0061 0.924796 9.82755 1.23375 8.68586 1.70434C8.13548 1.93145 7.5943 2.19539 7.06335 2.49718C6.91604 2.58209 6.76872 2.66904 6.62652 2.75702C5.98304 3.156 5.38253 3.59692 4.82703 4.07877C3.57077 5.16521 2.54467 6.4491 1.76513 7.85473C1.39173 8.52685 1.07562 9.22864 0.819863 9.94987C0.521141 10.7867 0.302214 11.6512 0.167176 12.5299C-0.0619806 14.0072 -0.0548147 15.5284 0.204009 17.0312C0.457718 18.5044 0.953877 19.9632 1.70784 21.3463C1.75286 21.4292 1.79992 21.512 1.84595 21.5949C2.66846 23.0353 3.70887 24.2762 4.90274 25.2962C5.16156 25.5182 5.42959 25.7299 5.70274 25.9305C6.30427 26.3724 6.9365 26.7642 7.59532 27.1008C10.4925 28.5893 13.8675 29.0476 17.1125 28.3069C18.4117 28.0113 19.6915 27.5223 20.9089 26.8307C20.9201 26.8246 20.9324 26.8184 20.9447 26.8113C23.1473 25.553 24.8792 23.7872 26.0762 21.7463C26.8117 20.4921 27.3457 19.1325 27.6618 17.7238C27.9606 16.399 28.067 15.0322 27.9708 13.6624L27.9698 13.6634ZM20.4393 25.9305C20.4281 25.9366 20.4178 25.9427 20.4056 25.9489C19.2772 26.5893 18.0905 27.0435 16.8854 27.3177C13.8756 28.0041 10.7462 27.5796 8.05875 26.1995C7.44903 25.8865 6.86182 25.5233 6.30427 25.1141C6.05056 24.9279 5.80197 24.7305 5.56156 24.5248C4.45465 23.5785 3.48994 22.4287 2.72677 21.0916C2.6838 21.0149 2.63982 20.9391 2.59889 20.8614C1.90017 19.5785 1.43879 18.2271 1.20452 16.8593C0.965132 15.465 0.957969 14.0563 1.17076 12.6854C1.29557 11.8701 1.49813 11.068 1.77537 10.2926C2.01373 9.62456 2.30631 8.97289 2.65312 8.34987C3.37537 7.04655 4.3278 5.85677 5.492 4.84808C6.0076 4.40102 6.56412 3.99181 7.16054 3.6225C7.29251 3.53964 7.42959 3.45882 7.56668 3.38004C8.05772 3.09974 8.56003 2.85421 9.07052 2.64449C10.1293 2.20767 11.2209 1.92224 12.3186 1.78004C14.3974 1.50792 16.4976 1.74935 18.4373 2.45421C20.2091 3.09769 21.847 4.12582 23.2127 5.50281C24.0005 6.29565 24.6951 7.20307 25.2762 8.21995C25.8849 9.28594 26.3248 10.401 26.6061 11.5356C26.7882 12.2629 26.9038 12.9995 26.9539 13.735C27.0429 15.0046 26.9447 16.2742 26.6685 17.5018C26.3739 18.8082 25.8787 20.0686 25.1964 21.2317C24.0874 23.1264 22.4803 24.7632 20.4383 25.9294L20.4393 25.9305Z" fill="white"/>
</g>
<g style="mix-blend-mode:soft-light">
<path d="M27.2782 13.7128C27.2271 12.9589 27.1094 12.2049 26.9222 11.4591C26.6337 10.2959 26.1826 9.15222 25.5585 8.05963C24.9642 7.0182 24.2501 6.08827 23.4429 5.27599C22.0434 3.86423 20.3647 2.80949 18.5488 2.15067C16.5601 1.42842 14.4076 1.18187 12.2777 1.45911C11.1514 1.6054 10.0322 1.89798 8.94778 2.34607C8.42502 2.5609 7.90941 2.81256 7.40609 3.10003C7.26593 3.18085 7.12578 3.26269 6.98972 3.34862C6.37795 3.72714 5.80814 4.14658 5.28026 4.60489C4.08639 5.63814 3.11043 6.85758 2.36977 8.19365C2.01478 8.83303 1.71401 9.50004 1.47054 10.1855C1.18716 10.9814 0.979481 11.8029 0.851604 12.6376C0.6337 14.0433 0.640864 15.4878 0.886389 16.9159C1.1268 18.3185 1.59943 19.7036 2.31657 21.0182C2.35851 21.096 2.4025 21.1758 2.44649 21.2535C3.2291 22.6244 4.21837 23.8018 5.35187 24.7717C5.59842 24.9824 5.85314 25.184 6.11299 25.3742C6.68486 25.7947 7.2864 26.166 7.91146 26.4873C10.6654 27.9011 13.8736 28.3369 16.958 27.6331C18.1928 27.3517 19.4082 26.8873 20.5662 26.2295C20.5775 26.2244 20.5887 26.2182 20.6 26.2121C22.6941 25.0162 24.3412 23.3374 25.4777 21.3967C26.1775 20.2039 26.6849 18.9128 26.9857 17.5727C27.269 16.3144 27.3703 15.0141 27.2782 13.7118V13.7128ZM25.4389 17.2259C25.1729 18.4054 24.7258 19.543 24.1099 20.5926C23.1084 22.3031 21.6578 23.7804 19.8143 24.8341C19.8041 24.8392 19.7948 24.8453 19.7836 24.8504C18.7647 25.4285 17.6936 25.8387 16.6061 26.0863C13.889 26.7052 11.0644 26.3226 8.63781 25.0765C8.08742 24.7942 7.5575 24.4658 7.05417 24.0965C6.82501 23.9287 6.59995 23.7497 6.38409 23.5645C5.3846 22.7103 4.51401 21.6719 3.82552 20.4658C3.78665 20.3972 3.74777 20.3277 3.70992 20.2581C3.07872 19.1001 2.66337 17.8796 2.45058 16.6448C2.23473 15.3865 2.22757 14.1139 2.41989 12.877C2.53243 12.1405 2.71555 11.4172 2.96516 10.7164C3.18 10.1128 3.44496 9.5246 3.758 8.96193C4.41069 7.78546 5.27003 6.71129 6.32067 5.8008C6.78614 5.39773 7.28844 5.0274 7.82757 4.6939C7.94727 4.61922 8.07003 4.54658 8.19381 4.47497C8.63678 4.22228 9.091 4.00029 9.55136 3.81103C10.5069 3.41615 11.4931 3.15937 12.4844 3.03047C14.3606 2.78494 16.2573 3.00284 18.0087 3.63916C19.6087 4.22024 21.0869 5.14812 22.3197 6.39109C23.0307 7.1072 23.6588 7.92561 24.1826 8.84428C24.7319 9.80695 25.1299 10.8126 25.3836 11.8376C25.5473 12.4944 25.6516 13.1594 25.6977 13.8233C25.7775 14.9701 25.6895 16.1159 25.4399 17.2238L25.4389 17.2259Z" fill="white"/>
</g>
<path d="M9.31805 23.7553C8.83723 23.5087 8.37381 23.2223 7.93493 22.899C7.73442 22.7527 7.53902 22.5972 7.34976 22.4345C6.47713 21.6888 5.71702 20.7824 5.11549 19.7287C5.08173 19.6683 5.04797 19.6079 5.01523 19.5476C4.46383 18.5368 4.10168 17.4709 3.91549 16.3926C3.72623 15.2939 3.72111 14.1829 3.88889 13.1015C3.9871 12.4591 4.14669 11.8279 4.36562 11.2151C4.55283 10.6872 4.78403 10.1747 5.05718 9.68363C5.627 8.65652 6.3779 7.71841 7.29555 6.92353C7.70169 6.57161 8.14056 6.24833 8.61115 5.95677C8.7155 5.8913 8.82291 5.82787 8.93135 5.76547C9.31908 5.5445 9.71498 5.35115 10.117 5.18542C10.9518 4.84066 11.8122 4.61559 12.6787 4.50306C14.3176 4.28925 15.9728 4.47953 17.5022 5.03503C18.8986 5.54245 20.1897 6.35268 21.2659 7.4381C21.8869 8.06317 22.4352 8.77826 22.8925 9.57928C23.3723 10.4192 23.7191 11.299 23.9411 12.1931C24.0843 12.767 24.1743 13.3471 24.2142 13.9271C24.2848 14.9287 24.2071 15.9281 23.9892 16.8969C23.758 17.9271 23.3672 18.9205 22.8291 19.8371C21.9544 21.3297 20.6879 22.6207 19.0777 23.5404C19.0685 23.5455 19.0603 23.5496 19.0511 23.5547C18.161 24.0601 17.226 24.4172 16.2756 24.634C13.9032 25.1752 11.4357 24.8407 9.31703 23.7532L9.31805 23.7553Z" fill="url(#paint0_linear_307_3211)"/>
<g style="mix-blend-mode:multiply" opacity="0.26">
<path d="M9.31805 23.7555C8.83724 23.509 8.37381 23.2225 7.93494 22.8993C11.0899 22.3141 14.0782 20.9361 16.4362 18.7663C19.5493 15.9008 21.3723 11.6287 21.2649 7.44043C21.8858 8.06549 22.4342 8.78059 22.8915 9.58161C23.3713 10.4215 23.7181 11.3013 23.9401 12.1954C24.0833 12.7693 24.1733 13.3494 24.2132 13.9294C24.2838 14.931 24.2061 15.9305 23.9882 16.8993C23.7569 17.9294 23.3662 18.9228 22.828 19.8394C21.9534 21.332 20.6869 22.6231 19.0766 23.5428C19.0674 23.5479 19.0592 23.552 19.05 23.5571C18.16 24.0624 17.225 24.4195 16.2746 24.6364C13.9022 25.1775 11.4347 24.843 9.31601 23.7555H9.31805Z" fill="#351A65"/>
</g>
<g style="mix-blend-mode:multiply" opacity="0.26">
<path d="M3.91451 16.3931C3.72525 15.2944 3.72014 14.1834 3.88791 13.1021C4.26643 13.1583 4.63983 13.2412 4.90684 13.5021C5.46132 14.0402 5.22193 14.9936 4.76976 15.6207C4.54776 15.9276 4.24904 16.212 3.91451 16.3931Z" fill="#351A65"/>
</g>
<g style="mix-blend-mode:multiply" opacity="0.26">
<path d="M7.34878 22.4359C6.47615 21.6901 5.71605 20.7838 5.11451 19.73C5.08075 19.6697 5.04699 19.6093 5.01425 19.549C5.3099 18.7019 6.48638 18.5096 7.17385 17.8896C7.7048 17.4098 7.92986 16.617 7.72935 15.9295C7.4828 15.0896 6.66439 14.3674 6.84751 13.5111C6.89047 13.3106 6.98868 13.1203 6.98766 12.9157C6.98561 12.484 6.56413 12.1894 6.18152 11.9899C5.6782 11.728 5.15748 11.4998 4.62448 11.3055C4.53855 11.2748 4.45262 11.2441 4.36566 11.2175C4.55287 10.6896 4.78408 10.1771 5.05722 9.68604C5.21068 9.7822 5.37845 9.85585 5.55748 9.90189C6.2828 10.0891 7.27104 9.92747 7.58715 10.6057C7.69047 10.8277 7.67922 11.0814 7.70684 11.3249C7.81221 12.2436 8.47717 12.9883 8.84341 13.8374C9.403 15.1316 9.21579 16.7203 8.37078 17.8487C8.14878 18.1464 7.88485 18.4134 7.6915 18.7305C7.26285 19.4334 7.22704 20.3039 7.27308 21.1254C7.29763 21.5612 7.3406 22.0011 7.35083 22.438L7.34878 22.4359Z" fill="#351A65"/>
</g>
<g style="mix-blend-mode:multiply" opacity="0.26">
<path d="M19.0511 23.5581C19.0501 23.2655 19.0644 22.9739 19.0961 22.6834C19.2056 21.6655 19.5166 20.6619 19.4573 19.6389C19.3969 18.6169 18.8261 17.5141 17.8276 17.2859C16.3913 16.9565 15.2117 18.5279 13.758 18.7693C12.9846 18.8972 12.1539 18.6077 11.6281 18.0266C11.1013 17.4445 10.8966 16.5893 11.1023 15.8322C11.2271 15.3688 11.4931 14.9524 11.6169 14.487C11.7867 13.8537 11.6834 13.1816 11.5504 12.5391C11.4245 11.9325 11.2598 11.3044 10.8496 10.8399C9.95547 9.82916 8.13654 9.84553 7.54217 8.63325C7.28744 8.11253 7.34371 7.50384 7.29562 6.92379C7.70176 6.57187 8.14064 6.24859 8.61123 5.95703C8.6235 6.0624 8.64089 6.16777 8.66442 6.27212C8.79843 6.86343 9.16161 7.43836 9.72427 7.66445C10.4608 7.9601 11.4972 7.68696 11.9289 8.35192C12.069 8.56675 12.0997 8.83274 12.1273 9.08849C12.2808 10.5084 12.4711 11.9652 13.1545 13.2194C13.8378 14.4737 15.132 15.4967 16.5601 15.4466C17.4378 15.4159 18.2951 14.9913 19.1637 15.1253C20.3954 15.3146 21.1708 16.5166 21.7836 17.6021C22.1877 18.3192 22.599 19.0548 22.8302 19.8384C21.9555 21.331 20.689 22.622 19.0788 23.5417C19.0696 23.5468 19.0614 23.5509 19.0522 23.556L19.0511 23.5581Z" fill="#351A65"/>
</g>
<g style="mix-blend-mode:multiply" opacity="0.26">
<path d="M9.31809 23.7556C9.26797 23.152 9.38868 22.5443 9.5493 21.9592C9.61477 21.7167 9.69559 21.4651 9.87871 21.2942C10.2235 20.973 10.8138 21.0426 11.1493 20.7131C11.3273 20.5382 11.4214 20.262 11.6557 20.174C11.7959 20.1218 11.9565 20.1536 12.0905 20.22C12.69 20.5177 12.8577 21.4139 13.5012 21.5991C13.9166 21.7188 14.3391 21.4825 14.734 21.3075C15.1288 21.1316 15.6516 21.0333 15.9442 21.3505C16.1519 21.5755 16.1529 21.9224 16.0874 22.2211C16.0219 22.5208 15.9033 22.8144 15.9166 23.1203C15.935 23.5663 16.1826 23.9807 16.2501 24.4216C16.2613 24.4952 16.2695 24.5669 16.2777 24.6374C13.9053 25.1786 11.4378 24.8441 9.31912 23.7566L9.31809 23.7556Z" fill="#351A65"/>
</g>
<g style="mix-blend-mode:multiply" opacity="0.26">
<path d="M22.7912 12.0391C21.5933 11.8396 20.3063 12.2724 19.1769 11.8264C18.5764 11.59 18.0782 11.1082 17.8204 10.5159C17.6414 10.1046 17.5759 9.64834 17.3641 9.25346C17.048 8.66727 16.4557 8.29387 15.9677 7.83965C15.8715 7.74962 15.7764 7.65244 15.7293 7.52967C15.6373 7.29029 15.7529 7.01407 15.9319 6.82891C16.1099 6.64374 16.3421 6.52302 16.5498 6.37264C16.9999 6.04629 17.3355 5.56752 17.5002 5.0376C19.6997 5.83658 21.6393 7.39054 22.8915 9.58287C23.3713 10.4228 23.7181 11.3026 23.9401 12.1967C23.5595 12.2304 23.1728 12.1036 22.7912 12.0391Z" fill="#351A65"/>
</g>
<g style="mix-blend-mode:multiply" opacity="0.26">
<path d="M11.5902 6.56271C11.3887 6.53713 11.1871 6.5003 11.004 6.41437C10.7974 6.31718 10.6214 6.16271 10.4772 5.98572C10.3094 5.78317 10.1764 5.54378 10.1293 5.28496C10.1232 5.25222 10.1191 5.21948 10.116 5.18675C10.9508 4.84199 11.8112 4.61693 12.6777 4.50439C12.7605 4.64659 12.8649 4.77959 12.9621 4.91258C13.1247 5.13662 13.2782 5.38828 13.2751 5.66552C13.272 6.02665 12.9907 6.34071 12.6572 6.47882C12.3237 6.61693 11.9483 6.60772 11.5912 6.56271H11.5902Z" fill="#351A65"/>
</g>
<g style="mix-blend-mode:multiply" opacity="0.26">
<path d="M15.4972 9.82746C15.2353 9.54204 14.8803 9.37733 14.29 9.48373C13.9074 9.55329 13.5575 9.81928 13.4194 10.1835C13.1565 10.873 13.9279 12.1241 14.2102 12.739C14.2951 12.9241 14.3831 13.1093 14.511 13.2679C14.9059 13.7589 15.5841 13.8981 16.2051 14.0045C16.7197 14.0924 17.3345 14.1313 17.6005 13.5891C17.7693 13.2454 17.7632 12.5896 17.5667 12.2541C17.3049 11.807 16.7054 11.6525 16.3862 11.2454C16.0292 10.7912 15.844 10.2039 15.4982 9.82746H15.4972Z" fill="#351A65"/>
</g>
<g style="mix-blend-mode:multiply" opacity="0.26">
<path d="M23.9882 16.9002C23.6833 16.8409 23.3948 16.7099 23.1616 16.5053C22.6859 16.089 22.4956 15.4445 22.3278 14.8358C22.2132 14.4225 22.1212 13.9171 22.426 13.6163C22.6501 13.3964 23.0112 13.3831 23.311 13.4792C23.6097 13.5754 23.8705 13.7595 24.1519 13.8997C24.1723 13.9099 24.1928 13.9202 24.2143 13.9294C24.2849 14.9309 24.2071 15.9304 23.9892 16.8992L23.9882 16.9002Z" fill="#351A65"/>
</g>
<g style="mix-blend-mode:multiply" opacity="0.26">
<path d="M6.07415 9.02835C6.05573 9.10712 6.07108 9.19817 6.12836 9.25546C6.14985 9.27797 6.17645 9.29433 6.20509 9.30763C6.22146 9.31582 6.23885 9.32298 6.25624 9.33014C6.35036 9.36697 6.45369 9.39664 6.55292 9.37106C7.02862 9.25035 6.20611 8.46978 6.07517 9.02835H6.07415Z" fill="#351A65"/>
</g>
<g style="mix-blend-mode:multiply" opacity="0.26">
<path d="M8.81474 10.5001C8.71857 10.5748 8.69197 10.7068 8.67151 10.8265C8.63468 11.0464 8.59684 11.2664 8.56001 11.4863C8.52727 11.6776 8.4976 11.8853 8.59172 12.0551C8.67663 12.2086 8.84543 12.2955 9.01218 12.3518C9.21371 12.4204 9.44799 12.4531 9.63213 12.3457C9.99632 12.1339 10.1754 11.3585 9.9595 10.9973C9.80297 10.7344 9.09198 10.2833 8.81474 10.4991V10.5001Z" fill="#351A65"/>
</g>
<g style="mix-blend-mode:multiply" opacity="0.26">
<path d="M5.51346 12.9545C5.51346 12.9985 5.51346 13.0446 5.53392 13.0834C5.56768 13.1489 5.64748 13.1775 5.72113 13.1837C6.06998 13.2113 6.41781 12.7816 6.13955 12.488C6.05361 12.398 5.79479 12.266 5.66794 12.3254C5.50834 12.4001 5.5155 12.799 5.51346 12.9535V12.9545Z" fill="#351A65"/>
</g>
<g style="mix-blend-mode:multiply" opacity="0.26">
<path d="M6.25928 16.4166C6.15902 16.3542 6.04342 16.3041 5.92577 16.3184C5.74061 16.3419 5.6158 16.5128 5.46337 16.6202C5.23319 16.7818 4.89559 16.8309 4.78306 17.0877C4.71349 17.2442 4.75851 17.4304 4.84342 17.5787C4.97539 17.8099 5.20557 17.9849 5.46542 18.0463C5.72526 18.1066 6.01068 18.0504 6.22449 17.8897C6.46388 17.7107 6.63473 17.3915 6.70531 17.103C6.77488 16.8176 6.48638 16.5588 6.2603 16.4166H6.25928Z" fill="#351A65"/>
</g>
<g style="mix-blend-mode:multiply" opacity="0.26">
<path d="M12.7595 7.18135C12.6245 7.45347 12.6746 7.79107 13.1606 7.66524C13.4572 7.58953 13.6168 7.2059 13.3734 6.9747C13.1401 6.75373 12.8782 6.94196 12.7595 7.18033V7.18135Z" fill="#351A65"/>
</g>
<g style="mix-blend-mode:multiply" opacity="0.26">
<path d="M12.9427 8.9176C12.9294 8.91248 12.9171 8.90839 12.9028 8.9043C12.867 8.93396 12.8128 8.94113 12.779 8.97693C12.7555 9.00251 12.7442 9.03729 12.735 9.07105C12.6818 9.25929 12.6378 9.45059 12.6061 9.64292C12.5979 9.69304 12.5897 9.74522 12.5969 9.79535C12.6184 9.94573 12.7933 10.0531 12.9376 10.0051C13.0552 9.96619 13.1289 9.84957 13.1841 9.73806C13.3365 9.42502 13.3069 9.05161 12.9427 8.91658V8.9176Z" fill="#351A65"/>
</g>
<defs>
<linearGradient id="paint0_linear_307_3211" x1="20.5263" y1="18.6407" x2="5.28882" y2="9.33834" gradientUnits="userSpaceOnUse">
<stop stop-color="#5720D9"/>
<stop offset="1" stop-color="#E51BB6"/>
</linearGradient>
</defs>
</svg>
