<svg width="67" height="68" viewBox="0 0 67 68" fill="none" xmlns="http://www.w3.org/2000/svg">
<g style="mix-blend-mode:soft-light" opacity="0.4">
<path d="M66.6749 29.5144C66.8415 30.7035 66.9466 31.8901 66.9824 33.0689C67.0644 35.4318 66.8902 37.7587 66.4878 40.0165C65.8805 43.4326 64.7529 46.6923 63.1768 49.701C58.3281 58.9319 49.2561 65.7744 38.1416 67.3274C33.8542 67.927 29.6436 67.6861 25.674 66.7328C23.6802 66.2536 21.7504 65.595 19.9027 64.7698C17.3272 63.6268 14.9131 62.1609 12.7117 60.4208C8.2039 56.8484 4.60327 52.1202 2.39933 46.6052C1.41525 44.1501 0.713072 41.5336 0.328664 38.794C0.139023 37.446 0.0339487 36.1057 0.00575877 34.7731C-0.281266 20.2271 8.93171 7.20339 22.5192 2.50593C24.5412 1.80631 26.6632 1.28864 28.862 0.981111C35.8633 0.0021522 42.6622 1.26301 48.536 4.22039C54.2893 7.1137 59.1508 11.6369 62.4336 17.2698C63.9379 19.835 65.1116 22.6412 65.8933 25.6242C66.2239 26.8876 66.4853 28.1844 66.6724 29.5144H66.6749Z" fill="white"/>
</g>
<g style="mix-blend-mode:soft-light" opacity="0.4">
<path d="M62.2055 30.1399C62.349 31.1701 62.4413 32.1978 62.4721 33.2152C62.5413 35.2602 62.3926 37.272 62.0441 39.2248C61.5187 42.1821 60.5423 45.0011 59.179 47.6049C54.9838 55.5928 47.1316 61.5127 37.5163 62.8582C33.8055 63.3758 30.1639 63.1683 26.7273 62.3431C25.0025 61.9279 23.3316 61.359 21.7325 60.644C19.5055 59.6548 17.4143 58.3862 15.5102 56.8819C11.6098 53.7913 8.4935 49.6986 6.58683 44.9268C5.73345 42.8023 5.12608 40.5369 4.79549 38.1689C4.63148 37.0029 4.54178 35.842 4.51615 34.6913C4.26757 22.1058 12.2402 10.8349 23.9954 6.77047C25.7432 6.16567 27.5806 5.71719 29.4847 5.45323C35.543 4.60497 41.4244 5.69669 46.5089 8.25685C51.4882 10.7606 55.6937 14.6739 58.5357 19.5482C59.8376 21.7675 60.8524 24.197 61.529 26.7776C61.8134 27.8719 62.0415 28.9944 62.203 30.145L62.2055 30.1399Z" fill="white"/>
</g>
<g style="mix-blend-mode:soft-light" opacity="0.4">
<path d="M59.7248 30.488C59.8555 31.4286 59.9401 32.3665 59.9683 33.2968C60.0323 35.165 59.8939 37.0025 59.5762 38.7887C59.0969 41.4898 58.2051 44.0653 56.9571 46.4435C53.1258 53.7396 45.9528 59.1495 37.1678 60.377C33.7798 60.8511 30.4509 60.6589 27.3141 59.9055C25.738 59.5262 24.2132 59.006 22.7525 58.3525C20.7177 57.4504 18.8084 56.2895 17.0684 54.9159C13.5036 52.0918 10.659 48.3553 8.91634 43.9961C8.13728 42.0562 7.58372 39.988 7.27876 37.8225C7.13012 36.7565 7.04556 35.6955 7.02505 34.6448C6.79953 23.1484 14.0802 12.8514 24.8206 9.14058C26.4172 8.58704 28.0957 8.17956 29.8358 7.9361C35.3687 7.16216 40.7427 8.15906 45.3864 10.4963C49.9352 12.7848 53.7767 16.3572 56.3728 20.8112C57.5619 22.8383 58.4896 25.0576 59.1072 27.4153C59.3686 28.4148 59.5762 29.4399 59.7223 30.4906L59.7248 30.488Z" fill="white"/>
</g>
<path d="M43.5669 14.1174C44.656 14.6658 45.6965 15.3014 46.6831 16.0138C48.4617 17.308 50.0505 18.861 51.3883 20.6319C51.9239 21.3392 52.4185 22.0798 52.8695 22.8512C53.8793 24.5682 54.6634 26.4467 55.1888 28.443C55.4092 29.2862 55.5835 30.1575 55.7065 31.0468C55.8192 31.8412 55.891 32.6382 55.9141 33.4224C55.9679 35.0062 55.8525 36.5617 55.5835 38.0737C55.176 40.3597 54.4225 42.5406 53.3667 44.5523C52.2622 46.6537 50.8322 48.5655 49.1331 50.221C45.8374 53.4347 41.5218 55.6642 36.6116 56.3511C35.5225 56.5023 34.4359 56.574 33.3672 56.5689C31.622 56.5586 29.9127 56.3485 28.2649 55.9513C26.9297 55.6309 25.6381 55.1927 24.4029 54.6366C22.6781 53.8729 21.0611 52.8939 19.5875 51.7253C18.8264 51.1231 18.1037 50.4722 17.4246 49.7725C16.2662 48.5783 15.2334 47.2534 14.357 45.8157C13.7112 44.7624 13.1525 43.6476 12.6835 42.479C12.4144 41.8051 12.1761 41.1157 11.9737 40.4084C11.6764 39.3858 11.4509 38.3351 11.2997 37.2511C11.2305 36.7642 11.1792 36.2747 11.1459 35.7903C11.1126 35.3803 11.0921 34.9677 11.0818 34.5602C11.0126 30.9366 11.8225 27.4513 13.3345 24.3427C13.9265 23.1331 14.621 21.9798 15.418 20.8984C16.0074 20.0911 16.6506 19.3223 17.3477 18.6022C19.0237 16.8595 20.9816 15.3783 23.1702 14.2456C24.1235 13.751 25.1178 13.323 26.1532 12.9642C26.7529 12.7566 27.3679 12.5721 27.9907 12.4183C28.7749 12.2184 29.5795 12.0621 30.397 11.9468C31.5708 11.7802 32.7368 11.711 33.8849 11.7315C37.3215 11.7853 40.6172 12.631 43.5643 14.1149L43.5669 14.1174Z" fill="url(#paint0_linear_307_3097)"/>
<g style="mix-blend-mode:multiply" opacity="0.26">
<path d="M55.7065 31.0491C56.0422 33.4504 55.9832 35.8158 55.5809 38.0761C53.8357 31.6719 50.1787 25.7751 45.0122 21.5953C39.5946 17.213 32.9059 14.7374 26.1532 12.9691C27.5063 12.5002 28.9286 12.1542 30.3996 11.9492C42.6622 10.2347 53.992 18.7865 55.7065 31.0466V31.0491Z" fill="#351A65"/>
</g>
<g style="mix-blend-mode:multiply" opacity="0.26">
<path d="M52.8695 22.8539C50.0147 25.209 46.7369 27.0567 43.2414 28.2715C40.8606 29.0992 38.3671 29.6451 36.1401 30.8214C33.234 32.3564 30.9711 34.8653 28.2392 36.6926C23.6212 39.7806 17.9807 40.7288 12.6861 42.4843C12.0275 40.8416 11.5559 39.0887 11.2997 37.2564C11.1741 36.3543 11.1023 35.4573 11.0844 34.5655C11.1971 34.3425 11.315 34.1247 11.4432 33.9094C13.0936 31.0776 15.728 28.966 18.4189 27.0977C26.1814 21.7032 34.8357 17.7848 43.5669 14.1201C47.4186 16.0575 50.6707 19.0841 52.8695 22.8539Z" fill="#351A65"/>
</g>
<g style="mix-blend-mode:multiply" opacity="0.26">
<path d="M53.3641 44.5576C50.1197 50.7363 44.0461 55.3159 36.6091 56.3564C33.7388 56.7587 30.9198 56.5947 28.2649 55.9592C29.9742 53.9167 31.7937 51.9664 33.7132 50.1213C35.1304 48.7528 36.6962 47.392 38.6182 46.9691C39.8663 46.6924 41.1579 46.8359 42.4316 46.8282C46.168 46.8077 49.7379 45.511 53.3667 44.5602L53.3641 44.5576Z" fill="#351A65"/>
</g>
<g style="mix-blend-mode:multiply" opacity="0.26">
<path d="M55.7065 31.0495C55.8167 31.8465 55.8884 32.641 55.9141 33.4277C52.8516 33.6763 49.7276 33.7583 47.0214 35.1037C45.3941 35.9187 44.0051 37.1514 42.3906 38.0022C41.1451 38.6582 39.792 39.0708 38.485 39.5988C31.9603 42.2204 26.6965 47.8046 24.4567 54.4702C24.4362 54.5266 24.4182 54.5855 24.4029 54.6445C22.6807 53.8808 21.0636 52.8993 19.5901 51.7332C25.0666 43.7683 32.355 36.995 41.1297 33.0126C45.43 31.0649 50.0044 29.8066 54.5635 28.6047C54.7685 28.5534 54.9761 28.4996 55.1862 28.4458C55.4066 29.2915 55.5835 30.1603 55.7065 31.0495Z" fill="#351A65"/>
</g>
<g style="mix-blend-mode:multiply" opacity="0.26">
<path d="M41.9011 42.269C41.8857 42.2229 41.9037 42.1742 41.9216 42.1281C42.1087 41.654 42.1369 41.4413 42.6084 41.2465C43.7283 40.734 44.7713 39.9933 45.8784 39.4398C47.8825 38.4378 49.5662 37.6254 51.8624 37.8432C51.9034 37.8484 51.9469 37.8509 51.9803 37.874C52.0623 37.9304 52.0495 38.0534 52.0264 38.1508C51.8675 38.8196 51.7009 39.4962 51.3627 40.0959C50.4196 41.7667 48.4693 42.4228 46.6831 42.715C45.1378 42.9687 43.4362 43.1506 42.0164 42.3767C41.9703 42.351 41.919 42.3203 41.9037 42.269H41.9011Z" fill="#351A65"/>
</g>
<g style="mix-blend-mode:multiply" opacity="0.26">
<path d="M49.1305 50.2261C45.8348 53.4397 41.5192 55.6693 36.6091 56.3561C35.5199 56.5073 34.4333 56.5791 33.3647 56.5739C34.8408 55.4822 36.1836 54.2034 37.3471 52.7811C38.0391 51.9405 38.7028 51.018 39.6843 50.549C40.7402 50.0416 41.9728 50.1518 43.144 50.2312C45.1327 50.3721 47.1418 50.3952 49.1279 50.2261H49.1305Z" fill="#351A65"/>
</g>
<g style="mix-blend-mode:multiply" opacity="0.26">
<path d="M35.6762 25.8085C35.6378 26.0289 35.4148 26.1596 35.2098 26.2544C34.2872 26.685 33.3057 26.9822 32.3421 27.3154C28.6672 28.5788 25.0204 30.4701 22.7729 33.6402C22.0682 34.632 21.5146 35.7314 20.7586 36.6847C19.4491 38.33 17.5527 39.4729 15.5128 39.9752C14.3544 40.2597 13.1679 40.3494 11.9762 40.416C11.6789 39.3935 11.4534 38.3428 11.3022 37.2588C11.233 36.7718 11.1818 36.2824 11.1484 35.798C12.1863 35.3572 13.2652 35.0189 14.3006 34.5807C17.0119 33.4352 19.4286 31.5977 21.2558 29.2887C22.163 28.1432 22.9754 26.8387 24.267 26.1596C25.0128 25.7675 25.8585 25.6163 26.6913 25.4702C29.4335 24.9859 32.2704 24.5041 34.9766 25.155C35.3226 25.237 35.7429 25.4574 35.6788 25.806L35.6762 25.8085Z" fill="#351A65"/>
</g>
<g style="mix-blend-mode:multiply" opacity="0.26">
<path d="M46.6831 16.0166C48.4617 17.3108 50.0505 18.8638 51.3883 20.6346C49.3535 22.0313 47.2674 23.3639 45.0276 24.3967C43.7872 24.9707 42.3086 25.5269 40.9298 25.1476C39.5998 24.7811 38.4132 23.4844 38.7361 22.0467C39.036 20.7038 40.9862 19.5301 42.0062 18.751C43.4234 17.6696 44.9379 16.688 46.6088 16.0448C46.6319 16.0345 46.6575 16.0269 46.6831 16.0166Z" fill="#351A65"/>
</g>
<g style="mix-blend-mode:multiply" opacity="0.26">
<path d="M33.8875 11.7368C33.849 11.9341 33.7927 12.1263 33.7235 12.3108C33.4083 13.1488 32.8368 13.8613 32.2448 14.5327C28.5724 18.6971 23.7647 21.8595 18.4804 23.5791C16.8198 24.1198 15.0617 24.5222 13.337 24.3505C13.929 23.1409 14.6235 21.9877 15.4205 20.9062C16.5455 21.101 17.668 21.2214 18.8033 21.1163C20.774 20.9318 22.6679 20.04 24.0671 18.6433C24.8231 17.8873 25.4305 16.9955 26.0327 16.1139C26.8195 14.9581 27.6242 13.7562 27.9932 12.4262C28.7774 12.2263 29.5821 12.0699 30.3996 11.9546C31.5733 11.788 32.7394 11.7188 33.8875 11.7393V11.7368Z" fill="#351A65"/>
</g>
<g style="mix-blend-mode:multiply" opacity="0.26">
<path d="M23.1702 14.2505C23.1907 14.3581 23.2086 14.4683 23.2265 14.576C23.4111 15.7215 23.5084 16.9721 22.9088 17.9639C22.0861 19.3247 20.1846 19.686 18.67 19.2094C18.2036 19.0633 17.7654 18.8557 17.3502 18.6071C19.0262 16.8645 20.9841 15.3832 23.1727 14.2505H23.1702Z" fill="#351A65"/>
</g>
<g style="mix-blend-mode:multiply" opacity="0.26">
<path d="M23.7955 42.0844C24.0364 42.3996 23.9979 42.843 23.9005 43.2274C23.37 45.3032 21.5377 46.7358 19.8156 48.012C19.0185 48.6014 18.2241 49.1883 17.4245 49.7803C16.2662 48.586 15.2334 47.2611 14.357 45.8234C14.9387 45.6594 15.5153 45.4877 16.0842 45.2929C18.0524 44.6215 19.9181 43.6425 21.5966 42.4124C21.9272 42.1664 22.2655 41.9076 22.6627 41.7948C23.06 41.6821 23.5443 41.7564 23.7929 42.087L23.7955 42.0844Z" fill="#351A65"/>
</g>
<g style="mix-blend-mode:multiply" opacity="0.26">
<path d="M27.9855 40.1754C28.3648 39.9191 28.7876 39.7116 29.0721 39.3528C29.3566 38.994 29.4411 38.42 29.108 38.1073C28.8594 37.8741 28.4673 37.869 28.1495 37.9869C27.8318 38.1047 27.5627 38.3251 27.2808 38.5122C26.4889 39.0401 24.2593 39.8705 24.9205 41.2056C25.615 42.6049 27.3141 40.6265 27.9855 40.1729V40.1754Z" fill="#351A65"/>
</g>
<g style="mix-blend-mode:multiply" opacity="0.26">
<path d="M28.088 52.8325C28.3674 52.8915 28.6288 52.6967 28.8466 52.5122C30.9967 50.685 33.1007 48.8065 35.156 46.8768C35.8505 46.2233 36.586 45.4698 36.6398 44.519C36.6552 44.2295 36.5732 43.8912 36.3118 43.7656C36.1862 43.7041 36.0402 43.7041 35.9018 43.7195C34.7742 43.8502 34.0335 44.9521 33.0238 45.4724C32.5164 45.7338 31.9398 45.8465 31.4349 46.1156C30.843 46.4334 30.3842 46.9459 29.9383 47.4482C29.1413 48.3477 28.3161 49.2831 27.8471 50.4056C27.6344 50.9182 27.2065 52.6429 28.0829 52.8325H28.088Z" fill="#351A65"/>
</g>
<g style="mix-blend-mode:multiply" opacity="0.26">
<path d="M36.504 22.3258C36.8577 21.8798 37.2113 21.4314 37.5675 20.9854C37.6931 20.8266 37.8238 20.66 37.8674 20.4627C37.9622 20.0552 37.6495 19.6375 37.2626 19.4811C36.8756 19.3248 36.4348 19.3709 36.0248 19.4478C35.1432 19.617 32.2217 20.1192 32.9956 21.5287C33.6927 22.8024 35.5327 23.5482 36.504 22.3232V22.3258Z" fill="#351A65"/>
</g>
<defs>
<linearGradient id="paint0_linear_307_3097" x1="33.2699" y1="34.4936" x2="21.8196" y2="51.3512" gradientUnits="userSpaceOnUse">
<stop stop-color="#DB7FFF"/>
<stop offset="1" stop-color="#4EE7F8"/>
</linearGradient>
</defs>
</svg>
