<svg width="94" height="65" viewBox="0 0 94 65" fill="none" xmlns="http://www.w3.org/2000/svg">
<path d="M70.915 36.4536C70.6765 37.8548 70.3137 39.2312 69.8367 40.5778C68.7386 43.6584 67.0194 46.5552 64.7089 49.0247C64.1823 49.5911 63.6258 50.1327 63.0345 50.6494C62.2892 51.3103 61.4991 51.9314 60.6594 52.5127C57.6434 54.5897 54.3192 55.8965 50.9256 56.4778C49.5343 56.7213 48.1331 56.8356 46.7319 56.8306C44.4711 56.8405 42.2302 56.5126 40.044 55.8915C39.2639 55.6679 38.4937 55.4095 37.7385 55.1114C36.4267 54.5947 35.1597 53.9636 33.9423 53.2183C32.5809 52.3885 31.289 51.4146 30.0915 50.3016C28.9636 49.2582 27.9202 48.0855 26.9761 46.7986C26.842 46.6148 26.7078 46.426 26.5736 46.2322C26.1115 45.5515 25.6842 44.8559 25.2967 44.1404C24.4768 42.6597 23.8259 41.1243 23.339 39.5591C23.0707 38.7045 22.857 37.8449 22.6881 36.9754C22.1713 34.2873 22.1117 31.5495 22.4893 28.8763C22.6384 27.8626 22.8421 26.859 23.1154 25.8702C23.5129 24.3994 24.0495 22.9634 24.7203 21.5871C25.1128 20.7772 25.555 19.9872 26.037 19.217C26.2358 18.899 26.4444 18.586 26.6631 18.2829C26.9065 17.9301 27.1649 17.5823 27.4283 17.2444C27.4928 17.1599 27.5575 17.0754 27.627 16.9959C27.7512 16.8419 27.8755 16.6929 27.9997 16.5438C28.1835 16.3301 28.3673 16.1165 28.5611 15.9078C28.7847 15.6544 29.0183 15.4059 29.2617 15.1625C29.4655 14.9538 29.6692 14.755 29.8779 14.5563C30.5238 13.9451 31.2045 13.3687 31.925 12.8222C32.2281 12.5886 32.5361 12.365 32.8541 12.1464C33.351 11.8036 33.8529 11.4856 34.3647 11.1825C38.8068 8.5689 43.7805 7.51055 48.6201 7.88818C49.4896 7.95277 50.3542 8.06705 51.2138 8.22605C52.128 8.39499 53.0274 8.61362 53.9168 8.8869C54.2 8.97137 54.4832 9.06578 54.7665 9.16515C54.9503 9.22478 55.1292 9.28938 55.308 9.35894C55.3577 9.37385 55.4025 9.38875 55.4472 9.41359C55.5913 9.46328 55.7304 9.51795 55.8745 9.57757C56.1329 9.67695 56.3863 9.78627 56.6446 9.90055C56.6546 9.90055 56.6645 9.91048 56.6794 9.91544C56.9676 10.0397 57.2558 10.1788 57.544 10.3179C58.98 11.0185 60.3563 11.8682 61.6482 12.8619C63.6456 14.3824 65.4344 16.2457 66.935 18.427C67.243 18.8791 67.5362 19.3313 67.8144 19.7934C69.1262 21.9896 70.0504 24.315 70.597 26.7C70.8454 27.7384 71.0243 28.7869 71.1286 29.8353C71.3621 32.0464 71.2826 34.2773 70.91 36.4536H70.915Z" fill="url(#paint0_linear_307_3082)"/>
<g style="mix-blend-mode:multiply" opacity="0.26">
<path d="M64.709 49.0248C64.1823 49.5913 63.6258 50.1328 63.0345 50.6496C62.2892 51.3104 61.4991 51.9315 60.6594 52.5129C57.6434 54.5898 54.3193 55.8966 50.9256 56.478C49.5343 56.7215 48.1331 56.8357 46.7319 56.8308C48.0536 54.3762 49.6834 52.1204 51.8398 50.3813C54.99 47.8423 59.3973 46.615 63.1587 48.0559C63.7102 48.2696 64.2618 48.6025 64.709 49.0248Z" fill="#351A65"/>
</g>
<g style="mix-blend-mode:multiply" opacity="0.26">
<path d="M70.915 36.4539C70.6765 37.8551 70.3137 39.2315 69.8367 40.578C69.4342 40.6277 69.0119 40.6774 68.6094 40.7321C65.3748 41.1445 62.1351 41.5519 58.8905 41.9792C56.8931 42.2327 54.8509 42.496 53.0721 43.4351C49.8672 45.1096 48.0984 48.5877 45.7283 51.3305C44.1333 53.1739 42.1905 54.7142 40.044 55.8918C39.2639 55.6682 38.4937 55.4098 37.7385 55.1117C36.4267 54.595 35.1597 53.9639 33.9423 53.2186C32.5809 52.3888 31.289 51.4149 30.0915 50.3019C28.9636 49.2585 27.9202 48.0858 26.9761 46.7989C26.842 46.6151 26.7078 46.4263 26.5736 46.2325C26.1115 45.5518 25.6842 44.8562 25.2967 44.1407C28.0543 40.1756 30.6182 36.0366 34.9062 34.0242C40.9731 31.192 48.2772 33.7758 54.7714 32.1311C59.0743 31.033 62.7711 28.1362 67.094 27.0978C68.2418 26.8295 69.4194 26.6854 70.6019 26.7003C70.8504 27.7387 71.0292 28.7872 71.1336 29.8356C71.3671 32.0467 71.2876 34.2776 70.915 36.4539Z" fill="#351A65"/>
</g>
<g style="mix-blend-mode:multiply" opacity="0.26">
<path d="M57.549 10.3182C57.4993 10.4275 57.4297 10.5369 57.385 10.6462C54.9602 15.2373 51.9045 20.0173 46.9953 21.7066C42.5433 23.247 37.6938 21.8806 32.9983 21.4185C30.2357 21.1402 27.4531 21.1998 24.7203 21.5874C25.1128 20.7775 25.5551 19.9875 26.037 19.2173C26.2358 18.9043 26.4445 18.5912 26.6631 18.2832C26.9066 17.9304 27.1649 17.5826 27.4283 17.2447C27.4929 17.1602 27.5575 17.0757 27.6271 16.9962C27.7513 16.8422 27.8755 16.6932 27.9997 16.5441C28.1836 16.3304 28.3674 16.1168 28.5612 15.9081C28.7848 15.6547 29.0183 15.4062 29.2618 15.1628C29.4655 14.9541 29.6692 14.7553 29.8779 14.5566C31.766 15.7491 33.6492 16.9913 35.746 17.6621C41.6539 19.5452 48.312 16.4298 52.1181 11.5306C52.774 10.6909 53.3603 9.80643 53.9168 8.88721C54.2 8.97168 54.4833 9.06608 54.7665 9.16546C54.9503 9.22508 55.1292 9.28968 55.3081 9.35925C55.3578 9.37415 55.4025 9.38905 55.4472 9.4139C55.5913 9.46358 55.7304 9.51825 55.8745 9.57787C56.1329 9.67725 56.3863 9.78657 56.6447 9.90086C56.6546 9.90086 56.6645 9.91078 56.6795 9.91575C56.9676 10.04 57.2558 10.1791 57.544 10.3182H57.549Z" fill="#351A65"/>
</g>
<g style="mix-blend-mode:multiply" opacity="0.26">
<path d="M40.6253 28.9907C38.3894 30.6254 35.7559 31.5943 33.2864 32.8464C29.7089 34.665 26.4991 37.0699 23.339 39.5592C23.0706 38.7046 22.857 37.845 22.6881 36.9755C27.2196 34.2874 31.7511 31.6042 36.2826 28.9211C34.8317 28.2702 33.192 28.2106 31.602 28.2155C28.5562 28.2304 25.5053 28.449 22.4893 28.8763C22.6384 27.8627 22.8421 26.859 23.1154 25.8702C27.155 25.9547 31.2492 25.4579 35.2988 25.2293C37.3161 25.115 39.5521 25.1399 41.0675 26.4765C41.3259 26.71 41.5644 26.9932 41.629 27.3311C41.7532 28.0068 41.1768 28.5882 40.6253 28.9907Z" fill="#351A65"/>
</g>
<g style="mix-blend-mode:multiply" opacity="0.26">
<path d="M67.8193 19.7937C67.5013 20.0819 67.1734 20.3602 66.8305 20.6186C65.1859 21.8558 63.2729 22.6806 61.3848 23.4905C58.0507 24.9166 54.5825 26.3724 50.9603 26.2382C50.7466 26.2333 50.5181 26.2134 50.3541 26.0743C49.9815 25.7613 50.2249 25.16 50.5032 24.7575C53.5888 20.2906 58.2296 17.0261 61.6531 12.8623C63.6505 14.3827 65.4393 16.246 66.9399 18.4273C67.2479 18.8795 67.5411 19.3317 67.8193 19.7937Z" fill="#351A65"/>
</g>
<g style="mix-blend-mode:multiply" opacity="0.26">
<path d="M51.2138 8.22606C50.4685 9.33906 49.6238 10.3825 48.6648 11.3216C46.2301 13.7017 42.9607 15.3662 39.557 15.3364C36.8292 15.3115 34.3001 14.2432 31.925 12.8222C32.2281 12.5886 32.5362 12.3651 32.8542 12.1464C33.3511 11.8036 33.8529 11.4856 34.3647 11.1825C37.0081 12.9365 40.6303 12.4446 43.8153 11.8483C44.6451 11.6943 45.5047 11.5303 46.2003 11.0483C46.8413 10.6061 47.2835 9.93532 47.7108 9.28441C48.0139 8.81734 48.317 8.35525 48.6201 7.88818C49.4896 7.95278 50.3542 8.06706 51.2138 8.22606Z" fill="#351A65"/>
</g>
<g style="mix-blend-mode:multiply" opacity="0.26">
<path d="M58.3936 36.5087C53.1217 39.5148 47.4573 42.5209 44.2972 47.7034C43.5519 48.9207 42.9656 50.2375 42.1209 51.3902C40.9681 52.9653 39.4278 54.123 37.7384 55.1118C36.4267 54.5951 35.1596 53.964 33.9423 53.2187C36.5906 51.8374 39.5172 50.789 41.4948 48.5828C43.5072 46.337 44.2177 43.2265 44.5556 40.2254C40.9284 40.1508 37.1521 41.1992 34.5485 43.7333C33.3063 44.9407 32.3771 46.4314 31.4877 47.922C31.0157 48.712 30.5486 49.507 30.0915 50.3021C28.9636 49.2586 27.9201 48.086 26.9761 46.799C27.0307 46.7146 27.0854 46.6301 27.14 46.5457C28.2729 44.8165 29.4306 43.0874 30.8567 41.5868C34.6876 37.5571 40.347 35.4454 45.9021 35.6293C47.7008 35.6889 49.4945 35.9771 51.2932 35.9522C53.3751 35.9274 55.4372 35.4852 57.4247 34.8641C58.1154 34.6504 59.134 34.5858 59.288 35.2964C59.4023 35.823 58.8656 36.2404 58.3936 36.5087Z" fill="#351A65"/>
</g>
<g style="mix-blend-mode:multiply" opacity="0.26">
<path d="M71.1335 29.8354C71.3671 32.0466 71.2876 34.2775 70.9149 36.4538C69.1609 36.3545 67.4169 36.2004 65.6728 35.9967C64.9772 35.9172 64.2617 35.8178 63.6506 35.47C63.0444 35.1222 62.5574 34.4614 62.6319 33.7608C62.7015 33.0602 63.2878 32.5285 63.8791 32.1409C66.0207 30.7397 68.6094 30.3423 71.1335 29.8354Z" fill="#351A65"/>
</g>
<path d="M84.4748 36.1309C84.2959 36.2899 84.117 36.4489 83.9431 36.6079L83.7841 36.1955C84.0177 36.1756 84.2462 36.1557 84.4748 36.1309Z" fill="#351A65"/>
<g style="mix-blend-mode:multiply" opacity="0.26">
<path d="M63.0344 50.6497C62.2891 51.3106 61.4991 51.9317 60.6594 52.513C57.6433 54.59 54.3192 55.8968 50.9255 56.4781C51.2336 55.9564 51.5367 55.4347 51.8448 54.913C52.5106 53.785 53.1863 52.6373 54.1403 51.7479C55.2434 50.7193 56.6943 50.0684 58.1949 49.9392C59.7302 49.8051 61.2656 50.1926 62.7612 50.5802C62.8506 50.605 62.945 50.6249 63.0344 50.6497Z" fill="#351A65"/>
</g>
<g style="mix-blend-mode:multiply" opacity="0.26">
<path d="M55.308 9.35894C53.9516 11.7241 52.3715 13.9352 50.4684 15.8978C48.7095 17.7114 46.558 19.3412 44.0538 19.6145C43.0004 19.7288 41.9371 19.5996 40.8887 19.4654C39.1049 19.2418 37.3261 19.0182 35.5472 18.7946C34.0367 18.6058 32.5262 18.417 31.0306 18.1288C29.8133 17.9003 28.6108 17.6071 27.4283 17.2444C27.4928 17.1599 27.5575 17.0754 27.627 16.9959C27.7512 16.8419 27.8755 16.6929 27.9997 16.5438C28.1835 16.3301 28.3673 16.1165 28.5611 15.9078C28.7847 15.6544 29.0183 15.4059 29.2617 15.1625C29.4655 14.9538 29.6692 14.755 29.8779 14.5563C30.5238 13.9451 31.2045 13.3687 31.925 12.8222C32.2281 12.5886 32.5361 12.365 32.8541 12.1464C33.351 11.8036 33.8529 11.4856 34.3647 11.1825C38.8068 8.5689 43.7805 7.51055 48.6201 7.88818C49.4896 7.95277 50.3542 8.06705 51.2138 8.22605C52.128 8.39499 53.0274 8.61362 53.9168 8.8869C54.2 8.97137 54.4832 9.06578 54.7664 9.16515C54.9503 9.22478 55.1292 9.28938 55.308 9.35894Z" fill="#351A65"/>
</g>
<path d="M63.3673 14.3028C63.8642 14.7549 64.3462 15.2319 64.8132 15.7388C77.742 7.64463 86.9442 2.85968 87.7789 4.07206C88.6087 5.2745 80.8574 12.1662 68.6839 21.3634C62.9549 25.6962 56.2322 30.5457 48.9728 35.5493C41.7134 40.5528 34.7969 45.0943 28.7052 48.9053C15.7764 56.9994 6.56433 61.7943 5.73454 60.5918C4.89979 59.3795 12.656 52.4779 24.8295 43.2807C24.5215 42.6645 24.2482 42.0434 24.0047 41.4174C8.78038 53.0691 -0.978275 62.2912 0.388138 64.2737C1.74461 66.2414 13.8436 60.4229 30.161 50.3512C36.3422 46.5302 43.1196 42.0981 50.1504 37.2585C57.1911 32.409 63.74 27.6439 69.5187 23.2416C84.7529 11.5799 94.4917 2.35784 93.1352 0.38524C91.7688 -1.5973 79.6897 4.22611 63.3624 14.3078L63.3673 14.3028Z" fill="white"/>
<defs>
<linearGradient id="paint0_linear_307_3082" x1="58.8657" y1="52.1699" x2="38.7074" y2="19.1226" gradientUnits="userSpaceOnUse">
<stop stop-color="#DB7FFF"/>
<stop offset="1" stop-color="#4EE7F8"/>
</linearGradient>
</defs>
</svg>
