<svg width="22" height="23" viewBox="0 0 22 23" fill="none" xmlns="http://www.w3.org/2000/svg">
<path d="M3.32313 19.5331C-0.565953 15.742 -1.05623 9.76135 1.93411 5.4474C2.26093 4.9245 2.65315 4.4506 3.11069 3.99306C7.34293 -0.369904 14.3203 -0.467972 18.667 3.76427C22.3109 7.31019 22.9809 12.768 20.6115 17.0003C20.154 17.8337 19.582 18.618 18.8794 19.337C14.6472 23.6836 7.66975 23.7816 3.32313 19.5331Z" fill="url(#paint0_linear_307_3272)"/>
<g style="mix-blend-mode:soft-light" opacity="0.47">
<path d="M3.32313 19.5329C-0.565953 15.7419 -1.05623 9.76121 1.93411 5.44727C2.99626 7.53887 4.12373 9.58144 5.67609 11.3462C9.36909 15.4804 15.0066 17.2453 20.6115 17.0001C20.154 17.8335 19.582 18.6179 18.8794 19.3368C14.6472 23.6835 7.66975 23.7815 3.32313 19.5329Z" fill="white"/>
</g>
<defs>
<linearGradient id="paint0_linear_307_3272" x1="10.0567" y1="19.7617" x2="11.9879" y2="2.82557" gradientUnits="userSpaceOnUse">
<stop stop-color="#DB7FFF"/>
<stop offset="1" stop-color="#4EE7F8"/>
</linearGradient>
</defs>
</svg>
