<svg width="24" height="24" viewBox="0 0 24 24" fill="none" xmlns="http://www.w3.org/2000/svg">
<path d="M14.6385 22.8581C9.0785 24.1681 3.48853 21.1981 1.35853 16.1081C1.07853 15.5181 0.878521 14.8981 0.728521 14.2381C-0.731479 8.00813 3.12852 1.76813 9.34852 0.308134C14.5585 -0.911866 19.7685 1.5881 22.1885 6.0881C22.6785 6.9581 23.0385 7.91814 23.2785 8.93814C24.7385 15.1481 20.8685 21.3981 14.6385 22.8581Z" fill="url(#paint0_linear_307_3269)"/>
<g style="mix-blend-mode:soft-light" opacity="0.47">
<path d="M14.6385 22.8579C9.07852 24.1679 3.48855 21.1979 1.35855 16.1079C3.81855 16.3379 6.27853 16.5079 8.70853 16.1279C14.4585 15.1979 19.2286 11.1979 22.1786 6.08789C22.6686 6.95789 23.0285 7.91793 23.2685 8.93793C24.7285 15.1479 20.8586 21.3979 14.6286 22.8579H14.6385Z" fill="white"/>
</g>
<defs>
<linearGradient id="paint0_linear_307_3269" x1="18.5888" y1="17.0087" x2="4.66384" y2="5.70501" gradientUnits="userSpaceOnUse">
<stop stop-color="#FF4FC0"/>
<stop offset="1" stop-color="#FFC64E"/>
</linearGradient>
</defs>
</svg>
