<svg width="32" height="31" viewBox="0 0 32 31" fill="none" xmlns="http://www.w3.org/2000/svg">
<path d="M31.2071 12.0948C31.3884 12.8938 31.506 13.709 31.5585 14.533C31.5822 14.9081 31.5922 15.2857 31.5885 15.6633C31.571 17.4014 31.2571 19.1656 30.6195 20.8874C30.5819 20.9849 30.5457 21.0837 30.5069 21.18C29.8692 22.803 28.984 24.2596 27.9124 25.5225C26.8208 26.8104 25.5367 27.897 24.1188 28.7522C23.2773 29.2624 22.3883 29.6913 21.4655 30.0326C20.6715 30.3277 19.8513 30.5578 19.0148 30.7191C17.268 31.0567 15.45 31.0967 13.6344 30.8028C12.8317 30.674 12.0302 30.479 11.2337 30.2152C11.0561 30.1576 10.8786 30.0951 10.701 30.0289C10.0684 29.7938 9.45817 29.5212 8.8755 29.2161C7.66389 28.5822 6.56606 27.8019 5.59453 26.9054C3.75273 25.2112 2.36482 23.1043 1.52332 20.7886C0.75434 18.6742 0.440497 16.3873 0.654311 14.0829C0.776847 12.755 1.07318 11.4221 1.55958 10.1129C2.06848 8.74003 2.75243 7.48216 3.57518 6.35432C4.10158 5.63036 4.68801 4.96141 5.32195 4.35123C6.41602 3.29591 7.65264 2.4144 8.98803 1.7267C10.4097 0.993981 11.9414 0.481329 13.5294 0.215C16.1126 -0.221379 18.8422 -0.00506581 21.4755 0.970224C21.4905 0.975225 21.503 0.980227 21.5168 0.986479C22.9697 1.52914 24.2926 2.26686 25.4667 3.15962C28.4013 5.38779 30.4106 8.57748 31.2071 12.0935V12.0948Z" fill="url(#paint0_linear_307_3251)"/>
<path style="mix-blend-mode:soft-light" d="M27.9111 25.5237C26.8195 26.8116 25.5354 27.8981 24.1175 28.7534C23.8149 28.2607 23.5485 27.7456 23.5911 27.1817C23.6773 26.0151 25.0165 25.3661 26.1831 25.2811C26.7545 25.2398 27.3759 25.3124 27.9111 25.5237Z" fill="url(#paint1_linear_307_3251)"/>
<path style="mix-blend-mode:soft-light" d="M31.5872 15.6631C31.5697 17.4012 31.2558 19.1654 30.6182 20.8872C30.5806 20.9847 30.5444 21.0835 30.5056 21.1798C29.234 21.6599 27.8686 20.4808 26.4794 20.2858C25.4066 20.1357 24.2663 20.6446 23.6648 21.5461C22.9296 22.649 22.8859 24.3007 21.7155 24.9209C21.4417 25.0659 21.1241 25.1372 20.8878 25.3373C20.3889 25.7599 20.4551 26.5351 20.5964 27.1728C20.7815 28.0118 21.0228 28.8383 21.3154 29.646C21.3629 29.7748 21.4117 29.9049 21.4642 30.0324C20.6702 30.3275 19.85 30.5576 19.0135 30.7189C18.9747 30.4475 18.8984 30.1812 18.7784 29.9274C18.2908 28.9033 17.1417 27.913 17.6218 26.8865C17.7781 26.5514 18.0857 26.3176 18.3408 26.0487C19.3048 25.0334 19.5236 23.538 20.1526 22.2876C21.1116 20.3795 23.1372 19.0529 25.2691 18.9366C25.8305 18.9054 26.3969 18.9529 26.9521 18.8678C28.1849 18.6815 29.2303 17.8788 30.1393 17.026C30.6219 16.5734 31.0896 16.0958 31.5872 15.6606V15.6631Z" fill="url(#paint2_linear_307_3251)"/>
<path style="mix-blend-mode:soft-light" d="M21.5155 0.987456C21.1779 1.27379 20.824 1.54012 20.4564 1.78644C19.1673 2.64795 17.7006 3.26313 16.5715 4.3272C15.4424 5.39001 14.7184 7.12553 15.4249 8.50719C16.439 10.4953 19.4086 10.3365 21.1028 11.7894C22.0044 12.5634 22.4745 13.8088 22.3107 14.9841C22.1469 16.1607 21.3529 17.2298 20.2751 17.7274C19.6161 18.0325 18.8734 18.1288 18.2132 18.4364C17.3117 18.8553 16.6328 19.628 16.0163 20.407C15.4337 21.1434 14.866 21.9449 14.7247 22.8727C14.4196 24.8933 16.2076 26.9889 15.3774 28.857C15.0198 29.6585 14.2583 30.1849 13.6319 30.8038C12.8291 30.675 12.0276 30.48 11.2312 30.2161C11.3424 30.0986 11.4475 29.9773 11.545 29.8485C12.1014 29.1183 12.4153 28.138 12.1302 27.2653C11.7576 26.1224 10.4322 25.1859 10.786 24.0368C10.8998 23.6654 11.1786 23.3703 11.4487 23.0903C12.9479 21.5311 14.4546 19.8956 15.2461 17.8825C16.0376 15.8694 15.9676 13.3736 14.5221 11.7644C13.6331 10.7754 12.3065 10.1914 11.6188 9.0536C10.641 7.43937 11.2837 5.37126 11.9476 3.60448C12.3865 2.43789 12.8416 1.24503 13.5268 0.215977C16.1101 -0.220403 18.8397 -0.00408853 21.4729 0.971201C21.488 0.976202 21.5005 0.981204 21.5142 0.987456H21.5155Z" fill="url(#paint3_linear_307_3251)"/>
<path style="mix-blend-mode:soft-light" d="M31.2071 12.0945C30.5556 12.7397 29.7316 13.1898 28.8964 13.5737C28.5513 13.7325 28.1812 13.885 27.8048 13.8388C27.0971 13.7512 26.6045 12.9973 25.8955 12.9285C25.5191 12.8922 25.1078 13.051 24.7777 12.866C24.5801 12.7547 24.4613 12.5371 24.4088 12.3171C24.1725 11.3318 25.0478 10.2652 24.6389 9.33867C24.3738 8.73974 23.6899 8.47966 23.1022 8.19208C22.5133 7.90574 21.8931 7.39309 21.9756 6.74415C22.0344 6.28526 22.437 5.94641 22.8471 5.73135C23.2585 5.51628 23.7149 5.36874 24.0575 5.05615C24.5576 4.60226 24.7977 3.91206 25.2441 3.40441C25.3191 3.31938 25.3929 3.24061 25.4679 3.16309C28.4025 5.39125 30.4118 8.58094 31.2083 12.097L31.2071 12.0945Z" fill="url(#paint4_linear_307_3251)"/>
<path style="mix-blend-mode:soft-light" d="M4.50667 7.84216C5.43944 9.42638 7.19246 10.5005 7.77263 12.2447C8.08148 13.1712 8.0077 14.2191 7.57008 15.0931C7.26623 15.7007 6.79985 16.2209 6.54727 16.8498C6.17341 17.7864 6.31595 18.8367 6.26344 19.8445C6.25218 20.0433 6.23218 20.2471 6.1359 20.4221C5.94709 20.7622 5.51446 20.896 5.1256 20.8685C4.73798 20.8423 4.37163 20.6897 3.99526 20.5947C3.17877 20.3884 2.29726 20.4659 1.52078 20.7898C0.31042 17.4588 0.227897 13.6976 1.55704 10.1141C2.06594 8.74118 2.74989 7.4833 3.57264 6.35547C3.98151 6.76309 4.20908 7.33576 4.50667 7.84216Z" fill="url(#paint5_linear_307_3251)"/>
<path style="mix-blend-mode:soft-light" d="M9.038 26.1687C9.20305 26.4275 9.35685 26.6976 9.43562 26.9939C9.5244 27.3278 9.5144 27.6829 9.45063 28.023C9.3781 28.4143 9.23056 28.8019 8.97548 29.1083C8.94298 29.147 8.90922 29.1833 8.87546 29.2196C7.66385 28.5856 6.56602 27.8054 5.59448 26.9089C5.67951 26.6738 5.73202 26.4237 5.79204 26.1824C5.89332 25.776 6.03711 25.3522 6.36096 25.0871C6.78359 24.7395 7.42252 24.7607 7.90517 25.0133C8.39031 25.2659 8.74417 25.711 9.03925 26.1699L9.038 26.1687Z" fill="url(#paint6_linear_307_3251)"/>
<path style="mix-blend-mode:soft-light" d="M9.0305 18.46C8.95423 19.0415 9.10678 19.6129 9.80573 20.1956C10.2584 20.5732 10.9073 20.7195 11.4637 20.5269C12.519 20.1618 13.223 18.0499 13.6619 17.1246C13.7944 16.8458 13.9245 16.5632 13.9845 16.2606C14.172 15.3254 13.6731 14.4026 13.193 13.5786C12.7954 12.8959 12.2427 12.1444 11.3537 12.362C10.7898 12.4995 10.0346 13.1447 9.83699 13.6999C9.57191 14.4389 9.97578 15.2841 9.81448 16.0518C9.63318 16.9071 9.13178 17.6936 9.03175 18.4613L9.0305 18.46Z" fill="url(#paint7_linear_307_3251)"/>
<path style="mix-blend-mode:soft-light" d="M8.98674 1.72754C9.2143 2.13891 9.34309 2.60155 9.33184 3.07044C9.31058 4.02697 8.74792 4.87472 8.20526 5.66121C7.83765 6.19636 7.34 6.79404 6.69356 6.73152C6.22091 6.68526 5.85331 6.27889 5.6745 5.83751C5.4957 5.39738 5.45569 4.91473 5.34566 4.45335C5.33815 4.41959 5.3294 4.38583 5.32065 4.35207C6.41472 3.29675 7.65134 2.41524 8.98674 1.72754Z" fill="url(#paint8_linear_307_3251)"/>
<g style="mix-blend-mode:multiply" opacity="0.26">
<path d="M31.2071 12.0945C31.3884 12.8935 31.506 13.7087 31.5585 14.5327C27.8124 11.4381 23.3085 9.30993 18.4971 8.68099C12.1452 7.85199 5.41321 9.8876 0.654297 14.0838C0.776833 12.7559 1.07317 11.4231 1.55956 10.1139C2.06847 8.74101 2.75242 7.48313 3.57516 6.3553C4.10157 5.63133 4.68799 4.96239 5.32193 4.3522C6.41601 3.29689 7.65262 2.41538 8.98802 1.72768C10.4097 0.994958 11.9414 0.482306 13.5294 0.215977C16.1126 -0.220403 18.8422 -0.00408853 21.4755 0.971201C21.4905 0.976202 21.503 0.981205 21.5167 0.987456C22.9697 1.53012 24.2926 2.26784 25.4667 3.1606C28.4013 5.38876 30.4106 8.57846 31.2071 12.0945Z" fill="#351A65"/>
</g>
<path style="mix-blend-mode:soft-light" d="M17.2617 30.1766C17.3718 30.1216 17.4618 30.0153 17.473 29.8928C17.478 29.8465 17.4705 29.799 17.4593 29.7528C17.453 29.7253 17.4443 29.699 17.4355 29.6715C17.3868 29.5264 17.3205 29.3777 17.1955 29.2876C16.5928 28.8525 16.4865 30.5668 17.2605 30.1754L17.2617 30.1766Z" fill="url(#paint9_linear_307_3251)"/>
<path style="mix-blend-mode:soft-light" d="M16.3065 25.5636C16.4865 25.6024 16.6653 25.5061 16.8241 25.4123C17.1154 25.241 17.408 25.071 17.6994 24.8997C17.9519 24.7521 18.2233 24.5833 18.3283 24.3095C18.4246 24.0607 18.3608 23.7806 18.2645 23.5318C18.147 23.2304 17.9582 22.9278 17.6556 22.8178C17.0567 22.6002 15.9826 23.1466 15.7713 23.7481C15.6187 24.1857 15.785 25.4498 16.3065 25.5611V25.5636Z" fill="url(#paint10_linear_307_3251)"/>
<path style="mix-blend-mode:soft-light" d="M22.3645 27.0106C22.417 26.9681 22.4695 26.9231 22.4946 26.8606C22.5371 26.7568 22.4946 26.6368 22.4283 26.5455C22.1207 26.1128 21.2842 26.1279 21.2142 26.7355C21.1929 26.9231 21.2917 27.3507 21.4843 27.4407C21.7256 27.5545 22.182 27.1569 22.3645 27.0094V27.0106Z" fill="url(#paint11_linear_307_3251)"/>
<path style="mix-blend-mode:soft-light" d="M25.6592 22.7806C25.683 22.9582 25.738 23.1407 25.8693 23.2632C26.0769 23.4558 26.3969 23.4345 26.6695 23.5071C27.0809 23.6171 27.4648 23.961 27.8736 23.8434C28.1225 23.7721 28.295 23.5383 28.385 23.2958C28.5251 22.9169 28.5051 22.4805 28.3225 22.1204C28.14 21.7603 27.7961 21.484 27.4035 21.3914C26.9621 21.2877 26.4257 21.4002 26.0231 21.5978C25.6242 21.7941 25.6042 22.3817 25.658 22.7819L25.6592 22.7806Z" fill="url(#paint12_linear_307_3251)"/>
<path style="mix-blend-mode:soft-light" d="M8.61917 24.2098C9.06555 24.1023 9.40941 23.7159 8.79172 23.2733C8.41536 23.0032 7.81518 23.1907 7.78392 23.6971C7.75391 24.1835 8.22655 24.3036 8.62042 24.2098H8.61917Z" fill="url(#paint13_linear_307_3251)"/>
<path style="mix-blend-mode:soft-light" d="M10.4572 22.3088C10.4647 22.3288 10.4722 22.3476 10.4797 22.3676C10.5485 22.3801 10.6097 22.4364 10.6848 22.4401C10.7373 22.4426 10.7885 22.4214 10.8373 22.3989C11.1074 22.2788 11.3712 22.1425 11.6263 21.9925C11.6926 21.9537 11.7601 21.9125 11.8126 21.8549C11.9664 21.6836 11.9214 21.3761 11.7251 21.256C11.565 21.1572 11.3587 21.1847 11.1749 21.2298C10.6635 21.3573 10.2584 21.7549 10.456 22.3088H10.4572Z" fill="url(#paint14_linear_307_3251)"/>
<defs>
<linearGradient id="paint0_linear_307_3251" x1="15.3626" y1="25.0658" x2="17.0075" y2="3.32913" gradientUnits="userSpaceOnUse">
<stop stop-color="#FF4FC0"/>
<stop offset="1" stop-color="#FFC64E"/>
</linearGradient>
<linearGradient id="paint1_linear_307_3251" x1="19.4899" y1="2.19387" x2="26.1271" y2="28.0072" gradientUnits="userSpaceOnUse">
<stop stop-color="#FFC042"/>
<stop offset="1" stop-color="white"/>
</linearGradient>
<linearGradient id="paint2_linear_307_3251" x1="19.5457" y1="2.17923" x2="26.1838" y2="27.9917" gradientUnits="userSpaceOnUse">
<stop stop-color="#FFC042"/>
<stop offset="1" stop-color="white"/>
</linearGradient>
<linearGradient id="paint3_linear_307_3251" x1="13.3314" y1="3.77771" x2="19.9695" y2="29.5902" gradientUnits="userSpaceOnUse">
<stop stop-color="#FFC042"/>
<stop offset="1" stop-color="white"/>
</linearGradient>
<linearGradient id="paint4_linear_307_3251" x1="24.3767" y1="0.936371" x2="31.0139" y2="26.7497" gradientUnits="userSpaceOnUse">
<stop stop-color="#FFC042"/>
<stop offset="1" stop-color="white"/>
</linearGradient>
<linearGradient id="paint5_linear_307_3251" x1="2.08037" y1="6.67033" x2="8.71846" y2="32.4828" gradientUnits="userSpaceOnUse">
<stop stop-color="#FFC042"/>
<stop offset="1" stop-color="white"/>
</linearGradient>
<linearGradient id="paint6_linear_307_3251" x1="2.28349" y1="6.61798" x2="8.92158" y2="32.4304" gradientUnits="userSpaceOnUse">
<stop stop-color="#FFC042"/>
<stop offset="1" stop-color="white"/>
</linearGradient>
<linearGradient id="paint7_linear_307_3251" x1="8.38267" y1="5.04996" x2="15.0208" y2="30.8624" gradientUnits="userSpaceOnUse">
<stop stop-color="#FFC042"/>
<stop offset="1" stop-color="white"/>
</linearGradient>
<linearGradient id="paint8_linear_307_3251" x1="7.73375" y1="5.21653" x2="14.3718" y2="31.029" gradientUnits="userSpaceOnUse">
<stop stop-color="#FFC042"/>
<stop offset="1" stop-color="white"/>
</linearGradient>
<linearGradient id="paint9_linear_307_3251" x1="15.3584" y1="16.2435" x2="17.4676" y2="32.7554" gradientUnits="userSpaceOnUse">
<stop stop-color="#FFC042"/>
<stop offset="1" stop-color="white"/>
</linearGradient>
<linearGradient id="paint10_linear_307_3251" x1="16.023" y1="16.158" x2="18.1322" y2="32.6699" gradientUnits="userSpaceOnUse">
<stop stop-color="#FFC042"/>
<stop offset="1" stop-color="white"/>
</linearGradient>
<linearGradient id="paint11_linear_307_3251" x1="20.4282" y1="15.5953" x2="22.5383" y2="32.1081" gradientUnits="userSpaceOnUse">
<stop stop-color="#FFC042"/>
<stop offset="1" stop-color="white"/>
</linearGradient>
<linearGradient id="paint12_linear_307_3251" x1="26.0618" y1="14.8766" x2="28.171" y2="31.3885" gradientUnits="userSpaceOnUse">
<stop stop-color="#FFC042"/>
<stop offset="1" stop-color="white"/>
</linearGradient>
<linearGradient id="paint13_linear_307_3251" x1="7.61851" y1="17.2324" x2="9.72773" y2="33.7442" gradientUnits="userSpaceOnUse">
<stop stop-color="#FFC042"/>
<stop offset="1" stop-color="white"/>
</linearGradient>
<linearGradient id="paint14_linear_307_3251" x1="10.5196" y1="16.8611" x2="12.6288" y2="33.3729" gradientUnits="userSpaceOnUse">
<stop stop-color="#FFC042"/>
<stop offset="1" stop-color="white"/>
</linearGradient>
</defs>
</svg>
