<svg width="33" height="32" viewBox="0 0 33 32" fill="none" xmlns="http://www.w3.org/2000/svg">
<path opacity="0.46" d="M15.208 0.0619302C15.7795 0.0132916 16.351 -0.00495162 16.9104 0.00112821C18.0412 0.0193677 19.1417 0.165279 20.2117 0.414552C21.8229 0.791501 23.355 1.41164 24.7473 2.2385C29.0275 4.77987 32.0613 9.27894 32.5234 14.617C32.6997 16.6781 32.4808 18.6783 31.9275 20.5509C31.6479 21.4872 31.2892 22.3931 30.8453 23.2565C30.2374 24.4542 29.4774 25.5729 28.5897 26.576C26.7719 28.6371 24.425 30.2361 21.7438 31.1481C20.5461 31.5554 19.2815 31.8229 17.9683 31.9384C17.3177 31.9932 16.6794 32.0114 16.041 31.9932C9.09781 31.7682 3.11526 27.0442 1.21836 20.4476C0.932607 19.4687 0.744137 18.4412 0.652939 17.3833C0.361108 14.0212 1.13323 10.8111 2.68967 8.08122C4.2157 5.41218 6.48955 3.20519 9.26195 1.78251C10.5205 1.13197 11.8884 0.639508 13.3354 0.341597C13.9434 0.213921 14.5696 0.122734 15.208 0.0680159V0.0619302Z" fill="url(#paint0_linear_307_3076)"/>
<g style="mix-blend-mode:multiply" opacity="0.26">
<path d="M15.208 0.0620739C16.9286 -0.0899218 18.6128 0.0438262 20.2118 0.414696C15.585 1.41787 11.244 3.80115 8.07034 7.32745C4.74468 11.024 2.73226 15.6933 1.21839 20.4416C0.932633 19.4628 0.744163 18.4353 0.652966 17.3774C-0.107012 8.57382 6.41054 0.822052 15.208 0.0620739Z" fill="#351A65"/>
</g>
<g style="mix-blend-mode:soft-light" opacity="0.47">
<path d="M9.26199 1.77637C10.8367 3.89823 12.0283 6.30583 12.764 8.84112C13.2625 10.5678 13.5604 12.3674 14.3143 13.9968C15.2993 16.1247 17.0016 17.8332 18.1994 19.8456C20.2239 23.2503 20.6921 27.3055 21.7439 31.1419C20.5461 31.5493 19.2816 31.8168 17.9683 31.9323C17.3178 31.987 16.6794 32.0053 16.041 31.987C15.8829 31.9019 15.737 31.8046 15.585 31.7073C13.6273 30.4245 12.2229 28.4729 10.9947 26.4848C7.44412 20.7515 4.97571 14.4406 2.6897 8.08114C4.21573 5.4121 6.48959 3.20511 9.26199 1.78243V1.77637Z" fill="white"/>
</g>
<g style="mix-blend-mode:soft-light" opacity="0.47">
<path d="M24.7412 2.23877C29.0214 4.78014 32.0552 9.27922 32.5173 14.6173C32.6936 16.6784 32.4747 18.6786 31.9214 20.5512C30.5291 19.2562 29.2099 17.8882 27.9635 16.4534C27.0394 15.3894 26.1335 14.2282 25.9024 12.842C25.7504 11.9422 25.9024 11.0302 25.945 10.1182C26.0727 7.45527 25.2823 4.86526 24.7351 2.24486L24.7412 2.23877Z" fill="white"/>
</g>
<g style="mix-blend-mode:soft-light" opacity="0.47">
<path d="M15.2081 0.0619302C15.7796 0.0132916 16.3511 -0.00495162 16.9104 0.00112821C16.9712 2.18986 16.9104 4.42116 17.7738 6.40318C18.2906 7.59483 19.1174 8.62841 19.6646 9.81397C20.0841 10.7259 20.3273 11.7048 20.6556 12.6593C22.2789 17.4077 26.0606 21.3656 30.7238 23.2139C30.7664 23.2321 30.8028 23.2443 30.8454 23.2565C30.2374 24.4542 29.4774 25.5729 28.5898 26.576C23.1179 22.3749 18.5641 16.9274 16.0593 10.5253C14.8311 7.38811 14.1076 4.0807 13.4206 0.785431C13.3902 0.639515 13.3598 0.487507 13.3294 0.335511C13.9374 0.207835 14.5636 0.116649 15.202 0.0619302H15.2081Z" fill="white"/>
</g>
<defs>
<linearGradient id="paint0_linear_307_3076" x1="10.9096" y1="2.90728" x2="22.0782" y2="28.6614" gradientUnits="userSpaceOnUse">
<stop stop-color="#FF4FC0"/>
<stop offset="1" stop-color="#FFC64E"/>
</linearGradient>
</defs>
</svg>
