<svg width="42" height="43" viewBox="0 0 42 43" fill="none" xmlns="http://www.w3.org/2000/svg">
<g style="mix-blend-mode:soft-light" opacity="0.47">
<path d="M9.02337 38.9015C7.62641 37.9341 6.36994 36.8061 5.26601 35.5496C3.76066 33.8516 2.54836 31.9207 1.67325 29.8373C-0.00471335 25.8913 -0.482414 21.4074 0.541224 16.9716C0.649609 16.4698 0.78609 15.972 0.938633 15.4743C1.91811 12.299 3.58003 9.52514 5.7116 7.26109C7.17681 5.69954 8.87083 4.39088 10.7134 3.35119C11.9016 2.68482 13.154 2.13085 14.4507 1.70533C16.1005 1.15939 17.8307 0.818182 19.5889 0.701768C22.0858 0.533169 24.6469 0.810162 27.1799 1.58893C27.4489 1.67323 27.7138 1.75752 27.9787 1.85788C29.3516 2.33558 30.6362 2.94575 31.8364 3.66832C39.9172 8.52558 43.9635 18.4208 41.0652 27.8342C39.4475 33.0969 35.9431 37.2637 31.5274 39.8248C28.6411 41.4907 25.3655 42.4783 21.9654 42.6308C21.3994 42.6549 20.8293 42.6669 20.2593 42.6348C18.8583 42.5947 17.4453 42.398 16.0443 42.0527C15.6349 41.9564 15.2294 41.844 14.82 41.7196C12.6964 41.0652 10.7495 40.1058 9.01935 38.9015H9.02337Z" fill="white"/>
</g>
<path d="M11.0747 35.9469C9.91455 35.1441 8.87486 34.2127 7.96362 33.169C6.71518 31.76 5.71162 30.1583 4.98504 28.4362C3.5961 25.1646 3.19868 21.4514 4.04569 17.7743C4.134 17.3568 4.25042 16.9474 4.37486 16.5339C5.18574 13.9046 6.56264 11.6044 8.33294 9.72572C9.54525 8.43312 10.9502 7.34525 12.4757 6.4862C13.4591 5.93625 14.4988 5.47461 15.5747 5.12135C16.9435 4.67175 18.3726 4.38674 19.8338 4.2904C21.9052 4.1499 24.0247 4.38273 26.1242 5.02501C26.3449 5.09326 26.5657 5.16551 26.7865 5.24579C27.9226 5.64321 28.9904 6.14901 29.9859 6.74714C36.6817 10.7734 40.0376 18.9706 37.6331 26.7743C36.2923 31.1378 33.39 34.5901 29.729 36.7096C27.3365 38.0905 24.6228 38.9094 21.8048 39.0339C21.3351 39.054 20.8655 39.062 20.3918 39.0379C19.2317 39.0018 18.0595 38.8412 16.8994 38.5562C16.5622 38.4799 16.221 38.3836 15.8838 38.2792C14.1215 37.7373 12.5118 36.9384 11.0747 35.9469Z" fill="url(#paint0_linear_307_3150)"/>
<path style="mix-blend-mode:soft-light" d="M6.07692 17.0038C5.40653 17.2728 4.73212 17.5297 4.04568 17.7705C4.134 17.3531 4.25042 16.9436 4.37486 16.5301C5.74372 12.0904 8.72231 8.58991 12.4756 6.48242C12.588 6.92801 12.6764 7.38162 12.7366 7.83925C12.9373 9.35262 12.845 10.9423 12.1906 12.3192C11.0626 14.6916 8.51358 16.0163 6.07692 17.0038Z" fill="url(#paint1_linear_307_3150)"/>
<path style="mix-blend-mode:soft-light" d="M29.7249 36.7099C31.5956 32.6676 32.6353 28.292 33.398 23.9044C33.7753 21.7608 34.0844 19.5329 33.5184 17.4294C33.0447 15.6711 31.997 14.1337 31.2503 12.4718C30.4475 10.6734 30.026 8.71443 29.9818 6.74744C28.9863 6.14931 27.9185 5.64351 26.7825 5.24609C26.0358 6.96019 25.1085 8.62209 24.1451 10.1997C21.6763 14.2461 18.8543 18.2483 17.927 22.8928C17.2767 26.1364 17.6139 29.5766 18.8824 32.6314C19.7615 34.751 21.0742 36.6899 21.7606 38.8816C21.7767 38.9338 21.7927 38.982 21.8048 39.0342C24.6228 38.9097 27.3364 38.0908 29.7289 36.7099H29.7249ZM25.8391 32.507C25.5621 29.7371 25.522 26.9472 25.7147 24.1694C25.7829 23.2461 25.8712 22.3228 25.8471 21.3995C25.819 20.2876 25.6304 19.1716 25.7347 18.0677C25.8391 17.024 27.0032 12.4276 28.4685 14.1899C29.7289 15.7073 30.592 17.7626 30.596 19.7456C30.596 20.8295 30.3511 21.9053 30.0742 22.953C29.1027 26.594 27.7298 30.1145 26.361 33.6189C25.9756 33.4262 25.8833 32.9285 25.8391 32.503V32.507Z" fill="url(#paint2_linear_307_3150)"/>
<path style="mix-blend-mode:soft-light" d="M7.9596 33.1692C6.71116 31.7602 5.7076 30.1585 4.98102 28.4364C6.90787 25.3935 9.10768 22.5273 11.5484 19.8779C13.4752 17.7905 15.655 15.6228 16.0845 12.8128C16.3213 11.2232 15.96 9.61345 15.7392 8.01978C15.6028 7.06439 15.5305 6.08892 15.5707 5.12148C16.9395 4.67189 18.3686 4.38687 19.8298 4.29053C19.8338 4.31461 19.8378 4.33871 19.8418 4.36279C20.2433 6.61881 20.0827 8.97518 19.3882 11.1589C17.5938 16.7749 12.5278 20.7731 10.1875 26.1884C9.21607 28.4283 8.74639 30.857 7.9596 33.1732V33.1692Z" fill="url(#paint3_linear_307_3150)"/>
<path style="mix-blend-mode:soft-light" d="M11.0746 35.9474C11.8976 33.7435 12.8369 31.5798 13.8846 29.4643C13.977 29.2756 14.1135 29.0669 14.3182 29.0749C14.539 29.087 14.6514 29.3359 14.7116 29.5486C15.3739 31.8809 15.663 34.3015 16.2852 36.6418C16.4578 37.2841 16.6585 37.9304 16.8994 38.5566C16.5622 38.4804 16.2209 38.384 15.8837 38.2796C14.1215 37.7377 12.5118 36.9389 11.0746 35.9474Z" fill="url(#paint4_linear_307_3150)"/>
<g style="mix-blend-mode:multiply" opacity="0.26">
<path d="M11.0747 35.9473C9.91455 35.1444 8.87486 34.2131 7.96362 33.1694C6.71518 31.7604 5.71162 30.1587 4.98504 28.4366C3.5961 25.165 3.19868 21.4518 4.04569 17.7747C4.134 17.3572 4.25042 16.9477 4.37486 16.5343C5.18574 13.9049 6.56264 11.6048 8.33294 9.72607C7.97567 12.1105 7.9315 14.5793 7.93552 16.9919C7.94354 21.235 8.09208 25.6587 10.0631 29.4161C11.8253 32.78 14.8682 35.2769 17.9913 37.4285C18.7821 37.9745 19.5889 38.5044 20.3918 39.0342C19.2317 38.9981 18.0595 38.8375 16.8994 38.5525C16.5622 38.4763 16.221 38.3799 15.8838 38.2755C14.1215 37.7336 12.5118 36.9348 11.0747 35.9433V35.9473Z" fill="#351A65"/>
</g>
<defs>
<linearGradient id="paint0_linear_307_3150" x1="13.0663" y1="9.57486" x2="27.7601" y2="31.9234" gradientUnits="userSpaceOnUse">
<stop stop-color="#DB7FFF"/>
<stop offset="1" stop-color="#4EE7F8"/>
</linearGradient>
<linearGradient id="paint1_linear_307_3150" x1="5.02887" y1="17.0534" x2="12.226" y2="9.01835" gradientUnits="userSpaceOnUse">
<stop stop-color="#FFC042"/>
<stop offset="1" stop-color="white"/>
</linearGradient>
<linearGradient id="paint2_linear_307_3150" x1="18.0798" y1="32.3381" x2="33.2131" y2="15.4467" gradientUnits="userSpaceOnUse">
<stop stop-color="#FFC042"/>
<stop offset="1" stop-color="white"/>
</linearGradient>
<linearGradient id="paint3_linear_307_3150" x1="4.76958" y1="26.957" x2="19.8629" y2="10.1069" gradientUnits="userSpaceOnUse">
<stop stop-color="#FFC042"/>
<stop offset="1" stop-color="white"/>
</linearGradient>
<linearGradient id="paint4_linear_307_3150" x1="12.9055" y1="36.7479" x2="16.6759" y2="32.5418" gradientUnits="userSpaceOnUse">
<stop stop-color="#FFC042"/>
<stop offset="1" stop-color="white"/>
</linearGradient>
</defs>
</svg>
