<svg width="81" height="52" viewBox="0 0 81 52" fill="none" xmlns="http://www.w3.org/2000/svg">
<g style="mix-blend-mode:soft-light">
<path d="M59.9458 34.9476C58.796 37.4401 57.2417 39.6049 55.3672 41.3914C52.3878 44.2902 48.6369 46.2191 44.607 47.0149C41.8017 47.5655 38.8598 47.5692 35.9741 46.9344C34.4778 46.6105 32.9984 46.1161 31.549 45.4513C27.4516 43.5618 24.2251 40.5393 22.0865 36.9251C21.0697 35.2304 20.3131 33.4008 19.8038 31.4832C18.5716 26.8428 18.8787 21.7604 21.0453 17.0564C21.3468 16.4047 21.6783 15.7755 22.0435 15.165C25.624 9.01147 31.9516 5.23435 38.7194 4.65944C41.2268 4.44784 43.798 4.67817 46.2998 5.38978C47.3635 5.69314 48.4066 6.07891 49.4403 6.55082C55.6181 9.386 59.7904 14.7867 61.2885 20.9084C61.5619 22.017 61.7454 23.1387 61.8353 24.2754C62.1274 27.8166 61.5338 31.487 59.9439 34.9457L59.9458 34.9476Z" stroke="white" stroke-miterlimit="10"/>
</g>
<g style="mix-blend-mode:soft-light">
<path d="M61.6686 35.7397C60.4177 38.4532 58.7248 40.809 56.6836 42.7528C53.4421 45.9082 49.3579 48.0093 44.9721 48.8745C41.9197 49.4737 38.7156 49.4774 35.5752 48.7864C33.946 48.4344 32.3355 47.8951 30.7587 47.1722C26.2981 45.1161 22.7869 41.8258 20.4592 37.8914C19.3525 36.0468 18.5285 34.0562 17.9742 31.9682C16.6334 26.9177 16.9686 21.3859 19.3244 16.2642C19.6521 15.5563 20.0135 14.8691 20.4124 14.2062C24.3093 7.50771 31.1988 3.39726 38.5639 2.77179C41.2924 2.54146 44.092 2.79052 46.8148 3.56767C47.9721 3.89725 49.1069 4.3186 50.2324 4.8317C56.957 7.91782 61.4982 13.7961 63.1293 20.4608C63.427 21.6668 63.6255 22.8878 63.7248 24.1256C64.0413 27.9795 63.3971 31.9757 61.6649 35.7416L61.6686 35.7397Z" stroke="white" stroke-miterlimit="10"/>
</g>
<g style="mix-blend-mode:soft-light">
<path d="M63.1986 36.4438C61.8578 39.3539 60.0413 41.8801 57.854 43.9644C54.3765 47.3483 50.0002 49.6011 45.2942 50.528C42.0208 51.1703 38.5845 51.1741 35.2175 50.4344C33.4703 50.0561 31.7437 49.4775 30.0527 48.7041C25.27 46.5 21.5041 42.97 19.0079 38.7509C17.8225 36.7734 16.9386 34.6386 16.3431 32.3989C14.9049 26.9832 15.2645 21.0507 17.7925 15.5582C18.1427 14.7979 18.5322 14.062 18.9592 13.3504C23.1389 6.16692 30.5247 1.75871 38.4253 1.0883C41.3523 0.841112 44.3541 1.1089 47.2736 1.94223C48.5152 2.29616 49.7324 2.74747 50.9402 3.29802C58.1518 6.60699 63.0207 12.9103 64.7697 20.0563C65.0899 21.3485 65.3034 22.6593 65.4083 23.987C65.7491 28.1199 65.0581 32.4045 63.2004 36.442L63.1986 36.4438Z" stroke="white" stroke-miterlimit="10"/>
</g>
<path d="M59.6142 28.2771C59.455 29.6067 59.1666 30.8857 58.7584 32.1048C58.4157 33.1366 57.9869 34.1216 57.4794 35.058C55.7322 38.3613 53.0562 41.0504 49.8278 42.8463C47.5787 44.0916 45.0619 44.9081 42.4177 45.1646C41.0488 45.3013 39.6462 45.2864 38.2211 45.1197C34.193 44.6384 30.5957 42.9437 27.7661 40.4418C26.4272 39.2733 25.2736 37.9156 24.3073 36.4156C23.9085 35.7958 23.5433 35.1535 23.2175 34.4887C22.2549 32.5374 21.6164 30.4082 21.3635 28.1797C21.1988 26.7303 21.1987 25.2378 21.3785 23.7266C21.4553 23.0861 21.5658 22.4551 21.71 21.8333C22.1089 20.0019 22.7643 18.2809 23.6351 16.7004C25.268 13.7379 27.6538 11.2772 30.5039 9.54316C31.3241 9.04317 32.1837 8.60497 33.0751 8.23044C35.1612 7.35591 37.4252 6.84094 39.7642 6.76041C40.7567 6.72483 41.7567 6.76603 42.7716 6.88401C48.8427 7.60123 53.9064 11.0694 56.882 15.8933C57.4232 16.7641 57.8895 17.6742 58.2827 18.6236C58.691 19.603 59.0206 20.6236 59.2603 21.6723C59.749 23.779 59.8857 26.0075 59.6142 28.2771Z" fill="url(#paint0_linear_307_3137)"/>
<path style="mix-blend-mode:soft-light" d="M55.2023 33.4704C56.0207 33.9086 56.7903 34.4367 57.4776 35.0565C55.7304 38.3617 53.0544 41.049 49.826 42.8448C49.5619 42.6651 49.2867 42.4759 49.0226 42.2962C46.899 40.8636 44.7773 39.4198 42.6425 37.9872C41.3335 37.1014 39.9927 36.1951 38.4571 35.8299C35.695 35.152 32.8486 36.2868 30.0284 36.6745C28.1295 36.9348 26.1857 36.8355 24.3056 36.416C21.9685 32.785 20.8243 28.3524 21.3768 23.727C21.4535 23.0866 21.564 22.4555 21.7082 21.8319C25.3917 20.9255 29.049 19.8132 32.6239 20.8525C37.6725 22.3281 40.6388 27.6464 45.3223 30.0434C48.4309 31.6296 52.1125 31.8393 55.2005 33.4704H55.2023Z" fill="url(#paint1_linear_307_3137)"/>
<path style="mix-blend-mode:soft-light" d="M33.4609 31.9742C31.1632 33.2925 28.7456 34.6464 26.0977 34.7475C25.1314 34.7831 24.1726 34.6502 23.2176 34.4891C22.255 32.5378 21.6165 30.4086 21.3636 28.1802C25.4966 28.4011 29.5228 29.7738 33.4572 31.1333C33.6145 31.1876 33.7924 31.2625 33.8429 31.4217C33.916 31.6539 33.6725 31.8524 33.4609 31.9742Z" fill="url(#paint2_linear_307_3137)"/>
<path style="mix-blend-mode:soft-light" d="M36.0396 16.2176C36.0583 16.6164 35.6014 16.8449 35.2194 16.9573C31.8879 17.9404 28.2831 17.9853 24.9292 17.0827C24.4966 16.9666 24.0659 16.8355 23.6352 16.7007C25.2681 13.7382 27.6539 11.2775 30.5041 9.54346C32.3898 11.5491 34.3748 13.4798 35.8617 15.7887C35.946 15.9198 36.0321 16.0603 36.0396 16.2176Z" fill="url(#paint3_linear_307_3137)"/>
<path style="mix-blend-mode:soft-light" d="M59.6143 28.2772C59.4551 29.6068 59.1667 30.8858 58.7585 32.1049C57.3596 31.8109 55.9964 31.3127 54.6743 30.7603C51.7136 29.5225 48.8578 27.9813 46.3972 25.9233C46.1537 25.721 45.899 25.4813 45.8728 25.1667C45.8466 24.869 46.0357 24.5974 46.2417 24.384C46.8597 23.7473 47.7005 23.3765 48.5451 23.1012C51.7436 22.06 55.1911 22.2173 58.5263 21.781C58.7697 21.7491 59.0151 21.7136 59.2604 21.6724C59.7491 23.7791 59.8858 26.0075 59.6143 28.2772Z" fill="url(#paint4_linear_307_3137)"/>
<path style="mix-blend-mode:soft-light" d="M42.0077 43.7901C42.2212 44.2021 42.3747 44.6853 42.4178 45.1647C41.047 45.3014 39.6444 45.2864 38.2212 45.1197C34.1912 44.6366 30.5958 42.9418 27.7662 40.44C29.8168 39.6778 31.9516 39.1928 34.1257 39.2864C37.2998 39.4213 40.5358 40.9868 42.0077 43.7901Z" fill="url(#paint5_linear_307_3137)"/>
<path style="mix-blend-mode:soft-light" d="M58.281 18.624C58.1967 18.6633 58.0993 18.6914 58.0151 18.7288C54.2042 20.1801 49.9196 21.4123 46.1462 19.8618C42.723 18.4629 40.5714 15.1371 38.0433 12.4292C36.5564 10.8337 34.8842 9.42364 33.0733 8.23264C35.1594 7.35811 37.4253 6.84314 39.7624 6.76074C40.2587 8.44612 40.7249 10.1558 41.6144 11.639C44.12 15.8169 49.6612 17.4329 54.4496 16.5191C55.2716 16.3655 56.0769 16.1464 56.8821 15.8936C57.4233 16.7663 57.8896 17.6764 58.2829 18.624H58.281Z" fill="url(#paint6_linear_307_3137)"/>
<path d="M59.3372 29.9759C59.2323 30.4928 59.1012 31.0096 58.9477 31.5283C69.6068 37.0077 76.5318 41.2979 76.0468 42.3504C75.5674 43.3915 67.8034 40.9271 56.7061 36.401C51.4795 34.2736 45.5058 31.6838 39.2137 28.7887C32.9216 25.8954 27.0752 23.0509 22.0584 20.4666C11.3993 14.9873 4.46491 10.6933 4.94431 9.65022C5.42745 8.59779 13.2027 11.0678 24.3 15.594C24.5921 15.1389 24.9011 14.7045 25.2251 14.2888C11.2439 8.68768 1.09977 5.8038 0.30951 7.52102C-0.475129 9.22887 8.3132 15.0603 21.6652 22.0303C26.7269 24.6707 32.4404 27.4666 38.534 30.268C44.6388 33.0751 50.4833 35.5826 55.7773 37.7174C69.7697 43.3223 79.9082 46.193 80.6928 44.4852C81.4831 42.768 72.7004 36.9496 59.3372 29.9759Z" fill="url(#paint7_linear_307_3137)"/>
<defs>
<linearGradient id="paint0_linear_307_3137" x1="44.7323" y1="45.335" x2="37.9608" y2="14.4326" gradientUnits="userSpaceOnUse">
<stop stop-color="#DB7FFF"/>
<stop offset="1" stop-color="#4EE7F8"/>
</linearGradient>
<linearGradient id="paint1_linear_307_3137" x1="21.2419" y1="31.6408" x2="57.4776" y2="31.6408" gradientUnits="userSpaceOnUse">
<stop stop-color="#FFC042"/>
<stop offset="1" stop-color="white"/>
</linearGradient>
<linearGradient id="paint2_linear_307_3137" x1="21.3636" y1="31.4667" x2="33.8561" y2="31.4667" gradientUnits="userSpaceOnUse">
<stop stop-color="#FFC042"/>
<stop offset="1" stop-color="white"/>
</linearGradient>
<linearGradient id="paint3_linear_307_3137" x1="23.6352" y1="13.6371" x2="36.0396" y2="13.6371" gradientUnits="userSpaceOnUse">
<stop stop-color="#FFC042"/>
<stop offset="1" stop-color="white"/>
</linearGradient>
<linearGradient id="paint4_linear_307_3137" x1="45.8691" y1="26.8896" x2="59.751" y2="26.8896" gradientUnits="userSpaceOnUse">
<stop stop-color="#FFC042"/>
<stop offset="1" stop-color="white"/>
</linearGradient>
<linearGradient id="paint5_linear_307_3137" x1="27.7662" y1="42.2677" x2="42.4178" y2="42.2677" gradientUnits="userSpaceOnUse">
<stop stop-color="#FFC042"/>
<stop offset="1" stop-color="white"/>
</linearGradient>
<linearGradient id="paint6_linear_307_3137" x1="33.0733" y1="13.6689" x2="58.281" y2="13.6689" gradientUnits="userSpaceOnUse">
<stop stop-color="#FFC042"/>
<stop offset="1" stop-color="white"/>
</linearGradient>
<linearGradient id="paint7_linear_307_3137" x1="0.260821" y1="26.0022" x2="80.7415" y2="26.0022" gradientUnits="userSpaceOnUse">
<stop stop-color="#FF4FC0"/>
<stop offset="1" stop-color="#FFC64E"/>
</linearGradient>
</defs>
</svg>
