<svg width="45" height="45" viewBox="0 0 45 45" fill="none" xmlns="http://www.w3.org/2000/svg">
<g style="mix-blend-mode:soft-light">
<path d="M38.1855 22.4987C38.1855 27.6285 35.7642 32.1931 31.9996 35.1083C29.3032 37.2022 25.9177 38.4459 22.2405 38.4459C13.4335 38.4459 6.29559 31.3057 6.29559 22.4987C6.29559 19.9064 6.91555 17.4569 8.01188 15.2939C10.6444 10.1071 16.0258 6.55371 22.2405 6.55371C31.0476 6.55371 38.1855 13.6916 38.1855 22.4987Z" stroke="white" stroke-miterlimit="10"/>
</g>
<g style="mix-blend-mode:soft-light">
<path d="M37.4622 22.4985C37.4622 27.3959 35.151 31.7538 31.5566 34.5361C28.9826 36.535 25.7506 37.7225 22.2405 37.7225C13.8331 37.7225 7.01886 30.906 7.01886 22.4985C7.01886 20.024 7.61071 17.6855 8.65765 15.6205C11.1709 10.6692 16.3084 7.27686 22.2413 7.27686C30.6487 7.27686 37.4629 14.0911 37.4629 22.4985H37.4622Z" stroke="white" stroke-miterlimit="10"/>
</g>
<g style="mix-blend-mode:soft-light">
<path d="M40.739 22.4985C40.739 28.4496 37.9302 33.7459 33.5624 37.1275C30.4337 39.5565 26.5066 41 22.2405 41C12.0234 41 3.74207 32.7156 3.74207 22.4985C3.74207 19.4914 4.46079 16.6491 5.73338 14.1404C8.78759 8.12318 15.0312 4 22.2405 4C32.4577 4 40.739 12.2813 40.739 22.4985Z" stroke="white" stroke-width="7" stroke-miterlimit="10"/>
</g>
<g style="mix-blend-mode:soft-light">
<path d="M35.9905 22.499C35.9905 26.9231 33.9027 30.8594 30.6556 33.3734C28.33 35.1786 25.411 36.2513 22.2398 36.2513C14.6453 36.2513 8.48975 30.0935 8.48975 22.499C8.48975 20.2639 9.02385 18.151 9.96975 16.2865C12.2399 11.8139 16.8805 8.74902 22.2398 8.74902C29.8343 8.74902 35.9898 14.9046 35.9898 22.499H35.9905Z" fill="white"/>
</g>
<path d="M35.2802 22.4991C35.2802 26.6945 33.3003 30.4279 30.221 32.8113C28.0155 34.5237 25.2477 35.5411 22.2398 35.5411C15.0373 35.5411 9.1994 29.7016 9.1994 22.4991C9.1994 20.3794 9.70616 18.3759 10.6027 16.6072C12.7558 12.3655 17.1563 9.45947 22.2391 9.45947C29.4415 9.45947 35.2795 15.2974 35.2795 22.4999L35.2802 22.4991Z" fill="url(#paint0_linear_307_3158)"/>
<g style="mix-blend-mode:multiply" opacity="0.26">
<g style="mix-blend-mode:soft-light">
<path d="M19.9295 15.4256C20.5307 15.1766 20.8163 14.4873 20.5672 13.886C20.3182 13.2847 19.6288 12.9992 19.0276 13.2483C18.4263 13.4973 18.1408 14.1866 18.3898 14.7879C18.6389 15.3892 19.3282 15.6747 19.9295 15.4256Z" fill="#351A65"/>
</g>
<g style="mix-blend-mode:soft-light">
<path d="M25.8017 16.3065C26.403 16.0574 26.6885 15.3681 26.4395 14.7669C26.1904 14.1656 25.5011 13.8801 24.8998 14.1291C24.2986 14.3782 24.0131 15.0675 24.2621 15.6688C24.5112 16.27 25.2005 16.5555 25.8017 16.3065Z" fill="#351A65"/>
</g>
<g style="mix-blend-mode:soft-light">
<path d="M22.2406 20.393C22.9635 20.393 23.5496 19.8069 23.5496 19.084C23.5496 18.361 22.9635 17.7749 22.2406 17.7749C21.5176 17.7749 20.9315 18.361 20.9315 19.084C20.9315 19.8069 21.5176 20.393 22.2406 20.393Z" fill="#351A65"/>
</g>
<g style="mix-blend-mode:soft-light">
<path d="M17.2945 23.4832C17.9888 22.7889 17.9888 21.6632 17.2945 20.969C16.6002 20.2747 15.4746 20.2747 14.7803 20.969C14.086 21.6632 14.086 22.7889 14.7803 23.4832C15.4746 24.1775 16.6002 24.1775 17.2945 23.4832Z" fill="#351A65"/>
</g>
<g style="mix-blend-mode:soft-light">
<path d="M16.0904 31.0068C16.8658 31.0068 17.4944 30.3782 17.4944 29.6028C17.4944 28.8273 16.8658 28.1987 16.0904 28.1987C15.3149 28.1987 14.6863 28.8273 14.6863 29.6028C14.6863 30.3782 15.3149 31.0068 16.0904 31.0068Z" fill="#351A65"/>
</g>
<g style="mix-blend-mode:soft-light">
<path d="M30.548 22.954C31.6989 21.8031 31.6989 19.9371 30.548 18.7862C29.3971 17.6353 27.5311 17.6353 26.3802 18.7862C25.2293 19.9371 25.2293 21.8031 26.3802 22.954C27.5311 24.1049 29.3971 24.1049 30.548 22.954Z" fill="#351A65"/>
</g>
<g style="mix-blend-mode:soft-light">
<path d="M26.654 31.0066C27.233 31.0066 27.7025 30.5372 27.7025 29.9581C27.7025 29.3791 27.233 28.9097 26.654 28.9097C26.0749 28.9097 25.6055 29.3791 25.6055 29.9581C25.6055 30.5372 26.0749 31.0066 26.654 31.0066Z" fill="#351A65"/>
</g>
<g style="mix-blend-mode:soft-light">
<path d="M24.2494 25.4968C24.8582 25.4968 25.3518 25.0032 25.3518 24.3944C25.3518 23.7856 24.8582 23.292 24.2494 23.292C23.6405 23.292 23.147 23.7856 23.147 24.3944C23.147 25.0032 23.6405 25.4968 24.2494 25.4968Z" fill="#351A65"/>
</g>
<g style="mix-blend-mode:soft-light">
<path d="M22.0096 33.886C22.6377 33.886 23.147 33.3768 23.147 32.7487C23.147 32.1205 22.6377 31.6113 22.0096 31.6113C21.3815 31.6113 20.8723 32.1205 20.8723 32.7487C20.8723 33.3768 21.3815 33.886 22.0096 33.886Z" fill="#351A65"/>
</g>
<g style="mix-blend-mode:soft-light">
<path d="M14.4022 18.316C14.9913 18.316 15.4689 17.8384 15.4689 17.2493C15.4689 16.6602 14.9913 16.1826 14.4022 16.1826C13.8131 16.1826 13.3355 16.6602 13.3355 17.2493C13.3355 17.8384 13.8131 18.316 14.4022 18.316Z" fill="#351A65"/>
</g>
<g style="mix-blend-mode:soft-light">
<path d="M30.8488 25.7469C31.1583 25.4374 31.1583 24.9357 30.8488 24.6262C30.5394 24.3167 30.0376 24.3167 29.7282 24.6262C29.4187 24.9357 29.4187 25.4374 29.7282 25.7469C30.0376 26.0563 30.5394 26.0563 30.8488 25.7469Z" fill="#351A65"/>
</g>
<g style="mix-blend-mode:soft-light">
<path d="M20.8598 27.0266C21.4165 26.796 21.6809 26.1578 21.4503 25.6012C21.2197 25.0445 20.5815 24.7801 20.0248 25.0107C19.4681 25.2413 19.2038 25.8795 19.4344 26.4362C19.6649 26.9929 20.3031 27.2572 20.8598 27.0266Z" fill="#351A65"/>
</g>
<g style="mix-blend-mode:soft-light">
<path d="M14.3736 26.237C14.5089 25.6637 14.1538 25.0892 13.5805 24.9538C13.0071 24.8185 12.4326 25.1736 12.2973 25.747C12.162 26.3204 12.5171 26.8949 13.0904 27.0302C13.6638 27.1655 14.2383 26.8104 14.3736 26.237Z" fill="#351A65"/>
</g>
<g style="mix-blend-mode:soft-light">
<path d="M23.1834 14.2737C23.3131 14.2737 23.4182 14.1686 23.4182 14.039C23.4182 13.9093 23.3131 13.8042 23.1834 13.8042C23.0538 13.8042 22.9487 13.9093 22.9487 14.039C22.9487 14.1686 23.0538 14.2737 23.1834 14.2737Z" fill="#351A65"/>
</g>
<g style="mix-blend-mode:soft-light">
<path d="M23.6529 16.8177C23.6529 16.8823 23.6005 16.9347 23.5359 16.9347C23.4714 16.9347 23.4189 16.8823 23.4189 16.8177C23.4189 16.7531 23.4714 16.7007 23.5359 16.7007C23.6005 16.7007 23.6529 16.7531 23.6529 16.8177Z" fill="#351A65"/>
</g>
<g style="mix-blend-mode:soft-light">
<path d="M27.5641 14.9073C27.6288 14.9073 27.6811 14.855 27.6811 14.7903C27.6811 14.7257 27.6288 14.6733 27.5641 14.6733C27.4995 14.6733 27.4471 14.7257 27.4471 14.7903C27.4471 14.855 27.4995 14.9073 27.5641 14.9073Z" fill="#351A65"/>
</g>
<g style="mix-blend-mode:soft-light">
<path d="M30.0022 15.4598C30.0022 15.5244 29.9498 15.5768 29.8852 15.5768C29.8206 15.5768 29.7682 15.5244 29.7682 15.4598C29.7682 15.3952 29.8206 15.3428 29.8852 15.3428C29.9498 15.3428 30.0022 15.3952 30.0022 15.4598Z" fill="#351A65"/>
</g>
<g style="mix-blend-mode:soft-light">
<path d="M29.8845 17.3729C29.8845 17.4374 29.832 17.4899 29.7675 17.4899C29.7029 17.4899 29.6505 17.4374 29.6505 17.3729C29.6505 17.3083 29.7029 17.2559 29.7675 17.2559C29.832 17.2559 29.8845 17.3083 29.8845 17.3729Z" fill="#351A65"/>
</g>
<g style="mix-blend-mode:soft-light">
<path d="M28.8329 11.9925C28.8329 12.0571 28.7805 12.1095 28.7159 12.1095C28.6514 12.1095 28.5989 12.0571 28.5989 11.9925C28.5989 11.9279 28.6514 11.8755 28.7159 11.8755C28.7805 11.8755 28.8329 11.9279 28.8329 11.9925Z" fill="#351A65"/>
</g>
<g style="mix-blend-mode:soft-light">
<path d="M31.739 14.9073C31.8036 14.9073 31.856 14.855 31.856 14.7903C31.856 14.7257 31.8036 14.6733 31.739 14.6733C31.6744 14.6733 31.622 14.7257 31.622 14.7903C31.622 14.855 31.6744 14.9073 31.739 14.9073Z" fill="#351A65"/>
</g>
<g style="mix-blend-mode:soft-light">
<path d="M33.8648 18.714C33.9294 18.714 33.9818 18.6616 33.9818 18.597C33.9818 18.5324 33.9294 18.48 33.8648 18.48C33.8002 18.48 33.7478 18.5324 33.7478 18.597C33.7478 18.6616 33.8002 18.714 33.8648 18.714Z" fill="#351A65"/>
</g>
<g style="mix-blend-mode:soft-light">
<path d="M33.2319 17.0394C33.2319 17.1039 33.1795 17.1564 33.1149 17.1564C33.0503 17.1564 32.9979 17.1039 32.9979 17.0394C32.9979 16.9748 33.0503 16.9224 33.1149 16.9224C33.1795 16.9224 33.2319 16.9748 33.2319 17.0394Z" fill="#351A65"/>
</g>
<g style="mix-blend-mode:soft-light">
<path d="M21.5074 10.1569C21.572 10.1569 21.6244 10.1045 21.6244 10.0399C21.6244 9.97524 21.572 9.92285 21.5074 9.92285C21.4428 9.92285 21.3904 9.97524 21.3904 10.0399C21.3904 10.1045 21.4428 10.1569 21.5074 10.1569Z" fill="#351A65"/>
</g>
<g style="mix-blend-mode:soft-light">
<path d="M20.443 19.0839C20.443 19.2138 20.3381 19.3187 20.2082 19.3187C20.0783 19.3187 19.9734 19.2138 19.9734 19.0839C19.9734 18.954 20.0783 18.8491 20.2082 18.8491C20.3381 18.8491 20.443 18.954 20.443 19.0839Z" fill="#351A65"/>
</g>
<g style="mix-blend-mode:soft-light">
<path d="M32.6728 18.2445C32.6728 18.3744 32.5679 18.4793 32.438 18.4793C32.3081 18.4793 32.2032 18.3744 32.2032 18.2445C32.2032 18.1146 32.3081 18.0098 32.438 18.0098C32.5679 18.0098 32.6728 18.1146 32.6728 18.2445Z" fill="#351A65"/>
</g>
<g style="mix-blend-mode:soft-light">
<path d="M30.6184 14.1024C30.6184 14.2324 30.5135 14.3372 30.3836 14.3372C30.2537 14.3372 30.1489 14.2324 30.1489 14.1024C30.1489 13.9725 30.2537 13.8677 30.3836 13.8677C30.5135 13.8677 30.6184 13.9725 30.6184 14.1024Z" fill="#351A65"/>
</g>
<g style="mix-blend-mode:soft-light">
<path d="M26.5081 13.1586C26.5081 13.2885 26.4033 13.3934 26.2733 13.3934C26.1434 13.3934 26.0386 13.2885 26.0386 13.1586C26.0386 13.0287 26.1434 12.9238 26.2733 12.9238C26.4033 12.9238 26.5081 13.0287 26.5081 13.1586Z" fill="#351A65"/>
</g>
<g style="mix-blend-mode:soft-light">
<path d="M27.4464 12.4617C27.5761 12.4617 27.6812 12.3566 27.6812 12.227C27.6812 12.0973 27.5761 11.9922 27.4464 11.9922C27.3168 11.9922 27.2117 12.0973 27.2117 12.227C27.2117 12.3566 27.3168 12.4617 27.4464 12.4617Z" fill="#351A65"/>
</g>
<g style="mix-blend-mode:soft-light">
<path d="M21.6244 12.7182C21.6244 12.8481 21.5196 12.9529 21.3897 12.9529C21.2598 12.9529 21.1549 12.8481 21.1549 12.7182C21.1549 12.5882 21.2598 12.4834 21.3897 12.4834C21.5196 12.4834 21.6244 12.5882 21.6244 12.7182Z" fill="#351A65"/>
</g>
<g style="mix-blend-mode:soft-light">
<path d="M19.7129 11.9926C19.7129 12.1225 19.608 12.2273 19.4781 12.2273C19.3482 12.2273 19.2433 12.1225 19.2433 11.9926C19.2433 11.8627 19.3482 11.7578 19.4781 11.7578C19.608 11.7578 19.7129 11.8627 19.7129 11.9926Z" fill="#351A65"/>
</g>
<g style="mix-blend-mode:soft-light">
<path d="M24.8891 10.5131C24.8891 10.643 24.7842 10.7478 24.6543 10.7478C24.5244 10.7478 24.4196 10.643 24.4196 10.5131C24.4196 10.3832 24.5244 10.2783 24.6543 10.2783C24.7842 10.2783 24.8891 10.3832 24.8891 10.5131Z" fill="#351A65"/>
</g>
<g style="mix-blend-mode:soft-light">
<path d="M27.3271 17.0395C27.3271 17.1694 27.2223 17.2742 27.0924 17.2742C26.9625 17.2742 26.8576 17.1694 26.8576 17.0395C26.8576 16.9095 26.9625 16.8047 27.0924 16.8047C27.2223 16.8047 27.3271 16.9095 27.3271 17.0395Z" fill="#351A65"/>
</g>
<g style="mix-blend-mode:soft-light">
<path d="M24.8891 17.7758C24.8891 17.9057 24.7842 18.0105 24.6543 18.0105C24.5244 18.0105 24.4196 17.9057 24.4196 17.7758C24.4196 17.6459 24.5244 17.541 24.6543 17.541C24.7842 17.541 24.8891 17.6459 24.8891 17.7758Z" fill="#351A65"/>
</g>
<g style="mix-blend-mode:soft-light">
<path d="M20.443 17.3729C20.443 17.5029 20.3381 17.6077 20.2082 17.6077C20.0783 17.6077 19.9734 17.5029 19.9734 17.3729C19.9734 17.243 20.0783 17.1382 20.2082 17.1382C20.3381 17.1382 20.443 17.243 20.443 17.3729Z" fill="#351A65"/>
</g>
<g style="mix-blend-mode:soft-light">
<path d="M22.9486 12.718C23.4673 12.718 23.8877 12.2975 23.8877 11.7789C23.8877 11.2603 23.4673 10.8398 22.9486 10.8398C22.43 10.8398 22.0096 11.2603 22.0096 11.7789C22.0096 12.2975 22.43 12.718 22.9486 12.718Z" fill="#351A65"/>
</g>
<g style="mix-blend-mode:soft-light">
<path d="M25.5903 12.2271C25.8379 12.2271 26.0386 12.0264 26.0386 11.7788C26.0386 11.5313 25.8379 11.3306 25.5903 11.3306C25.3428 11.3306 25.1421 11.5313 25.1421 11.7788C25.1421 12.0264 25.3428 12.2271 25.5903 12.2271Z" fill="#351A65"/>
</g>
<g style="mix-blend-mode:soft-light">
<path d="M22.2862 15.9082C22.2862 16.1559 22.0856 16.3565 21.8379 16.3565C21.5902 16.3565 21.3896 16.1559 21.3896 15.9082C21.3896 15.6605 21.5902 15.46 21.8379 15.46C22.0856 15.46 22.2862 15.6605 22.2862 15.9082Z" fill="#351A65"/>
</g>
<g style="mix-blend-mode:soft-light">
<path d="M28.912 13.5908C28.912 13.8385 28.7114 14.0391 28.4637 14.0391C28.216 14.0391 28.0154 13.8385 28.0154 13.5908C28.0154 13.3432 28.216 13.1426 28.4637 13.1426C28.7114 13.1426 28.912 13.3432 28.912 13.5908Z" fill="#351A65"/>
</g>
<g style="mix-blend-mode:soft-light">
<path d="M20.4217 11.3306C20.6693 11.3306 20.87 11.1299 20.87 10.8823C20.87 10.6348 20.6693 10.4341 20.4217 10.4341C20.1741 10.4341 19.9734 10.6348 19.9734 10.8823C19.9734 11.1299 20.1741 11.3306 20.4217 11.3306Z" fill="#351A65"/>
</g>
<g style="mix-blend-mode:soft-light">
<path d="M28.7152 16.8047C28.9628 16.8047 29.1635 16.604 29.1635 16.3565C29.1635 16.1089 28.9628 15.9082 28.7152 15.9082C28.4677 15.9082 28.267 16.1089 28.267 16.3565C28.267 16.604 28.4677 16.8047 28.7152 16.8047Z" fill="#351A65"/>
</g>
<g style="mix-blend-mode:soft-light">
<path d="M32.1813 16.8799C32.2819 16.454 32.0181 16.0272 31.5921 15.9267C31.1662 15.8261 30.7394 16.0899 30.6389 16.5159C30.5383 16.9418 30.8021 17.3686 31.2281 17.4691C31.654 17.5697 32.0808 17.3059 32.1813 16.8799Z" fill="#351A65"/>
</g>
<g style="mix-blend-mode:soft-light">
<path d="M34.0047 22.7862C34.0995 22.3847 33.8509 21.9825 33.4494 21.8877C33.048 21.793 32.6458 22.0416 32.551 22.4431C32.4563 22.8445 32.7049 23.2467 33.1063 23.3415C33.5078 23.4362 33.91 23.1876 34.0047 22.7862Z" fill="#351A65"/>
</g>
<g style="mix-blend-mode:soft-light">
<path d="M30.8129 29.9581C31.1024 29.9581 31.3371 29.7234 31.3371 29.4339C31.3371 29.1444 31.1024 28.9097 30.8129 28.9097C30.5233 28.9097 30.2886 29.1444 30.2886 29.4339C30.2886 29.7234 30.5233 29.9581 30.8129 29.9581Z" fill="#351A65"/>
</g>
<g style="mix-blend-mode:soft-light">
<path d="M27.4601 27.1098C27.9057 27.1098 28.2669 26.7486 28.2669 26.303C28.2669 25.8573 27.9057 25.4961 27.4601 25.4961C27.0144 25.4961 26.6532 25.8573 26.6532 26.303C26.6532 26.7486 27.0144 27.1098 27.4601 27.1098Z" fill="#351A65"/>
</g>
<g style="mix-blend-mode:soft-light">
<path d="M22.9783 29.6742C23.3858 29.6742 23.716 29.3439 23.716 28.9365C23.716 28.529 23.3858 28.1987 22.9783 28.1987C22.5709 28.1987 22.2406 28.529 22.2406 28.9365C22.2406 29.3439 22.5709 29.6742 22.9783 29.6742Z" fill="#351A65"/>
</g>
</g>
<g style="mix-blend-mode:multiply" opacity="0.26">
<path d="M30.221 32.8114C28.0155 34.5239 25.2477 35.5412 22.2398 35.5412C15.0373 35.5412 9.1994 29.7018 9.1994 22.4993C9.1994 20.3796 9.70616 18.3761 10.6027 16.6074C11.5676 21.4471 15.3587 30.6879 30.2203 32.8122L30.221 32.8114Z" fill="#351A65"/>
</g>
<defs>
<linearGradient id="paint0_linear_307_3158" x1="23.3035" y1="21.2759" x2="30.6807" y2="12.7864" gradientUnits="userSpaceOnUse">
<stop stop-color="#FF4FC0"/>
<stop offset="1" stop-color="#FFC64E"/>
</linearGradient>
</defs>
</svg>
